<svg xmlns="http://www.w3.org/2000/svg" style="width:0; height:0; visibility:hidden;">
    <symbol id="icon_arrow-back" viewBox="0 0 48 96">
      <path id="&#x421;&#x43B;&#x43E;&#x439;_739" class="cls-1" d="M48 0h-48v96h48v-96z"/><path id="&#x421;&#x43B;&#x43E;&#x439;_740" class="cls-2" d="M39.91 16.18l-31.82 31.82 31.82 31.82"/>
    </symbol>
    <symbol id="icon_arrow-next" viewBox="0 0 48 96">
      <path id="&#x421;&#x43B;&#x43E;&#x439;_743" class="cls-1" d="M0 0h48v96h-48z"/><path id="&#x421;&#x43B;&#x43E;&#x439;_744" class="cls-2" d="M8.09 16.18l31.82 31.82-31.82 31.82"/>
    </symbol>
    <symbol id="icon_bar-menu" viewBox="0 0 16 16">
      <path d="M0 1h16v3h-16v-3zM0 6h16v3h-16v-3zM0 11h16v3h-16v-3z"/>
    </symbol>
    <symbol id="icon_created-by" viewBox="0 0 67 17">
      <title>&#x421;&#x43B;&#x43E;&#x439; 10</title><desc>Created with Avocode.</desc><path d="M57.3 6.9l5.54 9.6h3.7l-9.24-16-9.24 16h3.7zm-48.06 3.2l-5.55-9.6h-3.69l9.24 16 9.24-16h-3.7zm36.91 0c-.66 1.86-2.44 3.2-4.53 3.2-2.65 0-4.8-2.15-4.8-4.8s2.15-4.8 4.8-4.8c1.42 0 2.7.62 3.58 1.6h3.75c-1.23-2.82-4.05-4.8-7.33-4.8-4.41 0-8 3.58-8 8 0 4.41 3.59 8 8 8 4.42 0 8-3.59 8-8 0-.55-.05-1.08-.16-1.6h-8.67l-1.86 3.2zm-16.71-3.2c-.66-1.86-2.44-3.2-4.52-3.2-2.65 0-4.8 2.15-4.8 4.8s2.15 4.8 4.8 4.8c1.42 0 2.69-.62 3.57-1.6h3.76c-1.24 2.82-4.06 4.8-7.33 4.8-4.42 0-8-3.59-8-8 0-4.42 3.58-8 8-8 4.41 0 8 3.58 8 8 0 .55-.06 1.08-.16 1.6h-10.55l1.85-3.2z" fill="#b3b3b3"/>
    </symbol>
    <symbol id="icon_diagnostics-icon" viewBox="0 0 66 76">
      <path id="&#x421;&#x43B;&#x43E;&#x439;_25" class="cls-1" d="M33 65.725c17.661 0 32 2.11 32 4.71s-14.339 4.7-32 4.7-32-2.11-32-4.7 14.339-4.71 32-4.71z"/><g id="&#x421;&#x43B;&#x43E;&#x439;_37"><g id="&#x421;&#x43B;&#x43E;&#x439;_31"><path id="&#x421;&#x43B;&#x43E;&#x439;_28" class="cls-2" d="M42.48 1.815h-18.824l3.765 38.59h11.294z"/><path id="&#x421;&#x43B;&#x43E;&#x439;_29" class="cls-3" d="M41.539.875h-18.824l3.765 38.59h11.294z"/><path id="&#x421;&#x43B;&#x43E;&#x439;_30" class="cls-4" d="M39.656 2.755h-15.056l3.764 34.83h7.53z"/></g><g id="&#x421;&#x43B;&#x43E;&#x439;_36"><path id="&#x421;&#x43B;&#x43E;&#x439;_33" class="cls-2" d="M38.715 45.105h-11.294v11.3h11.294v-11.3z"/><path id="&#x421;&#x43B;&#x43E;&#x439;_34" class="cls-3" d="M37.774 44.165h-11.294v11.3h11.294v-11.3z"/><path id="&#x421;&#x43B;&#x43E;&#x439;_35" class="cls-4" d="M35.892 46.055h-7.53v7.53h7.53v-7.53z"/></g></g>
    </symbol>
    <symbol id="icon_logo" viewBox="0 0 213.031 34">
      <path id="&#x421;&#x43B;&#x43E;&#x439;_466" d="M75.47 30.167h-5.033l-1.964-5.2h-9.207l-1.907 5.2h-4.92l8.93-22.932h4.97zm8.242 0l-8.135-22.932h5.04l5.783 16.965 5.615-16.966h4.92l-8.215 22.933h-5.008zm-16.7-9.084l-3.208-8.5-3.118 8.5h6.327z" class="cls-1"/><path id="&#x421;&#x43B;&#x43E;&#x439;_467" d="M109.975 21.77v-3.88h9.968v9.093a13.983 13.983 0 0 1-9.8 3.527q-5.71 0-8.684-3.33a12.376 12.376 0 0 1-2.98-8.562q0-5.88 3.3-8.806a11.785 11.785 0 0 1 8.075-2.922q8.3 0 9.78 6.744l-4.615.867q-1.044-3.63-5.156-3.63-6.58 0-6.58 7.56a9.462 9.462 0 0 0 1.684 5.94 5.81 5.81 0 0 0 4.87 2.17 8.813 8.813 0 0 0 5.425-1.9v-2.87h-5.3zm85.443 8.4v-12.57h7.16a10.214 10.214 0 0 0 4.37-.67 2.637 2.637 0 0 0 1.286-2.587 2.715 2.715 0 0 0-1.145-2.53c-.77-.462-2.36-.7-4.8-.7h-6.88v-3.877h7.45a33.546 33.546 0 0 1 5.59.335 5.314 5.314 0 0 1 3.17 2.12 7.157 7.157 0 0 1 1.41 4.6 7.5 7.5 0 0 1-1.1 4.2 6.026 6.026 0 0 1-2.88 2.37 18.6 18.6 0 0 1-5.997.68h-3.035v8.64h-4.616zm-23.138-22.936h4.62v12.376a30.36 30.36 0 0 0 .188 3.985 3.184 3.184 0 0 0 1.326 2.087 5.1 5.1 0 0 0 3.135.85c1.69 0 2.84-.4 3.46-1.194s.92-2.62.92-5.467v-12.631h4.61v12.03a28.45 28.45 0 0 1-.52 6.3 6.027 6.027 0 0 1-2.53 3.52 9.97 9.97 0 0 1-5.81 1.423 11.67 11.67 0 0 1-5.82-1.21 6.12 6.12 0 0 1-2.848-3.144 20.89 20.89 0 0 1-.747-6.72v-12.199zm-25.87 11.6q0-5.537 2.947-8.74t8.176-3.2q5.93 0 8.553 3.51a13.556 13.556 0 0 1 2.62 8.33q0 5.452-2.956 8.61a10.59 10.59 0 0 1-8.143 3.168 10.8 10.8 0 0 1-8.217-3.126q-2.983-3.134-2.98-8.555zm4.813-.14a9.07 9.07 0 0 0 1.662 5.69 5.594 5.594 0 0 0 4.7 2.152 5.392 5.392 0 0 0 4.747-2.26 9.716 9.716 0 0 0 1.563-5.654q0-7.746-6.31-7.75-6.36-.005-6.362 7.82zm-26.918 11.472v-13.21h8.013a12.273 12.273 0 0 0 4.673-.59 2.386 2.386 0 0 0 1.22-2.39 2.43 2.43 0 0 0-1-2.29q-.99-.577-4.7-.573h-8.2v-3.88h9.73q4.52 0 6.75 1.368t2.238 5.05q0 5.51-6.04 6.4 2.345 1.23 5.106 5.64l2.8 4.48h-5.6l-4.925-7.42a5.19 5.19 0 0 0-1.647-1.63 5.9 5.9 0 0 0-2.856-.52h-.93v9.58h-4.62z" class="cls-2"/><path id="&#x421;&#x43B;&#x43E;&#x439;_468" d="M39.567 22.858l-13.2 7.624-13.2-7.624v-7.91l13.2 7.623 6.35-3.67v-7.33l-13.2-7.62 6.85-3.951 13.2 7.624v15.24z" class="cls-1"/><path id="&#x421;&#x43B;&#x43E;&#x439;_469" d="M0 11.14l13.2-7.62 13.2 7.624v7.91l-13.2-7.624-6.35 3.67v7.336l13.2 7.624-6.85 3.952-13.2-7.624v-15.248z" class="cls-2"/>
    </symbol>
    <symbol id="icon_manufacturer-1" viewBox="0 0 243.438 32">
      <path id="&#x421;&#x43B;&#x43E;&#x439;_708" class="cls-1" d="M0 1.615h29.848v29.1h-29.848v-29.1zm20.08 27.19l1.71-.82 1.638-1.16 1.3-1.3 1.23-1.57 1.024-1.71.683-1.84.478-1.92.205-1.98-.205-2.12-.478-1.91-.683-1.91-1.025-1.64-1.23-1.57-1.3-1.37-1.638-1.09-1.71-.89v24.8zm-2.116.68l-.615-2.46-.89-2.25-1.365-2.05-1.64-1.64-1.98-1.44-2.118-1.09-2.39-.68-2.46-.21h-1.5l-.34.07-.273.07h-.41l-.274.14.48 2.39.887 2.25 1.3 2.05 1.708 1.71 1.844 1.43 2.185 1.03 2.322.68 2.527.27.41-.07h1.093l.41-.06.34-.07h.41zm-16.324-14.07l.272.07h.41l.273.07.342.06h1.093l.34.07 2.6-.27 2.46-.75 2.254-1.03 1.912-1.57 1.708-1.77 1.3-2.12.957-2.32.48-2.46-.343-.14h-.41l-.41-.07-.34-.07h-1.572l-2.6.21-2.39.68-2.187 1.1-1.912 1.57-1.708 1.77-1.23 2.12-.955 2.32z"/><path id="&#x421;&#x43B;&#x43E;&#x439;_709" class="cls-1" d="M63.727 9.265v-6.76h-23.565l.888.27.82.34.683.28.478.34.48.34.272.62.2.68.068.89v20.35l-.068.68-.2.69-.273.48-.48.54-.546.41-.683.41-.75.48-.888.48h24.11v-6.9l-.545.82-.41.89-.547.68-.615.75-1.024.55-1.638.54-2.254.28-2.937.13-.477-.06h-.547l-.546-.07-.752-.07-.614-.21-.547-.27-.34-.48-.07-.48v-10.45h6.83l.957.07.683.14.34.2.275.48.205.55.273.75.34 1.02v-8.12l-.477 1.09-.478.75-.478.55-.546.34-.478.2-.546.07h-6.9v-9.08l.137-.48.137-.27.2-.21.2-.07.274-.07h3.756l2.528.07 1.775.28 1.3.41.888.68.616.68.41.82.41.96zm156.618 6.42l6.42 6.63-5.19 5.12-.342.21-.342.41-.545.34-.615.41-.75.47-.89.48-1.024.55-1.093.48h10.246l-.752-.21-.547-.2-.614-.28-.41-.34-.272-.41-.137-.41.068-.47.273-.41.342-.62.546-.55.478-.61.547-.55.547-.61.615-.55.546-.68.683-.48 3.007 3.55.205.28.34.54.07.48v.55l-.137.61-.41.55-.615.48-.888.34h13.73l-1.708-1.03-1.57-1.16-1.5-1.3-1.572-1.43-1.434-1.43-1.366-1.58-1.3-1.5-1.162-1.36 4.85-4.31.956-.82.75-.68.616-.48.546-.48.546-.34.48-.27.613-.34.683-.34h-9.767l.273.2.41.34.342.34.273.35.137.34.2.41.137.47.068.55-.205.48-.273.55-.41.54-.614.41-.48.55-.477.48-.546.47-.273.35-.342-.41-.478-.48-.41-.48-.546-.61-.41-.48-.342-.62-.2-.48-.136-.54v-.41l.136-.28.2-.34.205-.47.275-.41.41-.48.682-.34h-14l.82.41.683.47.683.48.546.55.546.41.41.54.478.41zm-42.62-12.43l.477.14.546.2.48.14.477.2.34.35.2.41.206.68.07.89v20.69l-.07.62-.136.61-.136.48-.342.48-.41.41-.478.41-.614.41-.615.41h11.952l-.75-.48-.616-.48-.547-.41-.41-.34-.342-.48-.34-.48-.138-.61v-25.89zm-112.223 0l.615.07.478.14.547.13.41.14.34.2.274.41.2.41.068.62v21.58l-.068.62-.068.61-.205.48-.273.41-.41.41-.478.34-.683.48-.753.48h11.954l-.82-.55-.614-.48-.478-.34-.342-.34-.41-.41-.204-.41-.137-.61v-26.78zm40.982 17.56v1.98l.41 1.64.615 1.29.75 1.03.888.61.82.48.82.27.82.07 1.57-.07 1.434-.13 1.16-.34 1.026-.35.888-.47.75-.62.89-.68.955-.82-.887 1.5-1.024 1.3-1.094 1.09-1.093.82-1.366.68-1.434.41-1.5.21-1.57.14-2.596-.28-2.118-.68-1.913-.96-1.5-1.36-1.16-1.51-.82-1.7-.616-1.85-.135-1.84.478-3.76 1.366-2.73 2.185-1.98 2.8-1.3 3.28-.61 3.482-.07 3.484.41 3.347.95v6.15l-.478-1.02-.547-1.03-.888-.82-.956-.82-1.162-.68-1.23-.41-1.3-.14-1.366.21-1.16.34-1.094.55-.956.68-.683.89-.684 1.09-.478 1.16-.342 1.44zm-17.484 7.37l1.433-.07 1.23-.2 1.16-.34 1.162-.41.956-.48.957-.62.956-.61.957-.75-.957 1.5-.956 1.3-1.093 1.09-1.23.82-1.3.68-1.433.41-1.5.21-1.638.14-2.527-.28-2.186-.68-1.777-.96-1.64-1.36-1.23-1.51-.818-1.7-.615-1.85-.137-1.84.137-2.05.615-1.91.888-1.64 1.3-1.57 1.64-1.23 1.844-.96 2.117-.61 2.39-.21 2.05.14 1.912.48 1.708.88 1.434 1.17 1.23 1.36.956 1.71.615 1.77.2 2.12v1.1h-13.8v1.91l.34 1.5.684 1.23.75.89.82.61.82.48.89.27zm-4.988-9.7h7.924l-.07-.48-.135-.61-.34-.82-.342-.96-.48-.95-.75-.75-.888-.62-1.024-.13h-.615l-.682.2-.615.41-.614.48-.548.75-.478.82-.273 1.16zm46.31-7.44v-8.54l-9.016 10.52h3.21v11.41l.137 1.22.34 1.23.41 1.23.752 1.1 1.025.88 1.23.62 1.64.2 1.228-.13 1.16-.21 1.094-.41 1.025-.68.82-.82.614-1.02.48-1.1.136-1.43-.82.89-.956.88-1.093.55-.956.41-.956-.07-.82-.54-.546-1.17-.136-1.7v-11.34h4.918v-1.98h-4.918zm10.45 3v13.05l-.068.75-.068.55-.137.54-.206.41-.342.41-.41.34-.41.35-.41.34h9.085l-.683-.48-.546-.55-.342-.34-.205-.41-.135-.48-.07-.41v-8.12l.2-2.8.82-1.71.957-.96 1.23-.2 1.3.2 1.16.62.82.68.547.75 1.91-5.81-1.5-.27-1.366.07-1.23.2-1.092.55-1.024.62-.957.75-.818.68-.888.89v-3.35h-7.1l.342.27.41.35.34.27.343.34.204.41.136.41.137.48zm14.48 6.36l.205 2.25.615 2.05 1.093 1.84 1.434 1.51 1.57 1.16 1.776.88 1.98.55 2.118.21 2.323-.21 2.185-.68 1.844-.89 1.64-1.23 1.366-1.57.956-1.78.615-1.98.205-2.11-.205-2.19-.615-1.84-.956-1.78-1.366-1.43-1.636-1.17-1.844-.88-2.185-.48-2.322-.14-2.117.14-1.98.41-1.776.82-1.57 1.16-1.435 1.36-1.094 1.78-.615 1.91zm6.557 0v-2.81l.273-1.22.273-1.3.478-1.1.75-.88 1.026-.55 1.434-.2 1.5.27 1.16.61.82.96.547 1.23.343 1.3.2 1.23v1.29l.07 1.17-.07 1.36-.068 1.5-.205 1.3-.41 1.3-.546 1.02-.888.76-1.093.61-1.366.21-1.434-.21-1.025-.61-.75-.82-.48-1.1-.272-1.23-.274-1.36v-2.73zm50.065-9.64v16.47l.07.68.204.55.2.61.41.48.41.54.546.35.683.34h-8.2l-.137-3.14-1.093.95-1.16.82-1.23.68-1.23.41-1.23.28-1.23.2-1.024.07-.888.07-1.366-.14-1.23-.41-1.024-.68-.82-.75-.614-1.03-.41-1.09-.34-1.16-.07-1.16v-9.91l-.068-.68-.068-.41-.205-.41-.2-.27-.273-.21-.41-.2-.342-.27-.41-.21 7.855-1.37v14.21l.41 1.71.956.89 1.5.41 1.638-.07 1.64-.48 1.5-.68 1.025-.75.41-.76v-10.45l-.07-.68-.135-.48-.205-.41-.342-.27-.34-.2-.41-.21-.478-.27-.41-.14z"/>
    </symbol>
    <symbol id="icon_manufacturer-2" viewBox="0 0 183.031 45.62">
      <path id="&#x421;&#x43B;&#x43E;&#x439;_720" class="cls-1" d="M183.034 34.48a11.154 11.154 0 0 1-11.154 11.15h-160.734a11.135 11.135 0 0 1-7.878-3.26h-.006a11.134 11.134 0 0 1-3.266-7.89v-23.34a11.11 11.11 0 0 1 3.266-7.88l.007-.01a11.135 11.135 0 0 1 7.877-3.26h160.734a11.14 11.14 0 0 1 7.88 3.26h.002a11.132 11.132 0 0 1 3.268 7.89v23.34zm-3.4 0v-23.34a7.723 7.723 0 0 0-2.27-5.48h.007a7.748 7.748 0 0 0-5.488-2.27h-160.737a7.723 7.723 0 0 0-5.48 2.26.06.06 0 0 0-.007.01l.006-.01a.06.06 0 0 0-.007.01 7.734 7.734 0 0 0-2.264 5.48v23.34a7.723 7.723 0 0 0 2.27 5.48h-.004a7.745 7.745 0 0 0 5.487 2.27h160.73a7.738 7.738 0 0 0 7.752-7.75z"/><path id="&#x421;&#x43B;&#x43E;&#x439;_721" class="cls-1" d="M47.82 8.97h-8.67l-7.725 22.43-3.548-6.13s4.683-.17 4.855-7.46c.215-9.05-9.015-9.09-9.015-9.09h-15.605v26.43h8.323v-9.53h2.08l6.59 9.53h12.135l1.348-3.64h9.315l1.128 3.64h8.5zm-31.213 5.65h6.07a2.947 2.947 0 0 1 2.774 3.29 2.79 2.79 0 0 1-2.6 2.5h-6.243v-5.79zm24.1 11.17l2.955-7.98 2.472 7.98h-5.424z"/><path id="&#x421;&#x43B;&#x43E;&#x439;_722" class="cls-1" d="M65.33 15.38l4.684.01v-6.42h-18.38v6.42l5.9-.01v19.77h7.8v-19.77z"/><path id="&#x421;&#x43B;&#x43E;&#x439;_723" class="cls-1" d="M111.568 22.79v-.01a16.366 16.366 0 0 0-25.535-13.56l6.813 9.13a5.01 5.01 0 0 1 7.363 4.43v.01h-4.039l9.446 12.66 9.446-12.66h-3.5z"/><path id="&#x421;&#x43B;&#x43E;&#x439;_724" class="cls-1" d="M97.5 27.23a5.085 5.085 0 0 1-2.3.56 5.014 5.014 0 0 1-5.013-5h4.057l-9.446-12.65-9.447 12.65h3.478a16.37 16.37 0 0 0 25.5 13.58z"/><path id="&#x421;&#x43B;&#x43E;&#x439;_725" class="cls-1" d="M75.69 24.33h-3.476l6.62-8.87v-6.49h-7.95v26.18h7.978v-10.82h-3.168z"/><path id="&#x421;&#x43B;&#x43E;&#x439;_726" class="cls-1" d="M167.17 28.74v-19.77h-7.37v21.59l-8.15-21.59h-8.668l-7.633 22.16v-22.16h-7.458v15.26l-9.017-15.26-7.355.01v12.27h6.636l-.952 1.28.018.01-5.694 7.63v3.56l-.015 1.16.014.26h7.348v-13.17l8.67 13.17h13.526l1.346-3.64h9.452l1.166 3.64h23.583v-6.41h-9.448zm-22.637-2.95l2.952-7.98 2.55 7.98h-5.5z"/>
    </symbol>
    <symbol id="icon_manufacturer-3" viewBox="0 0 202 55.25">
      <path id="&#x421;&#x43B;&#x43E;&#x439;_712" class="cls-1" d="M201.09 38.53a9.7 9.7 0 0 0-1.51.6 12 12 0 0 1-5.57.91v-20.17h6.47v-2.56h-6.47v-7.98l-2.07 1.85c-1.12 1.03-1.24 1.34-2.7 2.56l-6.06 5.83c1.52 0 2.82.15 4.51.15v20.32c0 .85-.2 2.27-.1 2.8.49 2.72 5.72 3.58 7.74 1.68 1.02-.96 1.93-1.94 2.93-2.94.26-.26.44-.42.68-.68zm-97.98-3.76c-.53-.28-.86-.53-1.4-.86-4.43-2.64-6.43-3.18-11.69-4.41 1.26-1.89 1.44-1.87 2.98-4.39a57.592 57.592 0 0 0 3.69-8.05l.09-.21a.85.85 0 0 1 .16-.29c.04 1.89 3.4 11.53 4.34 13.87zm-18.81-6.17a31.3 31.3 0 0 0-11.16 2.08 10.017 10.017 0 0 0-2.84 1.68c1.38 0 3.75-.75 6.77-.75h2.41c.92 0 1.1.15 1.96.15-2.58 3.84-8.55 8.41-12.97 10.21a33.244 33.244 0 0 1-5.84 1.98c0 1.1 0 2.21-.01 3.31 0 1.21.16 1.98.16 3.31a6.715 6.715 0 0 0 1.97-.58c.67-.25 1.2-.44 1.88-.68a47.48 47.48 0 0 0 10.14-5.36c3.21-2.12 8.57-7.39 10.24-10.54 1.88.16 8.13 2.99 10.32 4.28l3.63 2.39.86.64a35.943 35.943 0 0 1 5.25 5.14c.5.62.87 1.07 1.31 1.7a47.116 47.116 0 0 1 3.35 5.53 9.458 9.458 0 0 1 .86 2.15h12.19a5.216 5.216 0 0 0-.97-1.44 144.277 144.277 0 0 1-10.02-15.26c-.3-.52-.6-1.09-.93-1.64-1-1.64-2.51-4.82-3.43-6.65a125.352 125.352 0 0 1-5.85-14.31c-.83-2.5-1.67-5.09-2.34-7.75l-1.89-8.19a.937.937 0 0 0-.25.35l-1.45 3.37c-1.46 3.41-3.54 7.96-5.22 11.18-.32.61-.62 1.07-.96 1.76s-.62 1.08-.95 1.75a100.79 100.79 0 0 1-5.65 9.26 2.348 2.348 0 0 0-.57.93zm48.61 13.39c-2.32 0-3.46-.93-3.46-3.31v-8.13c0-.81 1.05-1.58 1.54-2.07 1.21-1.2 7.64-6.88 7.64-3.19v13.09a3.006 3.006 0 0 1-.71 1.55 7.8 7.8 0 0 1-5.01 2.06zm-9.93-34.31c0 10.18.21 20.19.14 30.25 0 1.36-.08 1.34.52 2.2.21.31.34.54.54.81 1.49 2.07 4.74 4.66 7.98 4.66h1.65c3.74 0 7.51-2.91 9.42-5.78.45-.69 1.57-2.59 1.57-3.55v-15.8c0-.73-2.39-7.08-10.2-.27l-2.49 2.18a17.79 17.79 0 0 1-2.66 2v-17l3.98-1.59c1.01-.38.85-.54 1.28-1.42a10.9 10.9 0 0 0 .91-1.96l-4.07-.15c-2.39 0-5.9 1.61-7.16 3.22-.42.54-1.41 1.48-1.41 2.2zm38.67 30.85c-.8 0-1.2-.41-1.2-1.5v-12.35c0-2.13 9.18-6.54 9.18-3.31v10.99c0 .56-2.95 3.06-3.5 3.57-.96.9-3.16 2.6-4.48 2.6zm-7.67-11.74v15.96c0 1.82 3 4.33 5.65 2.93l8.26-6.18a5.613 5.613 0 0 1 1.44-.97c0 1.24-.25 4.77.17 5.55.9 1.72 5.07 2.48 6.57 1.19.61-.51 1.23-.95 1.86-1.45 1.21-.97 2.44-1.88 3.59-2.88a56.324 56.324 0 0 0-5.72 1.35l-.15-7.07v-17.91h-10.84c-3.09 0-10.83 4.14-10.83 9.48z"/><path id="&#x421;&#x43B;&#x43E;&#x439;_713" class="cls-1" d="M201.09 38.53a9.7 9.7 0 0 0-1.51.6 12 12 0 0 1-5.57.91v-20.17h6.47v-2.56h-6.47v-7.98l-2.07 1.85c-1.12 1.03-1.24 1.34-2.7 2.56l-6.06 5.83c1.52 0 2.82.15 4.51.15v20.32c0 .85-.2 2.27-.1 2.8.49 2.72 5.72 3.58 7.74 1.68 1.02-.96 1.93-1.94 2.93-2.94.26-.26.44-.42.68-.68zm-97.98-3.76c-.53-.28-.86-.53-1.4-.86-4.43-2.64-6.43-3.18-11.69-4.41 1.26-1.89 1.44-1.87 2.98-4.39a57.592 57.592 0 0 0 3.69-8.05l.09-.21a.85.85 0 0 1 .16-.29c.04 1.89 3.4 11.53 4.34 13.87zm-18.81-6.17a31.3 31.3 0 0 0-11.16 2.08 10.017 10.017 0 0 0-2.84 1.68c1.38 0 3.75-.75 6.77-.75h2.41c.92 0 1.1.15 1.96.15-2.58 3.84-8.55 8.41-12.97 10.21a33.244 33.244 0 0 1-5.84 1.98c0 1.1 0 2.21-.01 3.31 0 1.21.16 1.98.16 3.31a6.715 6.715 0 0 0 1.97-.58c.67-.25 1.2-.44 1.88-.68a47.48 47.48 0 0 0 10.14-5.36c3.21-2.12 8.57-7.39 10.24-10.54 1.88.16 8.13 2.99 10.32 4.28l3.63 2.39.86.64a35.943 35.943 0 0 1 5.25 5.14c.5.62.87 1.07 1.31 1.7a47.116 47.116 0 0 1 3.35 5.53 9.458 9.458 0 0 1 .86 2.15h12.19a5.216 5.216 0 0 0-.97-1.44 144.277 144.277 0 0 1-10.02-15.26c-.3-.52-.6-1.09-.93-1.64-1-1.64-2.51-4.82-3.43-6.65a125.352 125.352 0 0 1-5.85-14.31c-.83-2.5-1.67-5.09-2.34-7.75l-1.89-8.19a.937.937 0 0 0-.25.35l-1.45 3.37c-1.46 3.41-3.54 7.96-5.22 11.18-.32.61-.62 1.07-.96 1.76s-.62 1.08-.95 1.75a100.79 100.79 0 0 1-5.65 9.26 2.348 2.348 0 0 0-.57.93zm48.61 13.39c-2.32 0-3.46-.93-3.46-3.31v-8.13c0-.81 1.05-1.58 1.54-2.07 1.21-1.2 7.64-6.88 7.64-3.19v13.09a3.006 3.006 0 0 1-.71 1.55 7.8 7.8 0 0 1-5.01 2.06zm-9.93-34.31c0 10.18.21 20.19.14 30.25 0 1.36-.08 1.34.52 2.2.21.31.34.54.54.81 1.49 2.07 4.74 4.66 7.98 4.66h1.65c3.74 0 7.51-2.91 9.42-5.78.45-.69 1.57-2.59 1.57-3.55v-15.8c0-.73-2.39-7.08-10.2-.27l-2.49 2.18a17.79 17.79 0 0 1-2.66 2v-17l3.98-1.59c1.01-.38.85-.54 1.28-1.42a10.9 10.9 0 0 0 .91-1.96l-4.07-.15c-2.39 0-5.9 1.61-7.16 3.22-.42.54-1.41 1.48-1.41 2.2zm38.67 30.85c-.8 0-1.2-.41-1.2-1.5v-12.35c0-2.13 9.18-6.54 9.18-3.31v10.99c0 .56-2.95 3.06-3.5 3.57-.96.9-3.16 2.6-4.48 2.6zm-7.67-11.74v15.96c0 1.82 3 4.33 5.65 2.93l8.26-6.18a5.613 5.613 0 0 1 1.44-.97c0 1.24-.25 4.77.17 5.55.9 1.72 5.07 2.48 6.57 1.19.61-.51 1.23-.95 1.86-1.45 1.21-.97 2.44-1.88 3.59-2.88a56.324 56.324 0 0 0-5.72 1.35l-.15-7.07v-17.91h-10.84c-3.09 0-10.83 4.14-10.83 9.48z"/><path id="&#x421;&#x43B;&#x43E;&#x439;_714" class="cls-1" d="M12.66 26.49c0 3 2.22 6.08 3.66 7.78 3.79 4.52 14.53 9.1 13.55 14.84-.43 2.48-1.46 3.25-1.71 4.17 4.21.98 7.54 1.38 10.95-1.99 4.63-4.58 3.13-9.03-.43-13.79-6.23-8.33-16.69-9.95-16.69-17.63a10.256 10.256 0 0 1 .45-2.56 13.647 13.647 0 0 0-6.74 2.74 8.43 8.43 0 0 0-3.04 6.44z"/><path id="&#x421;&#x43B;&#x43E;&#x439;_715" class="cls-1" d="M40.65 34.17a8.456 8.456 0 0 1-.45 3.61 12.748 12.748 0 0 0 6.73-2.45 7.8 7.8 0 0 0 2.18-2.49c3.47-5.75-2.06-12.35-6.67-15.81-.93-.7-1.7-1.31-2.63-2.04-.5-.4-.85-.68-1.3-1.1-.31-.29-.37-.28-.67-.54l-2.91-3.11c-2.61-3.69-.95-5.64.6-8.58-1.11-.09-2.23-.63-3.47-.74a7.91 7.91 0 0 0-3.66.23 10.226 10.226 0 0 0-4 2.31 7.938 7.938 0 0 0-2.82 7.34 13.148 13.148 0 0 0 1.01 3.2 25.96 25.96 0 0 0 3.48 5.1 14.208 14.208 0 0 0 2.65 2.62l.54.51c3.88 3.29 11.39 7.33 11.39 11.94z"/><path id="&#x421;&#x43B;&#x43E;&#x439;_716" class="cls-1" d="M37.19 6.93l15.01 14.63c.26.24.43.42.68.68 6.62 6.63 6.84 4.71-2.49 13.99l-1.5 1.66a37.156 37.156 0 0 0-3.12 3.2 30.3 30.3 0 0 0 2.41 1.96l10.34-10.43c2.62-2.59 3.27-5.96.61-8.65-.96-.97-1.82-1.82-2.79-2.78l-5.72-5.57-2.78-2.79-8.54-8.31a25.085 25.085 0 0 0-2.11 2.41z"/><path id="&#x421;&#x43B;&#x43E;&#x439;_717" class="cls-1" d="M.92 28.3c0 3.26 2.19 4.52 4.4 6.73 2.47 2.47 4.53 4.68 7.07 6.93.51.44.95.94 1.44 1.42l8.61 8.4a13.637 13.637 0 0 0 2.11-2.26l-10.5-10.27-5.19-5.2-2.64-2.48a9.36 9.36 0 0 1-1.84-2.06c-.98-2.28 1.38-3.74 3.88-6.22l1.5-1.65 6.21-6.29-2.26-2.1a41.255 41.255 0 0 0-3.5 3.42l-1.73 1.73-1.65 1.81-3.46 3.46c-1.13 1.13-2.45 2.44-2.45 4.63z"/>
    </symbol>
    <symbol id="icon_manufacturer-4" viewBox="0 0 174 76">
      <path id="&#x421;&#x43B;&#x43E;&#x439;_729" class="cls-1" d="M172.575 38c0 20.22-38.32 36.61-85.58 36.61s-85.58-16.39-85.58-36.61 38.31-36.61 85.58-36.61 85.58 16.39 85.58 36.61z"/><path id="&#x421;&#x43B;&#x43E;&#x439;_730" class="cls-2" d="M158.135 37.88c0 16.72-32.01 30.26-71.49 30.26s-71.49-13.54-71.49-30.26 32.01-30.26 71.49-30.26 71.49 13.55 71.49 30.26z"/><path id="&#x421;&#x43B;&#x43E;&#x439;_731" class="cls-3" d="M23.695 28.49c0-2.9 1.18-4.33 3.66-4.33s3.65 1.43 3.65 4.33v10.62c0 4.74 2.2 7.12 6.44 7.12s6.44-2.38 6.44-7.12v-10.62c0-2.9 1.18-4.33 3.65-4.33s3.66 1.43 3.66 4.33v11.3c0 7.98-5.37 12.27-13.75 12.27s-13.75-4.29-13.75-12.27v-11.3z"/><path id="&#x421;&#x43B;&#x43E;&#x439;_732" class="cls-3" d="M58.605 51.97c-2.46 0-3.62-1.43-3.62-4.35v-19.12c0-2.69 1.03-4.09 3.35-4.09a4.838 4.838 0 0 1 3.84 1.97l13.36 14.96v-12.61c0-2.92 1.16-4.36 3.62-4.36s3.62 1.44 3.62 4.36v19.57c0 2.54-.99 3.83-3.31 3.83-1.52 0-2.77-.69-4.15-2.24l-13.09-14.65v12.38c0 2.92-1.16 4.35-3.62 4.35z"/><path id="&#x421;&#x43B;&#x43E;&#x439;_733" class="cls-3" d="M100.465 46.44c4.37 0 7.42-3.14 7.42-8.18 0-5.27-3-8.37-7.42-8.37s-7.43 3.1-7.43 8.37c0 5.04 3.05 8.18 7.43 8.18zm0-22.3c8.88 0 15.01 5.61 15.01 14.05 0 8.4-6 14.04-15.01 14.04s-14.98-5.64-14.98-14.04c0-8.44 6.1-14.05 14.98-14.05z"/><path id="&#x421;&#x43B;&#x43E;&#x439;_734" class="cls-4" d="M117.935 51.94c-1.87 0-3.5-1.31-3.5-2.62 0-1.08.72-1.94 1.73-3.06l8.3-9-6.24-6.8c-1.01-1.08-1.73-1.94-1.73-2.99 0-1.49 1.54-2.72 3.79-2.72 1.4 0 2.6.78 3.99 2.31l4.8 5.23 4.89-5.3c1.39-1.5 2.73-2.28 4.13-2.28 1.72 0 3.4 1.31 3.4 2.61 0 1.2-.76 2.02-1.72 3.07l-6.29 6.8 8.3 9.11c.96 1.08 1.78 1.9 1.78 3.06 0 1.35-1.64 2.62-3.55 2.62-1.59 0-2.84-.79-4.23-2.28l-6.91-7.55-6.86 7.51c-1.39 1.5-2.59 2.28-4.08 2.28z"/><path id="&#x421;&#x43B;&#x43E;&#x439;_735" class="cls-3" d="M146.855 28.43h.81c.67 0 1.29-.04 1.29-.81 0-.66-.56-.76-1.08-.76h-1.02v1.57zm-.76-2.19h1.9c1.18 0 1.73.46 1.73 1.41a1.266 1.266 0 0 1-1.3 1.34l1.41 2.18h-.82l-1.34-2.12h-.82v2.12h-.76v-4.93zm1.64 6.07a3.6 3.6 0 1 0-3.48-3.62 3.483 3.483 0 0 0 3.48 3.62zm0-7.82a4.22 4.22 0 1 1-4.25 4.2 4.2 4.2 0 0 1 4.25-4.2z"/>
    </symbol>
    <symbol id="icon_map-icon" viewBox="0 0 22 28.938">
      <path id="map-icon" class="cls-1" d="M10.99-.006a10 10 0 0 1 10 10c0 8.647-9.78 18.95-10 18.95s-10-10.45-10-18.95a10 10 0 0 1 10-10zm0 6a4.275 4.275 0 1 1-4.27 4.275 4.28 4.28 0 0 1 4.27-4.276z"/>
    </symbol>
    <symbol id="icon_menu-lines" viewBox="0 0 317.825 317.825">
      <path d="M301.934 143.021h-286.043c-8.772 0-15.891 7.119-15.891 15.891s7.119 15.891 15.891 15.891h286.042c8.74 0 15.891-7.119 15.891-15.891.001-8.772-7.15-15.891-15.89-15.891zM15.891 79.456h286.042c8.74 0 15.891-7.119 15.891-15.891s-7.151-15.891-15.891-15.891h-286.042c-8.772 0-15.891 7.119-15.891 15.891s7.119 15.891 15.891 15.891zM301.934 238.369h-286.043c-8.772 0-15.891 7.151-15.891 15.891s7.119 15.891 15.891 15.891h286.042c8.74 0 15.891-7.151 15.891-15.891.001-8.74-7.15-15.891-15.89-15.891z"/>
    </symbol>
    <symbol id="icon_phone-icon" viewBox="0 0 20 32">
      <path id="phone-icon-2" class="cls-1" d="M19.5 2.5a2 2 0 0 0-2-2h-15a2 2 0 0 0-2 2v27a2 2 0 0 0 2 2h15a2 2 0 0 0 2-2v-27z"/><path id="&#x421;&#x43B;&#x43E;&#x439;_452" class="cls-2" d="M18.5 3.5a2 2 0 0 0-2-2h-13a2 2 0 0 0-2 2v25a2 2 0 0 0 2 2h13a2 2 0 0 0 2-2v-25z"/><path id="&#x421;&#x43B;&#x43E;&#x439;_453" class="cls-1" d="M18.5 4.5h-17v1h17v-1z"/><path id="&#x421;&#x43B;&#x43E;&#x439;_454" class="cls-1" d="M18.5 23.5h-17v1h17v-1z"/><circle id="&#x421;&#x43B;&#x43E;&#x439;_455" class="cls-3" cx="10" cy="28" r="1.5"/>
    </symbol>
    <symbol id="icon_questions" viewBox="0 0 745.969 295.97">
      <g id="&#x421;&#x43B;&#x43E;&#x439;_151"><g id="&#x421;&#x43B;&#x43E;&#x439;_142"><path id="&#x421;&#x43B;&#x43E;&#x439;_138" class="cls-1" d="M156.97 36.97l259 259h-240l-159-160 38-83h87z"/><path id="&#x421;&#x43B;&#x43E;&#x439;_139" class="cls-2" d="M94.398.38a86.335 86.335 0 0 0-16.86 0l-2.531 13.32a72.78 72.78 0 0 0-15.68 4.2l-8.85-10.26a85.71 85.71 0 0 0-14.6 8.42l4.462 12.8a73.217 73.217 0 0 0-11.479 11.48l-12.8-4.46a86.1 86.1 0 0 0-8.43 14.6l10.263 8.85a72.99 72.99 0 0 0-4.2 15.68l-13.313 2.53a86.034 86.034 0 0 0 0 16.86l13.313 2.53a72.99 72.99 0 0 0 4.2 15.68l-10.263 8.85a86.1 86.1 0 0 0 8.43 14.6l12.8-4.46a73.217 73.217 0 0 0 11.478 11.48l-4.462 12.79a85.1 85.1 0 0 0 14.6 8.43l8.85-10.26a72.78 72.78 0 0 0 15.68 4.2l2.533 13.32a86.335 86.335 0 0 0 16.858 0l2.534-13.32a72.78 72.78 0 0 0 15.68-4.2l8.85 10.26a85.1 85.1 0 0 0 14.6-8.43l-4.463-12.79a73.18 73.18 0 0 0 11.478-11.48l12.8 4.46a86.1 86.1 0 0 0 8.43-14.6l-10.263-8.85a72.99 72.99 0 0 0 4.2-15.68l13.313-2.53a86.034 86.034 0 0 0 0-16.86l-13.313-2.53a72.99 72.99 0 0 0-4.2-15.68l10.262-8.85a86.1 86.1 0 0 0-8.43-14.6l-12.8 4.46a73.18 73.18 0 0 0-11.475-11.48l4.462-12.8a85.71 85.71 0 0 0-14.6-8.42l-8.85 10.26a72.78 72.78 0 0 0-15.68-4.2zm-8.43 68.39a17.2 17.2 0 1 1-17.2 17.2 17.21 17.21 0 0 1 17.2-17.2z"/><path id="&#x421;&#x43B;&#x43E;&#x439;_140" class="cls-3" d="M171.627 93.63l-.072.77-13.313 2.53a72.99 72.99 0 0 1-4.2 15.68l10.262 8.85a86.1 86.1 0 0 1-8.43 14.6l-12.8-4.46a73.18 73.18 0 0 1-11.478 11.48l4.463 12.79a85.1 85.1 0 0 1-14.6 8.43l-8.85-10.26a72.78 72.78 0 0 1-15.68 4.2l-2.535 13.32-.77.07-47.656-47.66 63-5 19-69z"/><path id="&#x421;&#x43B;&#x43E;&#x439;_141" class="cls-4" d="M85.97 30.97a55 55 0 1 1-55 55 55.023 55.023 0 0 1 55-55zm0 27.5a27.5 27.5 0 1 1-27.5 27.5 27.51 27.51 0 0 1 27.5-27.5z"/></g><g id="&#x421;&#x43B;&#x43E;&#x439;_150"><path id="&#x421;&#x43B;&#x43E;&#x439;_144" class="cls-1" d="M263.51 123.51l172.46 172.46h-159.81l-105.87-106.54 25.3-55.27h57.93z"/><g id="&#x421;&#x43B;&#x43E;&#x439;_149"><path id="&#x421;&#x43B;&#x43E;&#x439;_146" class="cls-2" d="M224 101.23a54.834 54.834 0 0 0-10.72 0l-1.61 8.47a45.892 45.892 0 0 0-9.967 2.67l-5.626-6.53a55.222 55.222 0 0 0-9.282 5.36l2.837 8.14a46.5 46.5 0 0 0-7.3 7.29l-8.134-2.83a54.7 54.7 0 0 0-5.36 9.28l6.525 5.62a46.627 46.627 0 0 0-2.67 9.97l-8.464 1.61a54.7 54.7 0 0 0 0 10.72l8.462 1.61a46.627 46.627 0 0 0 2.67 9.97l-6.523 5.62a54.784 54.784 0 0 0 5.358 9.29l8.134-2.84a46.99 46.99 0 0 0 7.3 7.3l-2.837 8.13a54.546 54.546 0 0 0 9.282 5.36l5.626-6.53a46.49 46.49 0 0 0 9.968 2.68l1.61 8.46a54.834 54.834 0 0 0 10.72 0l1.61-8.46a46.49 46.49 0 0 0 9.967-2.68l5.626 6.53a54.546 54.546 0 0 0 9.282-5.36l-2.837-8.13a47.034 47.034 0 0 0 7.3-7.3l8.134 2.84a54.784 54.784 0 0 0 5.36-9.29l-6.525-5.62a46.627 46.627 0 0 0 2.67-9.97l8.464-1.61a54.7 54.7 0 0 0 0-10.72l-8.462-1.61a46.627 46.627 0 0 0-2.67-9.97l6.523-5.62a54.7 54.7 0 0 0-5.358-9.28l-8.134 2.83a46.538 46.538 0 0 0-7.3-7.29l2.837-8.14a55.222 55.222 0 0 0-9.282-5.36l-5.626 6.53a45.892 45.892 0 0 0-9.968-2.67zm-5.36 43.48a10.935 10.935 0 1 1-10.934 10.93 10.94 10.94 0 0 1 10.934-10.93z"/><path id="&#x421;&#x43B;&#x43E;&#x439;_147" class="cls-3" d="M273.094 160.51l-.046.49-8.463 1.61a46.627 46.627 0 0 1-2.67 9.97l6.523 5.62a54.784 54.784 0 0 1-5.36 9.29l-8.133-2.84a47.034 47.034 0 0 1-7.3 7.3l2.837 8.13a54.546 54.546 0 0 1-9.282 5.36l-5.626-6.53a46.49 46.49 0 0 1-9.968 2.68l-1.61 8.46-.49.04-30.3-30.29 40.048-3.18 12.08-43.86z"/><path id="&#x421;&#x43B;&#x43E;&#x439;_148" class="cls-4" d="M218.64 120.68a34.96 34.96 0 1 1-34.964 34.96 34.975 34.975 0 0 1 34.964-34.96zm0 17.48a17.48 17.48 0 1 1-17.482 17.48 17.487 17.487 0 0 1 17.482-17.48z"/></g></g></g><g id="&#x421;&#x43B;&#x43E;&#x439;_157"><path id="&#x421;&#x43B;&#x43E;&#x439;_153" class="cls-1" d="M616.47 166.47l129.5 129.5h-120l-79.5-80 19-41.5h43.5z"/><path id="&#x421;&#x43B;&#x43E;&#x439;_154" class="cls-2" d="M585.18 148.18a42.305 42.305 0 0 0-8.42 0l-1.27 6.65a36.767 36.767 0 0 0-7.84 2.1l-4.43-5.13a43.825 43.825 0 0 0-7.3 4.22l2.23 6.4a36.108 36.108 0 0 0-5.73 5.73l-6.4-2.23a43.825 43.825 0 0 0-4.22 7.3l5.13 4.43a36.767 36.767 0 0 0-2.1 7.84l-6.65 1.27a42.305 42.305 0 0 0 0 8.42l6.65 1.27a36.767 36.767 0 0 0 2.1 7.84l-5.13 4.43a43.825 43.825 0 0 0 4.22 7.3l6.4-2.23a36.108 36.108 0 0 0 5.73 5.73l-2.23 6.4a43.825 43.825 0 0 0 7.3 4.22l4.43-5.13a37.366 37.366 0 0 0 7.84 2.1l1.27 6.65a42.305 42.305 0 0 0 8.42 0l1.27-6.65a37.366 37.366 0 0 0 7.84-2.1l4.43 5.13a43.825 43.825 0 0 0 7.3-4.22l-2.23-6.4a36.108 36.108 0 0 0 5.73-5.73l6.4 2.23a43.825 43.825 0 0 0 4.22-7.3l-5.13-4.43a36.767 36.767 0 0 0 2.1-7.84l6.65-1.27a42.305 42.305 0 0 0 0-8.42l-6.65-1.27a36.767 36.767 0 0 0-2.1-7.84l5.13-4.43a43.825 43.825 0 0 0-4.22-7.3l-6.4 2.23a36.108 36.108 0 0 0-5.73-5.73l2.23-6.4a43.825 43.825 0 0 0-7.3-4.22l-4.43 5.13a36.767 36.767 0 0 0-7.84-2.1zm-4.21 34.19a8.6 8.6 0 1 1-8.6 8.6 8.6 8.6 0 0 1 8.6-8.6z"/><path id="&#x421;&#x43B;&#x43E;&#x439;_155" class="cls-3" d="M623.8 194.8l-.04.38-6.65 1.27a36.767 36.767 0 0 1-2.1 7.84l5.13 4.43a43.825 43.825 0 0 1-4.22 7.3l-6.4-2.23a36.108 36.108 0 0 1-5.73 5.73l2.23 6.4a43.825 43.825 0 0 1-7.3 4.22l-4.43-5.13a37.366 37.366 0 0 1-7.84 2.1l-1.27 6.65-.38.04-23.83-23.83 31.5-2.5 9.5-34.5z"/><path id="&#x421;&#x43B;&#x43E;&#x439;_156" class="cls-4" d="M580.97 163.47a27.5 27.5 0 1 1-27.5 27.5 27.51 27.51 0 0 1 27.5-27.5zm0 13.75a13.75 13.75 0 1 1-13.75 13.75 13.755 13.755 0 0 1 13.75-13.75z"/></g><g id="&#x421;&#x43B;&#x43E;&#x439;_166"><path id="&#x421;&#x43B;&#x43E;&#x439;_160" class="cls-1" d="M382.62 189.97l31.35-18 124 124h-50z"/><g id="&#x421;&#x43B;&#x43E;&#x439;_165"><path id="&#x421;&#x43B;&#x43E;&#x439;_163" class="cls-2" d="M397.97 161.97l16 9.24v18.47l-16 9.24-16-9.24v-18.47z"/><circle id="&#x421;&#x43B;&#x43E;&#x439;_164" class="cls-5" cx="398.063" cy="180.44" r="9.5"/></g></g>
    </symbol>
    <symbol id="icon_service-2" viewBox="0 0 295.69 340">
      <path id="&#x421;&#x43B;&#x43E;&#x439;_97" class="cls-1" d="M185.01 229.32l110.68 110.68h-189.23l-56.77-56.77c21.61-34.1 10.63-54.5 135.32-53.91z"/><g id="&#x421;&#x43B;&#x43E;&#x439;_115"><g id="&#x421;&#x43B;&#x43E;&#x439;_102"><path id="&#x421;&#x43B;&#x43E;&#x439;_100" class="cls-2" d="M181.21 222.48h-7.59a9.287 9.287 0 0 1-9.29-9.29v-1.58a10.09 10.09 0 0 0-10.08-10.08h-100.29a10.083 10.083 0 0 0-10.08 10.08v9.14a1.74 1.74 0 0 1-1.73 1.73h-.36v4.19h143.48v-.12a4.063 4.063 0 0 0-4.06-4.07z"/><path id="&#x421;&#x43B;&#x43E;&#x439;_101" class="cls-3" d="M41.79 226.67h143.48s-1.23 33.4-1.81 48.87a7.985 7.985 0 0 1-7.98 7.69h-123.9a7.985 7.985 0 0 1-7.98-7.69c-.58-15.47-1.81-48.87-1.81-48.87z"/></g><g id="&#x421;&#x43B;&#x43E;&#x439;_114"><path id="&#x421;&#x43B;&#x43E;&#x439;_104" class="cls-4" d="M277.65 31.21l12.36 3.25v5.2l-12.36 3.25v-11.7z"/><path id="&#x421;&#x43B;&#x43E;&#x439;_105" class="cls-3" d="M273.74 52.46a5.34 5.34 0 0 0 3.91-5.15v-20.49a5.353 5.353 0 0 0-3.91-5.16l-28.6-8.01h-32.51v46.82h32.51z"/><path id="&#x421;&#x43B;&#x43E;&#x439;_106" class="cls-5" d="M195.07 11.05h12.55a5.015 5.015 0 0 1 5.01 5.02v41.99a5.006 5.006 0 0 1-5.01 5.01h-12.55v-52.02z"/><path id="&#x421;&#x43B;&#x43E;&#x439;_107" class="cls-3" d="M94.94 0h-59.17a35.76 35.76 0 0 0-35.76 35.76 35.774 35.774 0 0 0 25.5 34.27 11.486 11.486 0 0 1 7.56 7.17c1.58 4.5 5.36 9.93 14.37 9.93h24.37c7.91.3 10.49 6.54 8.83 17.52-8.6 28.81-13.34 57.45-12.36 85.83-.54 5.35-2.43 9.48-7.15 11.05h32.72c-3.69-55.35 11.42-69.41 10.84-89.73v-24.67c.73-8.84 2.41-16.2-.65-18.67a10.125 10.125 0 0 1-3.58-6.85c-1.53-16.49-5.52-61.61-5.52-61.61z"/><path id="&#x421;&#x43B;&#x43E;&#x439;_108" class="cls-2" d="M156.54 69.92a20.85 20.85 0 0 1-9.1-6.15c-.92-1.08-1.84-2.15-2.69-3.13a15.066 15.066 0 0 1-3.64-9.83v-48.21l-46.17-2.6h-63.07v3.54a11.79 11.79 0 0 1-6.6 10.58 24.028 24.028 0 0 0-13.56 21.64 24.057 24.057 0 0 0 24.06 24.06h42.29c20.8-.44 26.11 13.87 26.63 27.31v24.67c.58 20.32-14.53 34.38-10.84 89.73h32.3l-8.13-3.25-.8-1.95-5.37-12.35 9.1-57.22c3.27-4.87 8.04-7.18 14.95-5.85l5.21-2.47c-1.57-11.6-2.57-24.36 19.58-30.69q2.88-.06 4.47-3.91l1.24-6.5h.06l1.31-6.5-.13.01.13-.66z"/><path id="&#x421;&#x43B;&#x43E;&#x439;_109" class="cls-3" d="M135.9 120.91c-.47-2.44-2.53-3.81-6.5-3.9h-14.3c-3.66.73-6.63 3.16-8.46 8.45-6.74 21.85-8.98 47.51-7.8 76.07h44.22s-26.92-2.21-23.41-16.9q5.85-24.51 5.2-54.62c-.12-6.13 5.88-8.52 11.05-9.1z"/><path id="&#x421;&#x43B;&#x43E;&#x439;_110" class="cls-3" d="M189.95 68.73a5.624 5.624 0 0 0 5.12-5.61v-52.12a5.63 5.63 0 0 0-5.12-5.61c-10.04-.89-31.29-2.79-31.29-2.79h-17.55v53.8a15.685 15.685 0 0 0 15.11 15.68c1.48.06 2.44.09 2.44.09z"/><path id="&#x421;&#x43B;&#x43E;&#x439;_111" class="cls-3" d="M119 81.24a4.554 4.554 0 0 1 4.55-4.55h11.7a4.555 4.555 0 1 1 0 9.11h-11.7a4.556 4.556 0 0 1-4.55-4.56z"/><path id="&#x421;&#x43B;&#x43E;&#x439;_112" class="cls-3" d="M22.91 46.13a15.56 15.56 0 0 0 11.63 5.2h7.73v-5.2h-19.36zm-3.86-8.45a15.57 15.57 0 0 0 1.3 4.55h21.92v-4.55h-23.22zm1.3-8.45a15.4 15.4 0 0 0-1.3 4.55h23.22v-4.55h-21.92zm21.92-3.91v-5.2h-7.73a15.56 15.56 0 0 0-11.63 5.2h19.36z"/><path id="&#x421;&#x43B;&#x43E;&#x439;_113" class="cls-3" d="M160.61 87.75h-17.23c-10.86 1.49-10.41 25.64-2.27 30.56h5.85c4.45.67 7.04-1.22 5.85-4.56-2.66-7.49-2.71-13.8 0-18.85 2.2-4.12 8.68-3.74 7.8-7.15z"/></g></g>
    </symbol>
    <symbol id="icon_service-3" viewBox="0 0 435.969 295.97">
      <g id="&#x421;&#x43B;&#x43E;&#x439;_125"><path id="&#x421;&#x43B;&#x43E;&#x439;_121" class="cls-1" d="M156.97 36.97l259 259h-240l-159-160 38-83h87z"/><path id="&#x421;&#x43B;&#x43E;&#x439;_122" class="cls-2" d="M94.398.38a86.335 86.335 0 0 0-16.86 0l-2.531 13.32a72.775 72.775 0 0 0-15.68 4.2l-8.85-10.26a85.1 85.1 0 0 0-14.6 8.43l4.463 12.79a73.21 73.21 0 0 0-11.48 11.48l-12.8-4.46a86.092 86.092 0 0 0-8.43 14.6l10.263 8.85a72.98 72.98 0 0 0-4.2 15.68l-13.313 2.53a86 86 0 0 0 0 16.86l13.314 2.53a72.98 72.98 0 0 0 4.2 15.68l-10.264 8.85a86.092 86.092 0 0 0 8.43 14.6l12.8-4.46a73.21 73.21 0 0 0 11.48 11.48l-4.463 12.79a85.1 85.1 0 0 0 14.6 8.43l8.85-10.26a72.775 72.775 0 0 0 15.68 4.2l2.533 13.32a86.335 86.335 0 0 0 16.86 0l2.532-13.32a72.773 72.773 0 0 0 15.68-4.2l8.85 10.26a85.1 85.1 0 0 0 14.6-8.43l-4.462-12.79a73.18 73.18 0 0 0 11.48-11.48l12.8 4.46a86.1 86.1 0 0 0 8.428-14.6l-10.262-8.85a72.99 72.99 0 0 0 4.2-15.68l13.313-2.53a86.034 86.034 0 0 0 0-16.86l-13.314-2.53a72.99 72.99 0 0 0-4.2-15.68l10.262-8.85a86.1 86.1 0 0 0-8.43-14.6l-12.8 4.46a73.18 73.18 0 0 0-11.477-11.48l4.463-12.79a85.1 85.1 0 0 0-14.6-8.43l-8.85 10.26a72.773 72.773 0 0 0-15.68-4.2zm-8.43 68.39a17.2 17.2 0 1 1-17.2 17.2 17.21 17.21 0 0 1 17.2-17.2z"/><path id="&#x421;&#x43B;&#x43E;&#x439;_123" class="cls-3" d="M171.627 93.63l-.072.77-13.313 2.53a72.99 72.99 0 0 1-4.2 15.68l10.262 8.85a86.1 86.1 0 0 1-8.43 14.6l-12.8-4.46a73.18 73.18 0 0 1-11.478 11.48l4.463 12.79a85.1 85.1 0 0 1-14.6 8.43l-8.85-10.26a72.773 72.773 0 0 1-15.682 4.2l-2.533 13.32-.77.07-47.656-47.66 63-5 19-69z"/><path id="&#x421;&#x43B;&#x43E;&#x439;_124" class="cls-4" d="M85.97 30.97a55 55 0 1 1-55 55 55.023 55.023 0 0 1 55-55zm0 27.5a27.5 27.5 0 1 1-27.5 27.5 27.51 27.51 0 0 1 27.5-27.5z"/></g><g id="&#x421;&#x43B;&#x43E;&#x439;_133"><path id="&#x421;&#x43B;&#x43E;&#x439;_127" class="cls-1" d="M263.51 123.51l172.46 172.46h-159.81l-105.87-106.54 25.3-55.27h57.93z"/><g id="&#x421;&#x43B;&#x43E;&#x439;_132"><path id="&#x421;&#x43B;&#x43E;&#x439;_129" class="cls-2" d="M224 101.23a54.834 54.834 0 0 0-10.72 0l-1.61 8.47a45.892 45.892 0 0 0-9.967 2.67l-5.626-6.53a55.222 55.222 0 0 0-9.282 5.36l2.837 8.14a46.5 46.5 0 0 0-7.3 7.29l-8.134-2.83a54.7 54.7 0 0 0-5.36 9.28l6.525 5.62a46.627 46.627 0 0 0-2.67 9.97l-8.464 1.61a54.7 54.7 0 0 0 0 10.72l8.462 1.61a46.627 46.627 0 0 0 2.67 9.97l-6.523 5.62a54.784 54.784 0 0 0 5.358 9.29l8.134-2.84a46.99 46.99 0 0 0 7.3 7.3l-2.837 8.13a54.546 54.546 0 0 0 9.282 5.36l5.626-6.53a46.49 46.49 0 0 0 9.968 2.68l1.61 8.46a54.834 54.834 0 0 0 10.72 0l1.61-8.46a46.49 46.49 0 0 0 9.967-2.68l5.626 6.53a54.546 54.546 0 0 0 9.282-5.36l-2.837-8.13a47.034 47.034 0 0 0 7.3-7.3l8.134 2.84a54.784 54.784 0 0 0 5.36-9.29l-6.525-5.62a46.686 46.686 0 0 0 2.67-9.97l8.464-1.61a54.7 54.7 0 0 0 0-10.72l-8.462-1.61a46.686 46.686 0 0 0-2.67-9.97l6.523-5.62a54.7 54.7 0 0 0-5.358-9.28l-8.134 2.83a46.538 46.538 0 0 0-7.3-7.29l2.837-8.14a55.222 55.222 0 0 0-9.282-5.36l-5.626 6.53a45.892 45.892 0 0 0-9.968-2.67zm-5.36 43.48a10.935 10.935 0 1 1-10.934 10.93 10.94 10.94 0 0 1 10.934-10.93z"/><path id="&#x421;&#x43B;&#x43E;&#x439;_130" class="cls-3" d="M273.094 160.51l-.046.49-8.463 1.61a46.686 46.686 0 0 1-2.67 9.97l6.523 5.62a54.784 54.784 0 0 1-5.36 9.29l-8.133-2.84a47.034 47.034 0 0 1-7.3 7.3l2.837 8.13a54.546 54.546 0 0 1-9.282 5.36l-5.626-6.53a46.49 46.49 0 0 1-9.968 2.68l-1.61 8.46-.49.04-30.3-30.29 40.048-3.18 12.08-43.86z"/><path id="&#x421;&#x43B;&#x43E;&#x439;_131" class="cls-4" d="M218.64 120.68a34.96 34.96 0 1 1-34.964 34.96 34.975 34.975 0 0 1 34.964-34.96zm0 17.48a17.48 17.48 0 1 1-17.482 17.48 17.487 17.487 0 0 1 17.482-17.48z"/></g></g>
    </symbol>
    <symbol id="icon_service-4" viewBox="0 0 271 368">
      <path id="&#x421;&#x43B;&#x43E;&#x439;_171" class="cls-1" d="M200 297l71 71h-223l-22.48-22.48 6.48-10.52v-48.69z"/><path id="&#x421;&#x43B;&#x43E;&#x439;_173" class="cls-2" d="M1082.5 3033v-229a24 24 0 0 1 24-24 24 24 0 0 1 24 24v154.5a21.51 21.51 0 0 0 21.5 21.5 21.505 21.505 0 0 0 21.5-21.5v-154.5a24 24 0 0 1 24-24 24 24 0 0 1 24 24v229" transform="translate(-1052 -2769)"/><path id="&#x421;&#x43B;&#x43E;&#x439;_175" class="cls-3" d="M190 275h-180v16h180v-16z"/><path id="&#x421;&#x43B;&#x43E;&#x439;_176" class="cls-3" d="M1204.53 3031.06a5.524 5.524 0 0 0-4.95-3.06h-95.16a5.524 5.524 0 0 0-4.95 3.06l-6.47 12.94h118z" transform="translate(-1052 -2769)"/><path id="&#x421;&#x43B;&#x43E;&#x439;_178" class="cls-4" d="M41 297.52h-21v16h21v-16z"/><path id="&#x421;&#x43B;&#x43E;&#x439;_179" class="cls-5" d="M41 313.52h-21v16h21v-16z"/><path id="&#x421;&#x43B;&#x43E;&#x439;_180" class="cls-6" d="M35 329.52h-9v16h9v-16z"/><path id="&#x421;&#x43B;&#x43E;&#x439;_183" class="cls-6" d="M174 329.52h-9v16h9v-16z"/><path id="&#x421;&#x43B;&#x43E;&#x439;_184" class="cls-4" d="M180 297.52h-21v16h21v-16z"/><path id="&#x421;&#x43B;&#x43E;&#x439;_185" class="cls-5" d="M180 313.52h-21v16h21v-16z"/><path id="&#x421;&#x43B;&#x43E;&#x439;_187" class="cls-4" d="M200 290.52h-200v7h200v-7z"/>
    </symbol>
    <symbol id="icon_type-2" viewBox="0 0 64 69.72">
      <path id="&#x421;&#x43B;&#x43E;&#x439;_221" class="cls-1" d="M32 59.75c17.66 0 32 2.23 32 4.98s-14.34 4.98-32 4.98-32-2.23-32-4.98 14.34-4.98 32-4.98z"/><path id="&#x421;&#x43B;&#x43E;&#x439;_222" class="cls-2" d="M30.933 19.26v-7.15l-6.45-6.4 1.473-1.43 4.977 4.98v-2.84l-3.607-3.56 1.474-1.42 2.133 2.13v-3.55h2.134v3.55l2.133-2.13 1.474 1.42-3.607 3.56v2.84l4.977-4.98 1.474 1.43-6.45 6.4v7.15a12.734 12.734 0 0 1 7.2 2.99l5.06-5.07-.036-9.08 2.047.03v7.04l2.01-2.01-.036-5.06 2.048.03v3.02l2.514-2.51 1.51 1.5-2.516 2.52h3.017l.037 2.05-5.065-.04-2.012 2.01h7.04l.036 2.05-9.088-.04-5.06 5.06a12.77 12.77 0 0 1 2.983 7.2h7.154l6.4-6.45 1.422 1.47-4.977 4.98h2.84l3.556-3.61 1.422 1.48-2.134 2.13h3.56v2.13h-3.556l2.134 2.14-1.422 1.47-3.556-3.61h-2.844l4.977 4.98-1.422 1.48-6.4-6.46h-7.154a12.714 12.714 0 0 1-2.984 7.2l5.06 5.06 9.09-.03-.038 2.04h-7.04l2.012 2.02 5.065-.04-.036 2.05h-3.017l2.515 2.51-1.51 1.51-2.513-2.51v3.01l-2.05.04.038-5.07-2.012-2.01v7.04l-2.047.04.035-9.09-5.06-5.06a12.723 12.723 0 0 1-7.2 2.98v7.16l6.45 6.4-1.474 1.42-4.976-4.98v2.85l3.607 3.55-1.473 1.43-2.133-2.14v3.56h-2.136v-3.56l-2.133 2.14-1.474-1.43 3.607-3.55v-2.85l-4.977 4.98-1.474-1.42 6.45-6.4v-7.16a12.723 12.723 0 0 1-7.2-2.98l-5.06 5.06.035 9.09-2.047-.04v-7.04l-2.012 2.01.037 5.07-2.048-.04v-3.01l-2.514 2.51-1.508-1.51 2.514-2.51h-3.016l-.037-2.05 5.065.04 2.01-2.02h-7.038l-.035-2.04 9.087.03 5.062-5.06a12.714 12.714 0 0 1-2.984-7.2h-7.155l-6.4 6.46-1.422-1.48 4.978-4.98h-2.841l-3.556 3.61-1.422-1.47 2.133-2.14h-3.555v-2.13h3.555l-2.133-2.13 1.422-1.48 3.556 3.61h2.844l-4.977-4.98 1.423-1.47 6.4 6.45h7.154a12.77 12.77 0 0 1 2.984-7.2l-5.062-5.06-9.087.04.035-2.05h7.04l-2.01-2.01-5.066.04.035-2.05h3.017l-2.514-2.52 1.51-1.5 2.513 2.51v-3.02l2.05-.03-.038 5.06 2.012 2.01v-7.04l2.047-.03-.035 9.08 5.06 5.07a12.734 12.734 0 0 1 7.198-2.99zm0 23.37v-8.04l-5.682 5.69a10.61 10.61 0 0 0 5.683 2.35zm7.816-2.35l-5.683-5.69v8.04a10.61 10.61 0 0 0 5.682-2.35zm-15.009-1.51l5.683-5.69h-8.04a10.624 10.624 0 0 0 2.357 5.69zm18.872-5.69h-8.04l5.684 5.69a10.624 10.624 0 0 0 2.356-5.69zm-2.356-7.81l-5.683 5.68h8.04a10.632 10.632 0 0 0-2.357-5.68zm-16.516 0a10.624 10.624 0 0 0-2.356 5.68h8.04zm9.325-3.87v8.04l5.682-5.68a10.7 10.7 0 0 0-5.683-2.36zm-2.134 0a10.7 10.7 0 0 0-5.682 2.36l5.683 5.68v-8.04z"/>
    </symbol>
    <symbol id="icon_type-4" viewBox="0 0 61.281 68">
      <g id="&#x421;&#x43B;&#x43E;&#x439;_429"><path id="&#x421;&#x43B;&#x43E;&#x439;_420" class="cls-1" d="M30.65 57.63c16.908 0 30.636 2.14 30.636 4.77s-13.728 4.76-30.636 4.76-30.635-2.13-30.635-4.76 13.727-4.77 30.635-4.77z"/><path id="&#x421;&#x43B;&#x43E;&#x439;_421" class="cls-2" d="M21.044 9.06a16.9 16.9 0 0 0-3.336 0l-.5 2.64a14.49 14.49 0 0 0-3.1.83l-1.75-2.03a16.944 16.944 0 0 0-2.89 1.66l.883 2.54a14.39 14.39 0 0 0-2.27 2.27l-2.533-.89a17.415 17.415 0 0 0-1.67 2.89l2.032 1.76a14.49 14.49 0 0 0-.832 3.1l-2.635.5a17.1 17.1 0 0 0 0 3.34l2.635.5a14.49 14.49 0 0 0 .83 3.1l-2.03 1.75a16.64 16.64 0 0 0 1.67 2.89l2.53-.88a14.39 14.39 0 0 0 2.273 2.27l-.883 2.53a17 17 0 0 0 2.89 1.67l1.75-2.03a14.49 14.49 0 0 0 3.1.83l.5 2.64a16.9 16.9 0 0 0 3.337 0l.5-2.64a14.482 14.482 0 0 0 3.1-.83l1.75 2.03a16.956 16.956 0 0 0 2.89-1.67l-.882-2.53a14.382 14.382 0 0 0 2.27-2.27l2.534.88a16.635 16.635 0 0 0 1.668-2.89l-2.03-1.75a14.49 14.49 0 0 0 .83-3.1l2.635-.5a17.1 17.1 0 0 0 0-3.34l-2.636-.5a14.49 14.49 0 0 0-.83-3.1l2.03-1.76a17.41 17.41 0 0 0-1.668-2.89l-2.533.89a14.382 14.382 0 0 0-2.27-2.27l.882-2.54a16.906 16.906 0 0 0-2.89-1.66l-1.75 2.03a14.482 14.482 0 0 0-3.1-.83zm-1.668 13.53a3.405 3.405 0 1 1-3.4 3.41 3.41 3.41 0 0 1 3.4-3.41z"/><path id="&#x421;&#x43B;&#x43E;&#x439;_422" class="cls-3" d="M26.597 19.74a10.21 10.21 0 1 1-14.442 0 10.215 10.215 0 0 1 14.442 0z"/><path id="&#x421;&#x43B;&#x43E;&#x439;_423" class="cls-4" d="M26.597 18.78a10.21 10.21 0 1 1-14.442 0 10.215 10.215 0 0 1 14.442 0z"/><path id="&#x421;&#x43B;&#x43E;&#x439;_424" class="cls-5" d="M21.783 23.59a3.406 3.406 0 1 1-4.814 0 3.412 3.412 0 0 1 4.813 0z"/><path id="&#x421;&#x43B;&#x43E;&#x439;_425" class="cls-2" d="M48.147 32.85a16.408 16.408 0 0 0-3.223-.87l-1.166 2.42a14.383 14.383 0 0 0-3.213 0l-1.166-2.42a16.408 16.408 0 0 0-3.224.87l.2 2.67a14.314 14.314 0 0 0-2.782 1.61l-2.218-1.51a16.193 16.193 0 0 0-2.36 2.36l1.51 2.21a14.487 14.487 0 0 0-1.607 2.79l-2.675-.2a16.932 16.932 0 0 0-.863 3.22l2.416 1.17a14.476 14.476 0 0 0 0 3.21l-2.415 1.17a16.932 16.932 0 0 0 .865 3.22l2.674-.2a14.116 14.116 0 0 0 1.606 2.78l-1.51 2.22a17.25 17.25 0 0 0 2.36 2.36l2.218-1.51a14.314 14.314 0 0 0 2.782 1.61l-.2 2.67a17.133 17.133 0 0 0 3.223.87l1.165-2.42a14.383 14.383 0 0 0 3.213 0l1.166 2.42a17.133 17.133 0 0 0 3.223-.87l-.2-2.67a14.314 14.314 0 0 0 2.782-1.61l2.217 1.51a17.25 17.25 0 0 0 2.36-2.36l-1.51-2.22a14.116 14.116 0 0 0 1.607-2.78l2.674.2a16.932 16.932 0 0 0 .864-3.22l-2.415-1.17a14.476 14.476 0 0 0 0-3.21l2.417-1.17a16.932 16.932 0 0 0-.864-3.22l-2.674.2a14.487 14.487 0 0 0-1.607-2.79l1.51-2.21a16.193 16.193 0 0 0-2.36-2.36l-2.218 1.51a14.314 14.314 0 0 0-2.783-1.61zm-5.117 12.64a3.4 3.4 0 1 1-4.168 2.4 3.4 3.4 0 0 1 4.17-2.4z"/><path id="&#x421;&#x43B;&#x43E;&#x439;_426" class="cls-3" d="M50.746 44.6a10.21 10.21 0 1 1-13.95-3.74 10.218 10.218 0 0 1 13.95 3.74z"/><path id="&#x421;&#x43B;&#x43E;&#x439;_427" class="cls-4" d="M50.995 43.67a10.21 10.21 0 1 1-13.95-3.74 10.218 10.218 0 0 1 13.95 3.74z"/><path id="&#x421;&#x43B;&#x43E;&#x439;_428" class="cls-5" d="M45.1 47.07a3.405 3.405 0 1 1-4.65-1.24 3.405 3.405 0 0 1 4.65 1.24z"/></g><g id="&#x421;&#x43B;&#x43E;&#x439;_433"><path id="&#x421;&#x43B;&#x43E;&#x439;_431" class="cls-3" d="M43.823 1.83l-26.955 28.17 13.818 8.65-14.45 25.25 28.827-27-13.77-8.6z"/><path id="&#x421;&#x43B;&#x43E;&#x439;_432" class="cls-6" d="M43.823 1.83l-27.565 27.56 13.818 8.65-13.84 25.86 27.608-27.61-13.77-8.6z"/></g>
    </symbol>
    <symbol id="icon_type-5" viewBox="0 0 64 71.75">
      <path id="&#x421;&#x43B;&#x43E;&#x439;_375" class="cls-1" d="M32 61.8c17.66 0 32 2.23 32 4.97s-14.34 4.98-32 4.98-32-2.23-32-4.98 14.34-4.97 32-4.97z"/><g id="&#x421;&#x43B;&#x43E;&#x439;_413"><g id="&#x421;&#x43B;&#x43E;&#x439;_398"><g id="&#x421;&#x43B;&#x43E;&#x439;_385"><circle id="&#x421;&#x43B;&#x43E;&#x439;_379" class="cls-2" cx="39.11" cy="42.67" r="24.89"/><path id="&#x421;&#x43B;&#x43E;&#x439;_380" class="cls-3" d="M39.11 18.49a24.175 24.175 0 1 1-24.177 24.17 24.185 24.185 0 0 1 24.177-24.17zm0 .71a23.465 23.465 0 1 1-23.463 23.46 23.472 23.472 0 0 1 23.463-23.46z"/><g id="&#x421;&#x43B;&#x43E;&#x439;_384"><path id="&#x421;&#x43B;&#x43E;&#x439;_382" class="cls-4" d="M38.755 24.53a17.78 17.78 0 1 1-17.777 17.78 17.79 17.79 0 0 1 17.777-17.78z"/><path id="&#x421;&#x43B;&#x43E;&#x439;_383" class="cls-3" d="M26.918 55.57a17.776 17.776 0 1 1 25.1-25.1 17.776 17.776 0 0 0-25.1 25.1z"/></g></g><g id="&#x421;&#x43B;&#x43E;&#x439;_393"><path id="&#x421;&#x43B;&#x43E;&#x439;_387" class="cls-5" d="M24.89 17.78a24.885 24.885 0 1 1-24.89 24.88 24.9 24.9 0 0 1 24.89-24.88z"/><path id="&#x421;&#x43B;&#x43E;&#x439;_388" class="cls-3" d="M24.89 18.49a24.175 24.175 0 1 1-24.18 24.17 24.185 24.185 0 0 1 24.18-24.17zm0 .71a23.465 23.465 0 1 1-23.466 23.46 23.472 23.472 0 0 1 23.466-23.46z"/><g id="&#x421;&#x43B;&#x43E;&#x439;_392"><path id="&#x421;&#x43B;&#x43E;&#x439;_390" class="cls-4" d="M24.533 24.53a17.78 17.78 0 1 1-17.777 17.78 17.79 17.79 0 0 1 17.777-17.78z"/><path id="&#x421;&#x43B;&#x43E;&#x439;_391" class="cls-3" d="M12.7 55.57a17.776 17.776 0 1 1 25.1-25.1 17.776 17.776 0 0 0-25.1 25.1z"/></g></g><g id="&#x421;&#x43B;&#x43E;&#x439;_397"><path id="&#x421;&#x43B;&#x43E;&#x439;_395" class="cls-3" d="M22.452 39.22c0-2.5 1.092-4.52 2.437-4.52s2.435 2.02 2.435 4.52c2.373-.77 4.637-.36 5.052.92s-1.173 2.94-3.546 3.71c1.468 2.02 1.775 4.3.687 5.09s-3.162-.21-4.628-2.22c-1.467 2.01-3.54 3.01-4.63 2.22s-.78-3.07.686-5.09c-2.372-.77-3.96-2.43-3.546-3.71s2.68-1.69 5.052-.92z"/><path id="&#x421;&#x43B;&#x43E;&#x439;_396" class="cls-6" d="M24.89 40.53a2.135 2.135 0 1 1-2.134 2.13 2.136 2.136 0 0 1 2.133-2.13z"/></g></g><g id="&#x421;&#x43B;&#x43E;&#x439;_412"><g id="&#x421;&#x43B;&#x43E;&#x439;_403"><path id="&#x421;&#x43B;&#x43E;&#x439;_401" class="cls-3" d="M32 0s-4.978 7.46-4.978 10.66a4.978 4.978 0 1 0 9.956 0c0-3.2-4.978-10.66-4.978-10.66z"/><path id="&#x421;&#x43B;&#x43E;&#x439;_402" class="cls-5" d="M29.867 7.11s-2.134 2.49-2.134 3.55a2.134 2.134 0 1 0 4.267 0c0-1.06-2.133-3.55-2.133-3.55z"/></g><g id="&#x421;&#x43B;&#x43E;&#x439;_407"><path id="&#x421;&#x43B;&#x43E;&#x439;_405" class="cls-3" d="M46.222 0s-4.978 7.46-4.978 10.66a4.978 4.978 0 1 0 9.956 0c0-3.2-4.978-10.66-4.978-10.66z"/><path id="&#x421;&#x43B;&#x43E;&#x439;_406" class="cls-5" d="M44.09 7.11s-2.135 2.49-2.135 3.55a2.134 2.134 0 1 0 4.267 0c0-1.06-2.133-3.55-2.133-3.55z"/></g><g id="&#x421;&#x43B;&#x43E;&#x439;_411"><path id="&#x421;&#x43B;&#x43E;&#x439;_409" class="cls-3" d="M17.778 0s-4.978 7.46-4.978 10.66a4.978 4.978 0 1 0 9.956 0c0-3.2-4.978-10.66-4.978-10.66z"/><path id="&#x421;&#x43B;&#x43E;&#x439;_410" class="cls-5" d="M15.644 7.11s-2.134 2.49-2.134 3.55a2.134 2.134 0 1 0 4.268 0c0-1.06-2.134-3.55-2.134-3.55z"/></g></g></g>
    </symbol></svg>