<svg xmlns="http://www.w3.org/2000/svg" width="202" height="55.25" viewBox="0 0 202 55.25"><defs><style>.cls-1 { fill: #c8c8c8; fill-rule: evenodd; }</style></defs><path id="Слой_712" class="cls-1" d="M201.09 38.53a9.7 9.7 0 0 0-1.51.6 12 12 0 0 1-5.57.91v-20.17h6.47v-2.56h-6.47v-7.98l-2.07 1.85c-1.12 1.03-1.24 1.34-2.7 2.56l-6.06 5.83c1.52 0 2.82.15 4.51.15v20.32c0 .85-.2 2.27-.1 2.8.49 2.72 5.72 3.58 7.74 1.68 1.02-.96 1.93-1.94 2.93-2.94.26-.26.44-.42.68-.68zm-97.98-3.76c-.53-.28-.86-.53-1.4-.86-4.43-2.64-6.43-3.18-11.69-4.41 1.26-1.89 1.44-1.87 2.98-4.39a57.592 57.592 0 0 0 3.69-8.05l.09-.21a.85.85 0 0 1 .16-.29c.04 1.89 3.4 11.53 4.34 13.87zm-18.81-6.17a31.3 31.3 0 0 0-11.16 2.08 10.017 10.017 0 0 0-2.84 1.68c1.38 0 3.75-.75 6.77-.75h2.41c.92 0 1.1.15 1.96.15-2.58 3.84-8.55 8.41-12.97 10.21a33.244 33.244 0 0 1-5.84 1.98c0 1.1 0 2.21-.01 3.31 0 1.21.16 1.98.16 3.31a6.715 6.715 0 0 0 1.97-.58c.67-.25 1.2-.44 1.88-.68a47.48 47.48 0 0 0 10.14-5.36c3.21-2.12 8.57-7.39 10.24-10.54 1.88.16 8.13 2.99 10.32 4.28l3.63 2.39.86.64a35.943 35.943 0 0 1 5.25 5.14c.5.62.87 1.07 1.31 1.7a47.116 47.116 0 0 1 3.35 5.53 9.458 9.458 0 0 1 .86 2.15h12.19a5.216 5.216 0 0 0-.97-1.44 144.277 144.277 0 0 1-10.02-15.26c-.3-.52-.6-1.09-.93-1.64-1-1.64-2.51-4.82-3.43-6.65a125.352 125.352 0 0 1-5.85-14.31c-.83-2.5-1.67-5.09-2.34-7.75l-1.89-8.19a.937.937 0 0 0-.25.35l-1.45 3.37c-1.46 3.41-3.54 7.96-5.22 11.18-.32.61-.62 1.07-.96 1.76s-.62 1.08-.95 1.75a100.79 100.79 0 0 1-5.65 9.26 2.348 2.348 0 0 0-.57.93zm48.61 13.39c-2.32 0-3.46-.93-3.46-3.31v-8.13c0-.81 1.05-1.58 1.54-2.07 1.21-1.2 7.64-6.88 7.64-3.19v13.09a3.006 3.006 0 0 1-.71 1.55 7.8 7.8 0 0 1-5.01 2.06zm-9.93-34.31c0 10.18.21 20.19.14 30.25 0 1.36-.08 1.34.52 2.2.21.31.34.54.54.81 1.49 2.07 4.74 4.66 7.98 4.66h1.65c3.74 0 7.51-2.91 9.42-5.78.45-.69 1.57-2.59 1.57-3.55v-15.8c0-.73-2.39-7.08-10.2-.27l-2.49 2.18a17.79 17.79 0 0 1-2.66 2v-17l3.98-1.59c1.01-.38.85-.54 1.28-1.42a10.9 10.9 0 0 0 .91-1.96l-4.07-.15c-2.39 0-5.9 1.61-7.16 3.22-.42.54-1.41 1.48-1.41 2.2zm38.67 30.85c-.8 0-1.2-.41-1.2-1.5v-12.35c0-2.13 9.18-6.54 9.18-3.31v10.99c0 .56-2.95 3.06-3.5 3.57-.96.9-3.16 2.6-4.48 2.6zm-7.67-11.74v15.96c0 1.82 3 4.33 5.65 2.93l8.26-6.18a5.613 5.613 0 0 1 1.44-.97c0 1.24-.25 4.77.17 5.55.9 1.72 5.07 2.48 6.57 1.19.61-.51 1.23-.95 1.86-1.45 1.21-.97 2.44-1.88 3.59-2.88a56.324 56.324 0 0 0-5.72 1.35l-.15-7.07v-17.91h-10.84c-3.09 0-10.83 4.14-10.83 9.48z"/><path id="Слой_713" class="cls-1" d="M201.09 38.53a9.7 9.7 0 0 0-1.51.6 12 12 0 0 1-5.57.91v-20.17h6.47v-2.56h-6.47v-7.98l-2.07 1.85c-1.12 1.03-1.24 1.34-2.7 2.56l-6.06 5.83c1.52 0 2.82.15 4.51.15v20.32c0 .85-.2 2.27-.1 2.8.49 2.72 5.72 3.58 7.74 1.68 1.02-.96 1.93-1.94 2.93-2.94.26-.26.44-.42.68-.68zm-97.98-3.76c-.53-.28-.86-.53-1.4-.86-4.43-2.64-6.43-3.18-11.69-4.41 1.26-1.89 1.44-1.87 2.98-4.39a57.592 57.592 0 0 0 3.69-8.05l.09-.21a.85.85 0 0 1 .16-.29c.04 1.89 3.4 11.53 4.34 13.87zm-18.81-6.17a31.3 31.3 0 0 0-11.16 2.08 10.017 10.017 0 0 0-2.84 1.68c1.38 0 3.75-.75 6.77-.75h2.41c.92 0 1.1.15 1.96.15-2.58 3.84-8.55 8.41-12.97 10.21a33.244 33.244 0 0 1-5.84 1.98c0 1.1 0 2.21-.01 3.31 0 1.21.16 1.98.16 3.31a6.715 6.715 0 0 0 1.97-.58c.67-.25 1.2-.44 1.88-.68a47.48 47.48 0 0 0 10.14-5.36c3.21-2.12 8.57-7.39 10.24-10.54 1.88.16 8.13 2.99 10.32 4.28l3.63 2.39.86.64a35.943 35.943 0 0 1 5.25 5.14c.5.62.87 1.07 1.31 1.7a47.116 47.116 0 0 1 3.35 5.53 9.458 9.458 0 0 1 .86 2.15h12.19a5.216 5.216 0 0 0-.97-1.44 144.277 144.277 0 0 1-10.02-15.26c-.3-.52-.6-1.09-.93-1.64-1-1.64-2.51-4.82-3.43-6.65a125.352 125.352 0 0 1-5.85-14.31c-.83-2.5-1.67-5.09-2.34-7.75l-1.89-8.19a.937.937 0 0 0-.25.35l-1.45 3.37c-1.46 3.41-3.54 7.96-5.22 11.18-.32.61-.62 1.07-.96 1.76s-.62 1.08-.95 1.75a100.79 100.79 0 0 1-5.65 9.26 2.348 2.348 0 0 0-.57.93zm48.61 13.39c-2.32 0-3.46-.93-3.46-3.31v-8.13c0-.81 1.05-1.58 1.54-2.07 1.21-1.2 7.64-6.88 7.64-3.19v13.09a3.006 3.006 0 0 1-.71 1.55 7.8 7.8 0 0 1-5.01 2.06zm-9.93-34.31c0 10.18.21 20.19.14 30.25 0 1.36-.08 1.34.52 2.2.21.31.34.54.54.81 1.49 2.07 4.74 4.66 7.98 4.66h1.65c3.74 0 7.51-2.91 9.42-5.78.45-.69 1.57-2.59 1.57-3.55v-15.8c0-.73-2.39-7.08-10.2-.27l-2.49 2.18a17.79 17.79 0 0 1-2.66 2v-17l3.98-1.59c1.01-.38.85-.54 1.28-1.42a10.9 10.9 0 0 0 .91-1.96l-4.07-.15c-2.39 0-5.9 1.61-7.16 3.22-.42.54-1.41 1.48-1.41 2.2zm38.67 30.85c-.8 0-1.2-.41-1.2-1.5v-12.35c0-2.13 9.18-6.54 9.18-3.31v10.99c0 .56-2.95 3.06-3.5 3.57-.96.9-3.16 2.6-4.48 2.6zm-7.67-11.74v15.96c0 1.82 3 4.33 5.65 2.93l8.26-6.18a5.613 5.613 0 0 1 1.44-.97c0 1.24-.25 4.77.17 5.55.9 1.72 5.07 2.48 6.57 1.19.61-.51 1.23-.95 1.86-1.45 1.21-.97 2.44-1.88 3.59-2.88a56.324 56.324 0 0 0-5.72 1.35l-.15-7.07v-17.91h-10.84c-3.09 0-10.83 4.14-10.83 9.48z"/><path id="Слой_714" class="cls-1" d="M12.66 26.49c0 3 2.22 6.08 3.66 7.78 3.79 4.52 14.53 9.1 13.55 14.84-.43 2.48-1.46 3.25-1.71 4.17 4.21.98 7.54 1.38 10.95-1.99 4.63-4.58 3.13-9.03-.43-13.79-6.23-8.33-16.69-9.95-16.69-17.63a10.256 10.256 0 0 1 .45-2.56 13.647 13.647 0 0 0-6.74 2.74 8.43 8.43 0 0 0-3.04 6.44z"/><path id="Слой_715" class="cls-1" d="M40.65 34.17a8.456 8.456 0 0 1-.45 3.61 12.748 12.748 0 0 0 6.73-2.45 7.8 7.8 0 0 0 2.18-2.49c3.47-5.75-2.06-12.35-6.67-15.81-.93-.7-1.7-1.31-2.63-2.04-.5-.4-.85-.68-1.3-1.1-.31-.29-.37-.28-.67-.54l-2.91-3.11c-2.61-3.69-.95-5.64.6-8.58-1.11-.09-2.23-.63-3.47-.74a7.91 7.91 0 0 0-3.66.23 10.226 10.226 0 0 0-4 2.31 7.938 7.938 0 0 0-2.82 7.34 13.148 13.148 0 0 0 1.01 3.2 25.96 25.96 0 0 0 3.48 5.1 14.208 14.208 0 0 0 2.65 2.62l.54.51c3.88 3.29 11.39 7.33 11.39 11.94z"/><path id="Слой_716" class="cls-1" d="M37.19 6.93l15.01 14.63c.26.24.43.42.68.68 6.62 6.63 6.84 4.71-2.49 13.99l-1.5 1.66a37.156 37.156 0 0 0-3.12 3.2 30.3 30.3 0 0 0 2.41 1.96l10.34-10.43c2.62-2.59 3.27-5.96.61-8.65-.96-.97-1.82-1.82-2.79-2.78l-5.72-5.57-2.78-2.79-8.54-8.31a25.085 25.085 0 0 0-2.11 2.41z"/><path id="Слой_717" class="cls-1" d="M.92 28.3c0 3.26 2.19 4.52 4.4 6.73 2.47 2.47 4.53 4.68 7.07 6.93.51.44.95.94 1.44 1.42l8.61 8.4a13.637 13.637 0 0 0 2.11-2.26l-10.5-10.27-5.19-5.2-2.64-2.48a9.36 9.36 0 0 1-1.84-2.06c-.98-2.28 1.38-3.74 3.88-6.22l1.5-1.65 6.21-6.29-2.26-2.1a41.255 41.255 0 0 0-3.5 3.42l-1.73 1.73-1.65 1.81-3.46 3.46c-1.13 1.13-2.45 2.44-2.45 4.63z"/></svg>