<svg xmlns="http://www.w3.org/2000/svg" width="64" height="69.72" viewBox="0 0 64 69.72"><defs><style>.cls-1 { fill: #ededed; } .cls-1, .cls-2 { fill-rule: evenodd; } .cls-2 { fill: #a2c0dc; }</style></defs><path id="Слой_221" class="cls-1" d="M32 59.75c17.66 0 32 2.23 32 4.98s-14.34 4.98-32 4.98-32-2.23-32-4.98 14.34-4.98 32-4.98z"/><path id="Слой_222" class="cls-2" d="M30.933 19.26v-7.15l-6.45-6.4 1.473-1.43 4.977 4.98v-2.84l-3.607-3.56 1.474-1.42 2.133 2.13v-3.55h2.134v3.55l2.133-2.13 1.474 1.42-3.607 3.56v2.84l4.977-4.98 1.474 1.43-6.45 6.4v7.15a12.734 12.734 0 0 1 7.2 2.99l5.06-5.07-.036-9.08 2.047.03v7.04l2.01-2.01-.036-5.06 2.048.03v3.02l2.514-2.51 1.51 1.5-2.516 2.52h3.017l.037 2.05-5.065-.04-2.012 2.01h7.04l.036 2.05-9.088-.04-5.06 5.06a12.77 12.77 0 0 1 2.983 7.2h7.154l6.4-6.45 1.422 1.47-4.977 4.98h2.84l3.556-3.61 1.422 1.48-2.134 2.13h3.56v2.13h-3.556l2.134 2.14-1.422 1.47-3.556-3.61h-2.844l4.977 4.98-1.422 1.48-6.4-6.46h-7.154a12.714 12.714 0 0 1-2.984 7.2l5.06 5.06 9.09-.03-.038 2.04h-7.04l2.012 2.02 5.065-.04-.036 2.05h-3.017l2.515 2.51-1.51 1.51-2.513-2.51v3.01l-2.05.04.038-5.07-2.012-2.01v7.04l-2.047.04.035-9.09-5.06-5.06a12.723 12.723 0 0 1-7.2 2.98v7.16l6.45 6.4-1.474 1.42-4.976-4.98v2.85l3.607 3.55-1.473 1.43-2.133-2.14v3.56h-2.136v-3.56l-2.133 2.14-1.474-1.43 3.607-3.55v-2.85l-4.977 4.98-1.474-1.42 6.45-6.4v-7.16a12.723 12.723 0 0 1-7.2-2.98l-5.06 5.06.035 9.09-2.047-.04v-7.04l-2.012 2.01.037 5.07-2.048-.04v-3.01l-2.514 2.51-1.508-1.51 2.514-2.51h-3.016l-.037-2.05 5.065.04 2.01-2.02h-7.038l-.035-2.04 9.087.03 5.062-5.06a12.714 12.714 0 0 1-2.984-7.2h-7.155l-6.4 6.46-1.422-1.48 4.978-4.98h-2.841l-3.556 3.61-1.422-1.47 2.133-2.14h-3.555v-2.13h3.555l-2.133-2.13 1.422-1.48 3.556 3.61h2.844l-4.977-4.98 1.423-1.47 6.4 6.45h7.154a12.77 12.77 0 0 1 2.984-7.2l-5.062-5.06-9.087.04.035-2.05h7.04l-2.01-2.01-5.066.04.035-2.05h3.017l-2.514-2.52 1.51-1.5 2.513 2.51v-3.02l2.05-.03-.038 5.06 2.012 2.01v-7.04l2.047-.03-.035 9.08 5.06 5.07a12.734 12.734 0 0 1 7.198-2.99zm0 23.37v-8.04l-5.682 5.69a10.61 10.61 0 0 0 5.683 2.35zm7.816-2.35l-5.683-5.69v8.04a10.61 10.61 0 0 0 5.682-2.35zm-15.009-1.51l5.683-5.69h-8.04a10.624 10.624 0 0 0 2.357 5.69zm18.872-5.69h-8.04l5.684 5.69a10.624 10.624 0 0 0 2.356-5.69zm-2.356-7.81l-5.683 5.68h8.04a10.632 10.632 0 0 0-2.357-5.68zm-16.516 0a10.624 10.624 0 0 0-2.356 5.68h8.04zm9.325-3.87v8.04l5.682-5.68a10.7 10.7 0 0 0-5.683-2.36zm-2.134 0a10.7 10.7 0 0 0-5.682 2.36l5.683 5.68v-8.04z"/></svg>