<svg xmlns="http://www.w3.org/2000/svg" width="61.281" height="68" viewBox="0 0 61.281 68"><defs><style>.cls-1 { fill: #ededed; } .cls-1, .cls-2, .cls-3, .cls-4, .cls-5, .cls-6 { fill-rule: evenodd; } .cls-2 { fill: #a2c0dc; } .cls-3 { fill: #509ceb; } .cls-4 { fill: #d8e4ef; } .cls-5 { fill: #fff; } .cls-6 { fill: #ecb81f; stroke: #fff; stroke-linecap: round; stroke-miterlimit: 1.414; stroke-width: 2px; }</style></defs><g id="Слой_429"><path id="Слой_420" class="cls-1" d="M30.65 57.63c16.908 0 30.636 2.14 30.636 4.77s-13.728 4.76-30.636 4.76-30.635-2.13-30.635-4.76 13.727-4.77 30.635-4.77z"/><path id="Слой_421" class="cls-2" d="M21.044 9.06a16.9 16.9 0 0 0-3.336 0l-.5 2.64a14.49 14.49 0 0 0-3.1.83l-1.75-2.03a16.944 16.944 0 0 0-2.89 1.66l.883 2.54a14.39 14.39 0 0 0-2.27 2.27l-2.533-.89a17.415 17.415 0 0 0-1.67 2.89l2.032 1.76a14.49 14.49 0 0 0-.832 3.1l-2.635.5a17.1 17.1 0 0 0 0 3.34l2.635.5a14.49 14.49 0 0 0 .83 3.1l-2.03 1.75a16.64 16.64 0 0 0 1.67 2.89l2.53-.88a14.39 14.39 0 0 0 2.273 2.27l-.883 2.53a17 17 0 0 0 2.89 1.67l1.75-2.03a14.49 14.49 0 0 0 3.1.83l.5 2.64a16.9 16.9 0 0 0 3.337 0l.5-2.64a14.482 14.482 0 0 0 3.1-.83l1.75 2.03a16.956 16.956 0 0 0 2.89-1.67l-.882-2.53a14.382 14.382 0 0 0 2.27-2.27l2.534.88a16.635 16.635 0 0 0 1.668-2.89l-2.03-1.75a14.49 14.49 0 0 0 .83-3.1l2.635-.5a17.1 17.1 0 0 0 0-3.34l-2.636-.5a14.49 14.49 0 0 0-.83-3.1l2.03-1.76a17.41 17.41 0 0 0-1.668-2.89l-2.533.89a14.382 14.382 0 0 0-2.27-2.27l.882-2.54a16.906 16.906 0 0 0-2.89-1.66l-1.75 2.03a14.482 14.482 0 0 0-3.1-.83zm-1.668 13.53a3.405 3.405 0 1 1-3.4 3.41 3.41 3.41 0 0 1 3.4-3.41z"/><path id="Слой_422" class="cls-3" d="M26.597 19.74a10.21 10.21 0 1 1-14.442 0 10.215 10.215 0 0 1 14.442 0z"/><path id="Слой_423" class="cls-4" d="M26.597 18.78a10.21 10.21 0 1 1-14.442 0 10.215 10.215 0 0 1 14.442 0z"/><path id="Слой_424" class="cls-5" d="M21.783 23.59a3.406 3.406 0 1 1-4.814 0 3.412 3.412 0 0 1 4.813 0z"/><path id="Слой_425" class="cls-2" d="M48.147 32.85a16.408 16.408 0 0 0-3.223-.87l-1.166 2.42a14.383 14.383 0 0 0-3.213 0l-1.166-2.42a16.408 16.408 0 0 0-3.224.87l.2 2.67a14.314 14.314 0 0 0-2.782 1.61l-2.218-1.51a16.193 16.193 0 0 0-2.36 2.36l1.51 2.21a14.487 14.487 0 0 0-1.607 2.79l-2.675-.2a16.932 16.932 0 0 0-.863 3.22l2.416 1.17a14.476 14.476 0 0 0 0 3.21l-2.415 1.17a16.932 16.932 0 0 0 .865 3.22l2.674-.2a14.116 14.116 0 0 0 1.606 2.78l-1.51 2.22a17.25 17.25 0 0 0 2.36 2.36l2.218-1.51a14.314 14.314 0 0 0 2.782 1.61l-.2 2.67a17.133 17.133 0 0 0 3.223.87l1.165-2.42a14.383 14.383 0 0 0 3.213 0l1.166 2.42a17.133 17.133 0 0 0 3.223-.87l-.2-2.67a14.314 14.314 0 0 0 2.782-1.61l2.217 1.51a17.25 17.25 0 0 0 2.36-2.36l-1.51-2.22a14.116 14.116 0 0 0 1.607-2.78l2.674.2a16.932 16.932 0 0 0 .864-3.22l-2.415-1.17a14.476 14.476 0 0 0 0-3.21l2.417-1.17a16.932 16.932 0 0 0-.864-3.22l-2.674.2a14.487 14.487 0 0 0-1.607-2.79l1.51-2.21a16.193 16.193 0 0 0-2.36-2.36l-2.218 1.51a14.314 14.314 0 0 0-2.783-1.61zm-5.117 12.64a3.4 3.4 0 1 1-4.168 2.4 3.4 3.4 0 0 1 4.17-2.4z"/><path id="Слой_426" class="cls-3" d="M50.746 44.6a10.21 10.21 0 1 1-13.95-3.74 10.218 10.218 0 0 1 13.95 3.74z"/><path id="Слой_427" class="cls-4" d="M50.995 43.67a10.21 10.21 0 1 1-13.95-3.74 10.218 10.218 0 0 1 13.95 3.74z"/><path id="Слой_428" class="cls-5" d="M45.1 47.07a3.405 3.405 0 1 1-4.65-1.24 3.405 3.405 0 0 1 4.65 1.24z"/></g><g id="Слой_433"><path id="Слой_431" class="cls-3" d="M43.823 1.83l-26.955 28.17 13.818 8.65-14.45 25.25 28.827-27-13.77-8.6z"/><path id="Слой_432" class="cls-6" d="M43.823 1.83l-27.565 27.56 13.818 8.65-13.84 25.86 27.608-27.61-13.77-8.6z"/></g></svg>