<?xml version="1.0" standalone="no"?>
<!DOCTYPE svg PUBLIC "-//W3C//DTD SVG 20010904//EN"
 "http://www.w3.org/TR/2001/REC-SVG-20010904/DTD/svg10.dtd">
<svg version="1.0" xmlns="http://www.w3.org/2000/svg"
 width="16.000000pt" height="16.000000pt" viewBox="0 0 16.000000 16.000000"
 preserveAspectRatio="xMidYMid meet">
<metadata>
Created by potrace 1.11, written by Peter Selinger 2001-2013
</metadata>
<g transform="translate(0.000000,16.000000) scale(0.002500,-0.002500)"
fill="#000000" stroke="none">
<path d="M4150 5909 c0 -6 4 -8 8 -5 10 6 9 -24 -1 -41 -4 -6 -1 -14 5 -16 7
-3 3 -6 -9 -6 -13 -1 -23 5 -23 12 0 8 -3 9 -8 1 -4 -6 -15 -10 -24 -8 -10 1
-18 -1 -18 -6 0 -5 -11 -7 -25 -5 -14 1 -25 -2 -25 -6 0 -5 -5 -9 -11 -9 -5 0
-7 5 -4 10 3 6 1 10 -6 10 -6 0 -9 -8 -6 -20 3 -11 0 -20 -6 -20 -6 0 -2 -7 9
-15 10 -8 15 -14 9 -13 -5 1 -20 -3 -32 -10 -15 -8 -24 -9 -28 -2 -4 7 -11 8
-18 2 -7 -5 -31 -9 -54 -7 -23 1 -40 -2 -37 -6 2 -4 0 -11 -6 -14 -8 -5 -6
-14 4 -30 15 -22 14 -23 -9 -20 -14 1 -25 -1 -25 -5 0 -4 -16 -6 -35 -5 -31 2
-33 1 -24 -16 5 -11 6 -19 2 -19 -4 0 -1 -5 7 -10 11 -7 11 -10 2 -10 -7 0
-11 -4 -8 -8 6 -10 -45 -9 -63 2 -10 6 -12 5 -7 -2 7 -12 -5 -16 -33 -13 -8 2
-10 -3 -6 -11 6 -10 5 -11 -6 0 -7 6 -22 12 -33 12 -17 0 -18 -2 -6 -10 12 -8
12 -10 -5 -10 -16 0 -17 -2 -5 -9 8 -6 18 -7 24 -4 5 3 6 1 2 -5 -4 -7 -15
-12 -24 -12 -13 0 -13 -2 3 -14 18 -13 17 -14 -17 -14 -39 0 -43 12 -18 44 14
17 13 18 -1 7 -9 -7 -19 -10 -22 -7 -4 4 -5 -3 -2 -15 5 -25 -17 -38 -62 -36
-18 1 -33 -3 -33 -8 0 -5 7 -6 16 -3 8 3 12 2 9 -4 -3 -6 -14 -10 -23 -10 -10
0 -13 -3 -7 -8 16 -11 19 -46 3 -40 -7 3 -22 2 -33 -2 -11 -4 -26 -3 -32 2 -9
7 -15 5 -19 -6 -3 -9 -10 -13 -15 -10 -5 2 -22 7 -39 9 -25 3 -29 1 -20 -10 8
-9 8 -15 0 -20 -8 -5 -7 -11 1 -22 10 -12 10 -16 -2 -23 -8 -6 -18 -5 -23 0
-6 6 -14 6 -22 -1 -8 -7 -14 -7 -18 0 -7 11 -56 -26 -56 -42 0 -4 7 -1 16 7
21 21 25 20 20 -6 -2 -13 4 -33 12 -46 13 -21 13 -22 -4 -15 -16 6 -17 4 -7
-8 10 -12 10 -18 1 -27 -7 -7 -10 -12 -8 -13 3 0 16 -2 29 -5 19 -3 21 -2 13
9 -9 10 -8 14 3 14 7 0 13 -5 12 -11 -1 -6 4 -10 11 -9 6 2 12 -2 12 -8 0 -5
5 -7 10 -4 6 3 10 0 10 -7 0 -8 3 -9 8 -3 8 12 43 12 61 1 9 -6 9 -11 0 -23
-10 -12 -10 -16 2 -24 12 -7 12 -9 -1 -10 -37 -3 41 -15 92 -14 49 1 55 -1 45
-14 -10 -12 -9 -14 5 -9 13 6 15 1 11 -23 -4 -27 -2 -29 24 -29 39 2 82 -6 91
-15 4 -5 -1 -5 -11 -2 -15 6 -17 3 -12 -12 3 -11 1 -22 -5 -26 -19 -12 -1 -23
32 -20 18 1 48 -4 66 -11 18 -7 30 -9 27 -4 -3 6 1 10 10 10 11 0 15 -5 11
-16 -3 -8 -2 -12 4 -9 6 3 10 1 10 -4 0 -19 -5 -26 -15 -23 -5 2 -1 -5 10 -16
11 -10 21 -16 23 -11 2 4 9 6 15 3 7 -2 35 -6 62 -8 86 -7 82 -6 63 -17 -10
-5 -18 -15 -18 -22 0 -7 4 -6 10 3 8 12 10 9 8 -10 -2 -16 2 -24 10 -23 6 2
12 0 12 -5 0 -4 18 -7 41 -6 25 0 43 -4 46 -13 3 -7 9 -10 14 -7 5 3 7 10 4
15 -10 15 0 10 25 -11 13 -11 18 -20 11 -20 -7 0 -10 -4 -7 -8 3 -5 -7 -8 -21
-7 -17 0 -27 7 -29 19 -4 26 -14 33 -14 8 0 -11 -6 -23 -12 -25 -10 -4 -10 -6
0 -6 7 -1 11 -5 8 -10 -3 -5 10 -7 29 -5 19 1 37 -1 40 -5 2 -5 18 -7 35 -5
42 5 81 -11 74 -31 -3 -8 -11 -15 -16 -15 -6 0 -5 6 2 15 7 9 8 15 2 15 -14 0
-22 -24 -13 -39 12 -18 44 -20 57 -3 9 12 13 12 19 2 5 -9 4 -11 -3 -6 -7 4
-12 2 -12 -3 0 -6 9 -11 21 -11 12 0 17 -4 13 -11 -4 -8 -1 -8 14 0 38 20 74
-2 44 -26 -15 -12 -15 -12 3 -6 18 6 18 5 6 -10 -7 -9 -10 -18 -5 -18 5 -1 25
-3 44 -5 60 -6 61 -7 51 -17 -11 -11 -3 -37 11 -37 6 0 4 7 -3 16 -12 15 -11
16 8 10 12 -4 24 -2 28 3 3 7 0 8 -9 5 -9 -3 -16 -2 -16 4 0 6 8 9 18 7 9 -2
20 -4 24 -4 6 -1 6 -11 -4 -51 -2 -11 5 -15 24 -15 14 1 24 -3 21 -8 -2 -4 7
-6 21 -3 14 3 27 0 27 -5 1 -5 2 -15 3 -21 1 -7 -3 -16 -9 -20 -6 -5 -5 -8 3
-8 7 0 11 -3 9 -8 -3 -4 8 -7 23 -7 16 -1 26 3 24 7 -3 5 -10 5 -16 2 -7 -4
-8 -2 -4 4 4 6 13 9 21 5 10 -3 13 -1 10 9 -3 7 -15 14 -25 15 -11 1 -18 -2
-15 -7 3 -5 2 -11 -3 -14 -4 -2 -8 6 -8 20 0 27 6 30 25 12 12 -11 13 -9 7 7
-6 15 -4 17 5 8 6 -6 19 -9 28 -6 10 3 12 2 5 -4 -6 -4 -11 -22 -12 -39 -1
-31 1 -32 39 -29 32 2 39 -1 35 -12 -3 -8 -1 -11 4 -8 6 3 10 2 10 -4 0 -5 3
-17 7 -27 5 -13 3 -15 -8 -9 -12 7 -12 6 0 -6 10 -11 15 -11 18 -2 3 10 9 9
21 -3 11 -12 17 -13 20 -5 3 8 13 5 30 -11 15 -13 21 -16 15 -7 -11 13 -7 15
26 15 l38 -1 -16 -25 c-15 -24 -15 -24 3 -10 18 14 19 14 9 -5 -8 -15 -7 -23
3 -33 8 -7 14 -9 14 -3 0 10 25 9 36 -1 3 -4 12 -4 20 -1 11 4 13 -3 10 -31
-3 -19 -1 -38 4 -41 6 -3 7 1 3 11 -6 15 -4 15 20 0 27 -19 48 -6 28 18 -6 7
-7 17 -3 22 4 5 -3 1 -14 -9 -21 -18 -21 -17 -21 10 0 15 2 22 4 16 3 -7 9
-13 14 -13 6 0 8 4 5 9 -4 5 2 8 11 7 10 -2 19 -8 19 -14 1 -7 3 -15 4 -19 1
-5 3 -17 4 -28 1 -16 8 -20 34 -20 17 0 32 4 32 9 0 5 3 7 6 3 11 -11 12 -72
1 -79 -6 -4 5 -6 24 -5 18 2 40 6 46 10 9 6 11 3 6 -9 -5 -14 -2 -16 18 -11
20 5 21 4 8 -6 -11 -9 -15 -29 -15 -70 1 -49 3 -55 14 -40 7 10 10 23 8 29 -3
7 6 19 19 28 20 13 24 13 29 1 3 -9 0 -12 -10 -8 -14 5 -20 -12 -6 -20 4 -2 1
-2 -6 0 -8 1 -12 -3 -9 -9 2 -7 13 -12 23 -11 10 1 13 0 6 -3 -10 -5 -10 -9
-1 -20 6 -8 7 -14 2 -14 -5 0 -9 -9 -10 -20 -1 -13 2 -18 10 -13 7 3 4 -3 -6
-14 -18 -21 -19 -42 -2 -56 6 -5 2 -6 -8 -3 -12 4 -17 2 -14 -6 2 -7 13 -12
23 -10 14 2 16 1 5 -6 -10 -7 -10 -11 -1 -17 9 -6 9 -10 -1 -16 -12 -8 -11
-11 1 -20 13 -9 13 -10 0 -6 -8 2 -14 13 -13 23 1 13 -4 20 -16 20 -13 0 -18
-8 -18 -27 0 -16 5 -25 11 -23 7 3 20 -3 31 -11 19 -15 19 -15 1 -13 -10 2
-21 -3 -23 -10 -3 -7 1 -10 10 -6 8 3 18 1 22 -5 3 -7 0 -8 -9 -5 -16 6 -23
-10 -8 -19 4 -2 1 -2 -6 0 -8 1 -12 -3 -9 -9 2 -7 13 -12 23 -11 10 1 13 0 6
-3 -10 -5 -10 -9 -1 -20 6 -8 7 -14 2 -14 -5 0 -9 -9 -10 -20 -1 -13 2 -18 10
-13 7 3 4 -3 -6 -14 -18 -21 -19 -42 -2 -56 6 -5 2 -6 -8 -3 -12 4 -17 2 -14
-6 2 -7 13 -12 23 -10 14 2 16 1 5 -6 -10 -7 -10 -11 -1 -17 9 -6 9 -10 -1
-16 -12 -8 -11 -11 1 -20 13 -9 13 -10 0 -6 -8 2 -14 13 -13 23 1 13 -4 20
-16 20 -13 0 -18 -8 -18 -27 0 -16 5 -25 11 -23 7 3 20 -3 31 -11 19 -15 19
-15 1 -13 -10 2 -21 -3 -23 -10 -3 -7 1 -10 10 -6 8 3 18 1 22 -5 3 -7 0 -8
-9 -5 -16 6 -23 -10 -8 -19 4 -2 1 -2 -6 0 -8 1 -12 -3 -9 -9 2 -7 13 -12 23
-11 10 1 13 0 6 -3 -10 -5 -10 -9 -1 -20 6 -8 7 -14 2 -14 -5 0 -9 -9 -10 -20
-1 -13 2 -18 10 -13 7 3 4 -3 -6 -14 -18 -21 -19 -42 -2 -56 6 -5 2 -6 -8 -3
-12 4 -17 2 -14 -6 2 -7 13 -12 23 -10 14 2 16 1 5 -6 -10 -7 -10 -11 -1 -17
9 -6 9 -10 -1 -16 -12 -8 -11 -11 1 -20 13 -9 13 -10 0 -6 -8 2 -14 13 -13 23
1 13 -4 20 -16 20 -13 0 -18 -8 -18 -27 0 -16 5 -25 11 -23 7 3 20 -3 31 -11
19 -15 19 -15 1 -13 -10 2 -21 -3 -23 -10 -3 -7 1 -10 10 -6 8 3 18 1 22 -5 3
-7 0 -8 -9 -5 -16 6 -23 -10 -8 -19 4 -2 1 -2 -6 0 -8 1 -12 -3 -9 -9 2 -7 13
-12 23 -11 10 1 13 0 6 -3 -9 -4 -10 -10 -2 -19 8 -9 6 -14 -6 -19 -13 -5 -14
-9 -4 -21 8 -9 8 -15 2 -15 -6 0 -12 6 -15 13 -2 6 -8 9 -12 5 -4 -4 -3 -13 3
-21 7 -8 7 -18 2 -27 -10 -16 -12 -12 -14 34 -1 16 -6 31 -12 33 -12 4 -11
-57 1 -79 5 -7 5 -10 0 -6 -5 5 -14 -1 -22 -12 -8 -11 -19 -20 -25 -20 -7 0
-4 6 6 13 17 12 15 13 -15 12 -25 -2 -34 -6 -32 -19 1 -12 -4 -16 -15 -12 -10
4 -6 -2 8 -13 14 -11 21 -23 17 -27 -4 -4 -7 -2 -7 5 0 8 -8 6 -24 -4 -16 -11
-26 -13 -31 -5 -3 6 -12 7 -18 3 -7 -4 -30 -8 -52 -9 -47 -2 -54 -19 -8 -20
18 0 29 4 26 9 -3 6 -1 7 6 3 6 -4 9 -12 6 -17 -4 -5 0 -9 7 -9 9 0 9 -3 -2
-10 -8 -5 -10 -10 -5 -11 6 0 1 -4 -10 -8 -20 -9 -49 5 -40 18 2 4 -2 8 -10 8
-10 0 -11 -5 -5 -17 6 -11 5 -17 -3 -18 -17 -2 -98 -11 -124 -15 -12 -1 -26
-7 -30 -11 -4 -5 -2 -6 5 -2 7 4 12 2 12 -6 0 -10 2 -10 8 -1 5 8 14 5 30 -12
26 -27 21 -33 -30 -31 -21 1 -38 -1 -38 -4 0 -4 -18 -6 -40 -5 -30 1 -40 -2
-36 -11 3 -7 0 -15 -7 -17 -9 -3 -8 -8 2 -20 7 -10 12 -17 10 -18 -2 0 -24 -2
-49 -4 -24 -1 -46 -8 -48 -14 -2 -6 -8 -11 -13 -11 -6 0 -7 5 -4 10 3 5 2 10
-4 10 -12 0 -25 -19 -18 -26 3 -3 14 -6 25 -7 16 -1 18 -5 12 -18 -5 -9 -6
-20 -2 -24 4 -5 1 -5 -6 -1 -7 5 -11 15 -8 23 4 10 2 13 -8 10 -15 -6 -30 19
-20 34 3 5 0 9 -5 9 -6 0 -11 -5 -11 -11 0 -5 -6 -7 -12 -3 -8 5 -8 1 1 -10
13 -15 13 -19 0 -27 -11 -7 -11 -9 -1 -9 8 0 12 -5 10 -12 -3 -7 -25 -11 -56
-12 -41 0 -49 -2 -40 -13 7 -9 7 -13 0 -13 -6 0 -14 5 -17 10 -4 6 -11 8 -16
5 -5 -4 -9 -1 -9 5 0 6 -5 8 -10 5 -6 -4 -8 -16 -4 -27 4 -15 3 -18 -6 -13 -8
5 -11 4 -7 -3 16 -25 -4 -38 -54 -37 -27 1 -53 -3 -56 -8 -3 -6 -2 -8 3 -5 5
3 15 0 22 -8 7 -8 8 -14 3 -14 -5 0 -8 -8 -6 -18 3 -15 -3 -18 -28 -17 -18 2
-36 0 -41 -3 -14 -8 -86 -8 -86 0 0 4 -9 5 -19 3 -15 -3 -18 0 -14 13 6 15 5
15 -10 3 -20 -16 -30 -10 -32 18 -1 13 3 17 13 13 11 -4 13 -1 7 8 -5 8 -4 11
3 6 6 -4 9 -12 6 -20 -3 -7 2 -13 11 -13 9 0 14 6 11 14 -3 8 -1 11 5 8 5 -4
7 -16 4 -28 -2 -12 -2 -16 1 -9 3 6 9 10 13 8 4 -3 8 1 8 9 0 8 -5 15 -10 15
-5 0 -7 6 -4 13 3 9 -10 12 -49 11 -30 0 -54 3 -54 8 0 4 -13 5 -29 2 -25 -5
-29 -3 -27 12 2 11 -4 25 -13 32 -14 11 -14 11 2 6 9 -3 17 -1 17 5 0 12 -11
15 -52 12 -16 0 -28 2 -28 6 0 5 -15 7 -32 7 -42 -2 -63 13 -47 32 8 10 8 14
1 14 -6 0 -9 6 -6 14 3 8 1 17 -5 21 -6 3 -11 2 -11 -3 0 -9 -49 -10 -65 0 -6
3 -24 4 -41 3 -26 -1 -31 2 -29 22 0 12 9 29 19 36 15 11 12 13 -28 12 -25 0
-46 3 -46 6 0 4 -10 5 -21 2 -19 -5 -20 -4 -9 17 7 12 8 20 3 17 -4 -2 -17 5
-28 16 l-20 20 22 -12 c29 -15 38 -14 25 2 -7 7 -28 13 -49 12 -23 -1 -43 5
-51 14 -8 9 -11 11 -8 4 10 -18 -52 -13 -67 6 -10 14 -10 14 4 4 14 -11 16 -8
15 21 -1 27 -5 34 -19 33 -9 -1 -16 -6 -13 -12 2 -7 -2 -12 -9 -12 -7 0 -11 6
-8 13 3 9 -2 12 -18 9 -12 -3 -28 0 -34 5 -6 5 -21 8 -33 5 -12 -2 -22 1 -22
6 0 6 -6 7 -12 3 -9 -5 -9 -2 1 9 7 9 10 17 5 17 -4 0 1 7 12 16 15 12 15 14
2 11 -9 -3 -19 -3 -23 1 -4 4 -19 8 -33 9 -77 6 -114 11 -120 18 -4 5 1 5 12
1 14 -5 17 -3 12 10 -3 8 -6 20 -6 25 0 6 -5 7 -10 4 -6 -4 -9 -1 -8 7 2 7 -4
13 -12 13 -8 0 -18 5 -22 10 -5 6 -11 5 -17 -4 -6 -9 -11 -10 -15 -2 -4 6 -13
8 -19 4 -7 -4 -5 2 3 12 8 10 10 16 4 12 -7 -4 -11 2 -11 18 0 15 4 22 11 18
6 -3 7 -2 3 3 -13 14 -51 11 -65 -6 -8 -8 -11 -10 -8 -3 7 14 -29 27 -46 17
-8 -5 -9 -2 -5 10 5 12 3 15 -6 9 -21 -13 -37 -12 -37 3 0 9 4 12 10 9 6 -3 7
1 4 9 -3 9 -10 16 -15 16 -5 0 -8 5 -7 11 2 6 -5 13 -15 14 -14 3 -17 -1 -13
-13 5 -15 5 -15 -7 0 -8 10 -17 15 -20 11 -4 -3 -7 -1 -7 5 0 7 -14 9 -37 7
-30 -4 -34 -2 -20 6 20 11 23 41 5 38 -26 -3 -38 1 -36 13 2 7 -2 12 -9 13 -6
0 -15 3 -18 7 -4 4 -16 3 -26 -3 -13 -6 -19 -6 -19 1 0 5 -10 8 -22 6 -13 -2
-32 4 -42 13 -18 15 -19 15 -13 -2 4 -10 3 -16 -2 -12 -5 3 -8 17 -7 32 2 19
10 27 27 30 16 2 20 0 11 -5 -10 -7 -9 -14 7 -33 11 -13 20 -19 21 -12 0 6 -4
14 -10 18 -5 3 -7 12 -4 20 4 8 11 12 17 8 5 -3 7 -2 4 4 -3 5 -26 9 -49 8
-27 -1 -50 4 -62 14 -11 9 -16 10 -12 4 5 -9 0 -13 -13 -13 -14 0 -19 5 -15
15 4 10 0 15 -11 15 -15 0 -15 1 0 17 14 14 15 17 2 24 -8 5 -25 6 -38 4 -13
-3 -34 2 -47 11 -14 9 -22 12 -19 7 4 -6 -7 -10 -23 -11 -17 0 -30 4 -30 9 0
6 6 7 13 3 6 -4 4 2 -6 13 -17 20 -17 22 -1 31 14 8 14 10 -7 15 -13 3 -36 5
-51 3 -16 -2 -28 0 -28 5 0 4 -9 6 -20 4 -11 -2 -18 0 -15 5 3 4 -1 11 -7 14
-7 2 -2 4 12 3 19 -2 24 2 22 17 -2 12 1 16 9 10 8 -4 10 -3 5 4 -4 6 -14 8
-23 5 -12 -5 -14 -3 -8 8 5 8 1 7 -12 -3 -11 -10 -23 -18 -28 -18 -4 0 -1 8 6
18 13 15 12 16 -3 3 -10 -7 -15 -18 -11 -24 4 -6 1 -7 -6 -3 -7 5 -10 14 -7
21 4 12 -15 14 -64 6 -4 -1 -6 -26 -6 -56 0 -38 3 -51 11 -45 7 6 11 3 11 -9
0 -12 -6 -17 -14 -14 -15 6 -13 -18 3 -29 6 -5 5 -8 -2 -8 -7 0 -13 -5 -13
-11 0 -5 5 -7 12 -3 7 5 8 3 3 -7 -14 -21 -15 -60 -3 -53 7 5 8 2 2 -7 -13
-21 -14 -83 0 -91 8 -6 8 -8 -1 -8 -7 0 -13 -5 -13 -11 0 -5 6 -7 13 -3 10 6
10 4 0 -7 -17 -17 -16 -30 0 -23 8 3 14 -2 14 -10 0 -8 -5 -12 -11 -10 -15 6
-16 -238 -1 -248 6 -5 5 -8 -2 -8 -7 0 -13 -5 -13 -11 0 -5 6 -7 13 -3 10 6
10 4 0 -7 -17 -17 -16 -30 0 -23 8 3 14 -2 14 -10 0 -8 -5 -12 -11 -10 -14 5
-15 -284 -1 -305 5 -9 4 -12 -2 -8 -5 3 -9 -11 -9 -34 0 -25 4 -38 11 -35 7 2
12 -2 12 -9 0 -7 -5 -11 -12 -9 -12 5 -13 -85 -1 -105 4 -6 3 -11 -3 -11 -6 0
-8 -6 -5 -14 3 -7 17 -13 32 -12 23 1 27 5 24 26 -1 19 0 22 8 10 5 -8 7 -23
4 -34 -4 -12 -2 -16 5 -12 6 4 11 0 11 -8 0 -9 5 -16 10 -16 6 0 10 -5 10 -11
0 -6 -7 -8 -16 -5 -13 5 -14 4 -6 -7 7 -8 10 -16 8 -18 -2 -2 8 -4 24 -4 15 0
26 4 23 8 -3 4 1 14 7 22 7 9 8 15 2 15 -5 0 -12 -7 -16 -15 -3 -8 -11 -15
-17 -15 -9 0 -9 3 0 14 9 10 8 15 -4 20 -25 9 -17 21 15 21 16 1 27 -1 25 -4
-3 -2 0 -10 6 -17 7 -8 7 -14 -1 -19 -7 -4 -7 -12 0 -25 8 -16 15 -18 35 -10
14 5 27 5 30 0 3 -4 21 -7 40 -6 22 2 32 -1 28 -7 -4 -6 0 -8 11 -4 13 5 15 3
7 -12 -6 -10 -18 -24 -28 -31 -10 -8 -15 -10 -10 -5 4 4 -1 18 -10 29 -15 17
-15 19 -1 8 9 -8 19 -9 22 -4 7 12 -22 25 -35 16 -5 -3 -5 -13 1 -24 7 -13 6
-20 -3 -23 -13 -6 -8 -7 48 -12 17 -1 32 -4 35 -5 3 -2 16 -4 30 -5 14 -1 30
-3 36 -4 7 0 11 -16 10 -33 -1 -31 1 -33 37 -35 21 0 44 -6 51 -12 9 -8 16 -8
20 -2 4 5 16 8 28 6 22 -5 38 -15 22 -15 -5 0 -10 -11 -10 -24 -2 -29 22 -42
44 -24 10 8 13 9 9 2 -9 -15 7 -20 65 -19 25 0 45 -2 42 -4 -2 -2 2 -11 9 -19
10 -13 9 -14 -2 -7 -11 6 -13 4 -8 -8 3 -9 2 -19 -4 -23 -13 -8 -41 15 -33 28
3 5 11 2 18 -7 10 -15 12 -14 12 3 0 15 -6 19 -24 16 -13 -3 -21 -1 -18 4 3 5
-1 9 -7 9 -7 0 -14 -10 -15 -21 -1 -15 1 -17 7 -7 7 11 9 11 13 0 3 -8 -2 -19
-10 -25 -10 -8 -4 -10 27 -9 23 1 41 -3 41 -8 0 -6 5 -6 13 -1 15 11 38 11 55
1 6 -5 18 -5 25 -1 9 6 9 4 1 -7 -5 -8 -10 -25 -10 -39 1 -27 5 -28 100 -33
28 -1 51 -8 54 -15 2 -6 8 -12 13 -12 6 0 7 6 3 13 -4 6 -3 8 1 4 12 -10 15
-38 4 -31 -17 10 -31 -7 -18 -22 6 -7 15 -12 19 -9 5 3 12 0 16 -6 5 -8 9 -8
14 1 5 9 13 9 27 1 11 -6 34 -9 50 -7 27 4 30 1 27 -20 -1 -13 2 -26 7 -30 5
-3 7 -9 4 -14 -3 -4 2 -10 10 -14 8 -3 15 -2 15 3 0 13 48 0 54 -15 3 -8 0
-14 -7 -14 -7 -1 -1 -7 13 -15 22 -13 21 -20 -3 -16 -5 1 -6 -3 -3 -8 3 -5 24
-8 46 -6 22 2 40 -1 40 -6 0 -6 8 -6 19 1 14 7 22 7 26 0 4 -6 10 -8 15 -5 16
10 22 -15 8 -32 -10 -14 -10 -15 0 -9 9 6 12 3 10 -10 -3 -21 24 -27 56 -11
10 5 16 5 13 0 -3 -5 3 -15 15 -22 11 -7 18 -8 14 -3 -3 5 9 9 27 10 31 1 31
0 12 -15 -19 -15 -19 -15 4 -8 16 5 21 4 17 -4 -13 -20 4 -53 25 -48 11 3 19
0 19 -6 0 -8 4 -7 9 2 7 11 13 8 31 -12 13 -15 27 -24 31 -22 4 3 10 -4 14
-14 4 -13 11 -18 22 -14 10 4 14 2 10 -4 -9 -14 18 -24 30 -12 5 5 20 2 37 -6
35 -18 39 -19 29 -3 -4 7 6 5 21 -6 26 -16 28 -17 23 -2 -4 10 -3 15 3 11 6
-4 8 -18 6 -32 -6 -31 -12 -38 -21 -24 -3 6 -1 11 5 11 6 0 8 5 5 10 -4 6 -14
1 -25 -12 l-19 -23 4 22 c3 18 -1 23 -18 23 -17 0 -19 -2 -8 -9 8 -5 11 -15 8
-23 -4 -11 4 -14 36 -12 22 1 51 -2 63 -6 13 -5 24 -5 26 0 2 5 12 2 23 -6 16
-12 17 -16 6 -23 -10 -6 -10 -10 -1 -16 6 -4 9 -13 6 -21 -6 -17 24 -16 36 1
5 6 8 4 8 -5 0 -11 11 -16 38 -17 84 -2 85 -2 74 -16 -21 -25 -3 -55 35 -59
19 -2 36 -1 39 3 3 5 23 6 45 4 32 -3 40 -1 36 10 -3 7 -1 16 6 19 9 3 8 5 -1
5 -7 1 -11 5 -8 10 3 4 -10 7 -29 5 -19 -1 -37 2 -41 7 -3 5 5 9 18 10 93 4
129 7 134 12 10 10 11 57 2 57 -5 0 -7 4 -4 8 3 4 23 7 45 6 23 -1 41 2 41 5
0 4 18 6 41 4 32 -1 40 1 35 12 -3 8 -1 17 5 21 6 4 6 11 -2 20 -6 8 -8 15 -3
15 5 1 23 2 39 4 17 1 32 3 35 4 3 2 22 4 42 6 26 2 36 -1 32 -9 -4 -6 2 -3
12 7 12 11 15 20 9 25 -6 4 -12 18 -12 31 -1 13 1 21 4 17 3 -3 15 -1 26 5 12
7 17 7 13 1 -3 -6 5 -9 19 -8 14 0 25 4 25 8 0 4 9 5 19 3 47 -9 73 17 44 46
-8 8 -13 7 -18 -2 -6 -8 -4 -10 5 -4 9 5 11 4 6 -3 -10 -17 -29 -15 -23 2 4
10 1 13 -9 9 -12 -4 -12 -8 -2 -21 11 -13 11 -14 -1 -7 -10 6 -12 4 -6 -5 5
-9 4 -11 -4 -6 -6 4 -9 11 -6 16 3 4 -1 11 -7 13 -10 4 -10 6 0 6 7 1 10 6 7
11 -3 6 -3 10 2 11 43 5 61 5 57 -3 -3 -4 0 -8 5 -8 6 0 11 4 11 9 0 4 12 8
28 9 50 0 54 2 48 17 -3 9 0 15 9 15 8 0 15 5 15 11 0 5 -4 7 -10 4 -5 -3 -10
1 -10 9 0 9 6 16 13 17 6 1 29 3 50 4 22 2 41 6 44 9 3 2 15 1 28 -4 17 -7 25
-5 29 6 3 9 1 12 -4 9 -6 -3 -10 -2 -10 4 0 5 6 12 13 14 9 4 8 8 -3 16 -20
14 -6 24 38 27 20 1 37 3 37 4 0 1 20 4 45 5 57 3 55 2 40 20 -10 12 -10 15 1
15 11 0 11 2 2 8 -10 6 -10 12 2 28 8 10 15 14 15 8 0 -6 10 -10 23 -8 12 1
25 3 30 3 4 1 7 9 7 19 0 14 2 15 10 2 11 -17 67 -21 67 -4 0 7 -7 10 -16 6
-13 -4 -13 -2 2 15 9 11 14 23 10 26 -9 9 -34 -13 -27 -24 3 -5 -5 -7 -18 -5
-13 3 -27 5 -31 5 -5 1 -6 5 -2 11 3 5 12 7 20 3 10 -3 14 0 12 8 -2 8 -2 11
0 6 3 -4 10 -4 16 0 6 4 28 8 48 9 21 1 42 5 48 9 6 3 11 1 11 -6 0 -10 3 -10
12 -1 8 8 8 15 0 25 -9 10 -9 16 0 25 9 9 9 12 -2 12 -24 0 -1 13 29 16 29 4
34 -7 18 -32 -4 -7 -1 -14 7 -17 9 -4 12 2 10 20 -2 23 7 32 38 37 7 1 19 6
27 10 10 6 12 5 7 -2 -4 -7 -1 -12 7 -12 21 0 28 12 16 26 -7 8 -7 14 1 19 8
5 8 10 0 20 -8 10 -3 13 22 13 104 2 133 8 133 27 -1 11 4 24 10 28 6 5 4 7
-5 4 -8 -2 -14 -10 -13 -16 4 -17 -8 -13 -24 7 -13 16 -13 16 -11 -3 2 -11 7
-23 12 -27 5 -3 -2 -5 -16 -5 -13 1 -25 7 -25 14 0 6 7 9 16 5 12 -4 12 0 -3
17 -19 21 -19 21 -1 15 11 -4 16 -3 12 2 -3 5 3 10 13 10 12 0 16 -5 12 -15
-4 -11 3 -9 21 6 22 17 34 20 57 13 35 -10 48 3 28 27 -10 14 -10 15 0 9 9 -5
13 -3 11 5 -3 24 1 39 10 39 4 0 7 -17 5 -37 -2 -25 0 -32 7 -23 8 14 13 6 10
-15 -1 -5 5 -3 15 7 18 18 12 38 -12 38 -18 0 -14 22 6 28 7 3 10 0 6 -6 -3
-5 1 -12 9 -15 10 -4 12 -1 8 10 -5 13 2 15 40 12 36 -3 48 0 57 15 7 11 8 16
1 11 -6 -3 -11 -3 -12 2 0 4 -2 16 -4 26 -2 9 2 18 8 18 54 7 87 10 118 11 35
1 36 2 26 29 -9 22 -14 26 -32 19 -15 -6 -22 -4 -22 4 0 6 12 11 26 10 14 -1
31 2 36 6 6 4 21 7 35 6 53 -5 55 2 54 141 -1 80 3 133 10 142 8 11 8 13 0 8
-14 -8 -14 291 0 312 6 9 5 12 -1 8 -12 -8 -12 213 1 232 6 9 5 12 -1 8 -12
-8 -12 212 1 232 6 9 5 12 -1 8 -12 -8 -12 213 1 232 6 9 5 12 -1 8 -12 -8
-12 212 1 232 6 9 5 12 -1 8 -13 -8 -12 292 1 312 6 9 5 12 -1 8 -12 -8 -12
213 1 232 6 9 5 12 -1 8 -12 -8 -12 212 1 232 6 9 5 12 -2 7 -7 -4 -10 13 -9
52 2 63 3 62 -64 65 -14 0 -26 7 -26 14 0 7 4 13 8 13 4 0 6 8 4 18 -2 9 -4
21 -4 26 -1 15 -16 -4 -16 -21 0 -9 -8 -17 -18 -19 -9 -1 -15 2 -11 7 3 5 9 7
14 4 5 -3 8 4 7 15 -2 25 -6 25 -23 3 -13 -17 -14 -17 -7 1 5 15 3 18 -10 13
-9 -3 -19 -2 -22 3 -3 5 -15 7 -28 4 -30 -5 -54 3 -54 21 0 20 7 19 24 -2 12
-16 13 -15 1 7 -7 14 -11 28 -10 33 1 4 -2 7 -8 7 -19 0 -25 2 -37 12 -9 7
-13 7 -13 -1 0 -8 -6 -9 -17 -3 -10 5 -36 8 -57 6 -22 -1 -35 1 -28 4 7 5 8
13 2 22 -5 8 -5 21 0 30 7 14 3 16 -26 15 -20 0 -38 3 -41 8 -3 5 -9 3 -14 -4
-7 -11 -9 -11 -9 -1 0 7 -5 10 -11 7 -5 -4 -19 1 -29 10 -11 10 -24 14 -32 9
-11 -6 -11 -5 0 8 9 11 10 18 2 23 -6 3 -7 11 -4 17 4 6 -4 9 -17 8 -45 -4
-57 0 -74 26 -9 15 -12 24 -7 20 6 -3 13 -2 17 4 4 6 11 7 17 4 7 -4 8 -2 4 4
-4 6 -13 9 -21 5 -8 -3 -15 -1 -15 4 0 11 -39 11 -56 1 -6 -4 -22 4 -34 17
-15 16 -19 25 -10 25 7 0 11 2 8 5 -3 3 -13 3 -22 -1 -15 -6 -15 -7 1 -20 17
-12 16 -13 -4 -11 -21 1 -25 5 -22 23 0 4 -5 11 -13 16 -9 7 -7 8 9 5 15 -3
20 -1 16 9 -3 7 -8 13 -11 12 -4 -1 -16 3 -28 9 -11 7 -26 8 -34 3 -7 -4 -23
-5 -34 -1 -12 4 -32 7 -46 6 -24 -2 -26 1 -24 37 1 21 -1 36 -5 34 -4 -3 -13
-1 -21 4 -8 5 -21 5 -31 0 -12 -7 -21 -5 -30 6 -10 12 -14 12 -20 2 -6 -8 -9
-9 -9 -2 0 6 8 18 17 25 14 12 16 12 8 0 -5 -9 -4 -12 3 -7 7 4 8 15 3 29 -8
22 -13 23 -132 29 -21 1 -36 7 -36 15 0 7 4 13 9 13 5 0 4 8 -1 19 -6 10 -7
22 -3 26 4 4 -2 5 -13 3 -11 -1 -23 -7 -27 -13 -5 -6 -8 -5 -8 3 0 7 -4 11 -9
7 -5 -3 -12 -1 -16 5 -4 6 -11 7 -17 4 -7 -4 -8 -2 -4 4 6 11 0 14 -20 11 -4
0 -11 5 -16 13 -8 10 -9 10 -5 -2 2 -8 10 -14 16 -13 6 2 11 -1 11 -6 0 -5
-10 -8 -23 -8 -17 0 -22 5 -22 27 -1 21 3 26 15 22 12 -4 12 -2 3 8 -10 11
-34 16 -105 23 -16 1 -16 4 -3 24 9 14 11 24 5 28 -6 4 -8 9 -6 13 2 4 -24 8
-57 9 -86 2 -100 6 -104 32 -2 14 1 20 8 15 8 -5 8 -1 0 13 -8 16 -19 20 -51
17 -22 -2 -40 1 -40 6 0 4 -14 6 -31 3 -34 -5 -58 15 -36 29 9 6 8 10 -3 18
-13 9 -13 10 0 10 13 0 13 1 0 10 -9 6 -17 5 -22 -3 -6 -9 -8 -9 -8 0 0 6 -8
12 -17 13 -10 0 -41 1 -70 2 -28 1 -50 6 -47 10 3 5 11 5 17 1 7 -4 5 1 -3 12
-8 10 -14 20 -12 22 9 12 0 34 -12 30 -8 -3 -17 -1 -20 6 -3 9 -5 9 -5 0 -1
-15 -43 -4 -58 16 -6 9 -9 19 -7 23 10 16 -17 7 -36 -12 -11 -11 -20 -15 -20
-10 0 6 0 12 0 15 0 3 2 5 6 4 3 0 16 7 30 15 23 16 29 12 26 -16 -1 -3 5 -9
14 -12 11 -4 12 -2 6 12 -5 9 -8 22 -5 28 2 6 -9 10 -26 10 -17 0 -28 -3 -25
-8 3 -4 0 -8 -5 -8 -6 0 -11 4 -11 9 0 5 -22 9 -50 9 -27 1 -50 -4 -50 -9z
m138 -52 c8 -10 6 -13 -7 -13 -11 0 -17 6 -14 13 3 7 6 13 8 13 1 0 7 -6 13
-13z m-238 -53 c0 -8 -19 -13 -24 -6 -3 5 1 9 9 9 8 0 15 -2 15 -3z m-145 -74
c3 0 3 5 -1 12 -5 7 -3 8 5 4 9 -6 8 -12 -4 -26 -9 -10 -14 -24 -10 -29 4 -7
-3 -7 -20 1 -17 8 -22 15 -15 22 17 17 11 29 -7 15 -16 -13 -17 -12 -4 3 10
13 18 15 31 8 10 -6 21 -10 25 -10z m746 -93 c-10 -9 -11 -8 -5 6 3 10 9 15
12 12 3 -3 0 -11 -7 -18z m16 -22 c0 -8 -4 -12 -9 -9 -5 3 -6 10 -3 15 9 13
12 11 12 -6z m197 -66 c-9 -10 -21 -16 -25 -13 -5 3 -9 0 -9 -6 0 -6 -4 -8
-10 -5 -15 9 -12 19 11 44 17 18 24 20 35 10 13 -10 12 -14 -2 -30z m-1354
-61 c10 -20 10 -21 -3 -6 -13 16 -15 16 -32 0 -19 -17 -19 -17 -1 6 11 12 20
22 22 22 2 0 8 -10 14 -22z m-5 -27 c3 -5 2 -12 -3 -15 -5 -3 -9 1 -9 9 0 17
3 19 12 6z m-179 -45 c19 -15 19 -15 -1 -30 -24 -17 -52 -2 -35 19 5 6 7 15 3
18 -12 13 13 7 33 -7z m28 -44 c2 -4 -4 -8 -14 -8 -10 0 -16 4 -14 8 3 4 9 8
14 8 5 0 11 -4 14 -8z m1876 -32 c0 -5 -5 -10 -11 -10 -5 0 -7 5 -4 10 3 6 8
10 11 10 2 0 4 -4 4 -10z m10 -37 c-11 -17 -11 -17 -6 0 3 10 6 24 7 30 0 9 2
9 5 0 3 -7 0 -20 -6 -30z m410 -223 c0 -5 -2 -10 -4 -10 -3 0 -8 5 -11 10 -3
6 -1 10 4 10 6 0 11 -4 11 -10z m-1977 -84 c4 -10 1 -13 -9 -9 -15 6 -19 23
-5 23 5 0 11 -7 14 -14z m-34 -15 c10 -7 7 -9 -12 -8 -14 1 -23 5 -20 10 6 9
15 9 32 -2z m146 -41 c3 -5 1 -10 -4 -10 -6 0 -11 5 -11 10 0 6 2 10 4 10 3 0
8 -4 11 -10z m195 -94 c0 -2 -8 -10 -17 -17 -16 -13 -17 -12 -4 4 13 16 21 21
21 13z m235 -144 c-3 -3 -11 0 -18 7 -9 10 -8 11 6 5 10 -3 15 -9 12 -12z m14
-15 c-2 -1 -13 -9 -24 -17 -19 -14 -19 -14 -6 3 7 9 18 17 24 17 6 0 8 -1 6
-3z m561 -311 c0 -2 -8 -10 -17 -17 -16 -13 -17 -12 -4 4 13 16 21 21 21 13z
m229 -199 c0 -9 -2 -8 -6 1 -2 6 -10 9 -15 6 -7 -4 -8 -2 -4 5 9 13 26 5 25
-12z m135 -32 c-4 -8 -1 -15 5 -15 6 0 11 6 11 13 0 6 5 4 11 -5 11 -21 -3
-59 -15 -39 -4 6 -2 11 3 11 6 0 11 5 11 11 0 5 -4 8 -9 5 -5 -4 -16 -3 -25 0
-13 5 -14 9 -5 20 15 18 20 18 13 -1z m-6 -50 c-3 -3 -9 2 -12 12 -6 14 -5 15
5 6 7 -7 10 -15 7 -18z m119 -22 c-4 -3 -1 -13 5 -22 7 -9 8 -13 4 -9 -5 4
-22 -2 -37 -13 -16 -11 -29 -16 -29 -10 0 6 5 11 10 11 6 0 10 7 10 15 0 7 8
19 18 24 20 12 28 14 19 4z m-3084 -590 c22 14 27 14 37 2 11 -13 9 -15 -11
-13 -17 2 -23 -2 -21 -13 1 -9 -4 -16 -13 -16 -8 0 -12 4 -10 8 8 12 -28 20
-39 9 -5 -5 -14 -10 -20 -10 -5 0 -1 6 9 14 12 9 16 19 11 32 -4 14 -1 13 13
-5 18 -24 20 -24 44 -8z m-68 -3 c-3 -5 -12 -10 -18 -10 -7 0 -6 4 3 10 19 12
23 12 15 0z m45 -76 c0 -8 -19 -13 -24 -6 -3 5 1 9 9 9 8 0 15 -2 15 -3z m0
-48 c0 -2 -7 -7 -16 -10 -8 -3 -12 -2 -9 4 6 10 25 14 25 6z m310 -16 c0 -5
-5 -10 -11 -10 -5 0 -7 5 -4 10 3 6 8 10 11 10 2 0 4 -4 4 -10z m-42 -31 c-3
-8 -7 -3 -11 10 -4 17 -3 21 5 13 5 -5 8 -16 6 -23z m-301 6 c0 -8 -6 -16 -13
-19 -7 -3 -10 2 -7 15 6 22 20 26 20 4z m-20 -77 c2 -17 0 -19 -7 -8 -5 8 -6
18 -4 22 8 12 10 10 11 -14z m53 6 c0 -8 -19 -13 -24 -6 -3 5 1 9 9 9 8 0 15
-2 15 -3z m-50 -44 c0 -5 -5 -10 -11 -10 -5 0 -7 5 -4 10 3 6 8 10 11 10 2 0
4 -4 4 -10z m36 -39 c0 -12 -6 -17 -18 -13 -10 2 -18 9 -18 14 0 5 4 7 9 3 5
-3 12 -1 16 5 9 14 11 13 11 -9z m614 -8 c0 -2 -8 -11 -19 -22 -18 -18 -18
-18 -18 3 0 15 6 22 18 22 11 0 19 -2 19 -3z m-627 -82 c3 -13 0 -18 -7 -15
-7 3 -13 11 -13 19 0 22 14 18 20 -4z m692 -10 c3 -5 2 -12 -3 -15 -5 -3 -9 1
-9 9 0 17 3 19 12 6z m-715 -21 c0 -5 -5 -10 -11 -10 -5 0 -7 5 -4 10 3 6 8
10 11 10 2 0 4 -4 4 -10z m-3 -42 c2 -17 0 -19 -7 -8 -5 8 -6 18 -4 22 8 12
10 10 11 -14z m909 -1 c-1 -18 -7 -23 -31 -23 -16 -1 -24 1 -17 3 6 3 9 10 5
16 -4 7 2 5 12 -3 17 -14 18 -13 12 3 -4 11 -3 16 3 12 6 -3 10 -1 10 4 0 6 2
11 4 11 2 0 3 -10 2 -23z m2254 -101 c0 -3 -4 -8 -10 -11 -5 -3 -10 -1 -10 4
0 6 5 11 10 11 6 0 10 -2 10 -4z m-3155 -16 c-3 -5 -12 -10 -18 -10 -7 0 -6 4
3 10 19 12 23 12 15 0z m31 -39 c0 -12 -6 -17 -18 -13 -10 2 -18 9 -18 14 0 5
4 7 9 3 5 -3 12 -1 16 5 9 14 11 13 11 -9z m3029 -14 c14 -11 15 -16 5 -22 -9
-6 -11 -4 -5 5 6 10 4 12 -9 7 -9 -4 -15 -3 -11 2 3 5 -1 12 -7 14 -7 3 -8 6
-2 6 5 1 18 -5 29 -12z m-3042 -76 c3 -13 0 -18 -7 -15 -7 3 -13 11 -13 19 0
22 14 18 20 -4z m-23 -31 c0 -5 -5 -10 -11 -10 -5 0 -7 5 -4 10 3 6 8 10 11
10 2 0 4 -4 4 -10z m1440 -14 c0 -2 -8 -10 -17 -17 -16 -13 -17 -12 -4 4 13
16 21 21 21 13z m-1443 -28 c2 -17 0 -19 -7 -8 -5 8 -6 18 -4 22 8 12 10 10
11 -14z m2783 18 c0 -11 -19 -15 -25 -6 -3 5 1 10 9 10 9 0 16 -2 16 -4z
m-1306 -38 c-3 -5 -12 -2 -20 6 -20 21 -17 28 5 14 11 -7 17 -16 15 -20z
m-1460 -96 c3 -5 -1 -9 -9 -9 -8 0 -12 4 -9 9 3 4 7 8 9 8 2 0 6 -4 9 -8z m30
-40 c3 -5 -1 -9 -9 -9 -8 0 -12 4 -9 9 3 4 7 8 9 8 2 0 6 -4 9 -8z m2437 -29
c13 -16 12 -17 -3 -4 -17 13 -22 21 -14 21 2 0 10 -8 17 -17z m-2465 -13 c0
-12 -4 -16 -9 -11 -5 5 -6 14 -3 20 10 15 12 14 12 -9z m-19 -42 c2 -17 0 -19
-7 -8 -5 8 -6 18 -4 22 8 12 10 10 11 -14z m1833 7 c-6 -8 -8 -20 -4 -27 5
-10 4 -10 -6 -1 -11 10 -11 15 0 28 7 8 15 15 17 15 3 0 0 -7 -7 -15z m528
-13 c12 -18 12 -22 1 -23 -8 -1 -24 -3 -36 -4 -19 -2 -21 1 -12 17 5 10 7 22
4 27 -12 20 30 3 43 -17z m-2308 12 c0 -8 -19 -13 -24 -6 -3 5 1 9 9 9 8 0 15
-2 15 -3z m-33 -81 c-4 -3 -3 -11 3 -17 6 -8 3 -12 -9 -12 -12 0 -17 6 -13 18
2 10 9 18 15 18 6 0 7 -3 4 -7z m3 -103 c0 -5 -4 -10 -10 -10 -5 0 -10 5 -10
10 0 6 5 10 10 10 6 0 10 -4 10 -10z m4074 -68 c3 -5 -1 -9 -9 -9 -8 0 -12 4
-9 9 3 4 7 8 9 8 2 0 6 -4 9 -8z m-179 -92 c3 -5 1 -10 -4 -10 -6 0 -11 5 -11
10 0 6 2 10 4 10 3 0 8 -4 11 -10z m49 2 c3 -5 -1 -9 -9 -9 -8 0 -12 4 -9 9 3
4 7 8 9 8 2 0 6 -4 9 -8z m-3547 -69 c0 -10 -3 -10 -16 0 -12 10 -14 9 -7 -8
5 -15 4 -17 -5 -8 -6 6 -9 15 -6 20 9 14 34 11 34 -4z m3453 -3 c0 -5 -2 -10
-4 -10 -3 0 -8 5 -11 10 -3 6 -1 10 4 10 6 0 11 -4 11 -10z m-335 -140 c10
-11 16 -20 13 -20 -3 0 -13 9 -23 20 -10 11 -16 20 -13 20 3 0 13 -9 23 -20z
m-2710 -69 c-3 -6 -11 -8 -17 -5 -7 5 -9 2 -6 -8 4 -8 2 -21 -3 -29 -5 -8 -9
-9 -10 -4 0 6 -2 18 -4 28 -3 15 6 22 28 18 4 0 7 4 7 11 0 6 3 9 6 5 3 -3 3
-11 -1 -16z m21 -15 c0 -13 -5 -22 -10 -18 -5 3 -7 -2 -3 -11 4 -11 2 -14 -8
-11 -11 5 -10 11 3 35 10 16 18 29 18 29 1 0 1 -11 0 -24z m148 -96 c-6 -6
-10 -3 -10 10 0 13 4 16 10 10 7 -7 7 -13 0 -20z m2120 -42 c-12 -20 -12 -49
0 -45 6 2 10 11 8 20 -1 9 8 21 20 27 21 10 21 10 6 -3 -21 -17 -23 -28 -5
-23 6 1 8 1 4 -2 -4 -2 0 -11 10 -19 17 -13 17 -13 -3 -4 -14 7 -24 7 -32 -1
-14 -14 -29 -3 -27 19 1 20 13 43 21 43 3 0 2 -6 -2 -12z m-1875 -84 c4 -5 5
-20 0 -34 -6 -23 -9 -20 -13 12 0 6 -8 13 -16 15 -9 3 -11 1 -5 -4 14 -11 18
-43 5 -43 -5 0 -9 3 -9 8 3 19 -2 33 -10 28 -7 -5 -8 23 -2 30 5 5 43 -4 50
-12z m1741 -2 c0 -5 -7 -9 -15 -9 -8 0 -12 4 -9 9 3 4 9 8 15 8 5 0 9 -4 9 -8z
m-1617 -87 c-3 -9 -8 -14 -10 -11 -3 3 -2 9 2 15 9 16 15 13 8 -4z m31 -11 c3
-8 2 -12 -4 -9 -6 3 -10 1 -10 -6 0 -7 -2 -10 -5 -7 -5 5 4 38 10 38 2 0 6 -7
9 -16z m161 -64 c3 -5 1 -10 -4 -10 -6 0 -11 5 -11 10 0 6 2 10 4 10 3 0 8 -4
11 -10z m1195 -35 c-7 -8 -17 -15 -23 -15 -6 0 -2 7 9 15 25 19 30 19 14 0z
m-1098 -39 c8 -12 -1 -36 -14 -36 -7 0 -6 5 1 13 8 11 6 13 -12 12 -28 -3 -43
5 -27 15 16 10 43 7 52 -4z m931 1 c4 3 7 1 7 -5 0 -6 -9 -13 -19 -17 -14 -4
-18 -12 -14 -23 5 -14 4 -15 -8 -4 -12 11 -11 15 3 26 10 7 15 16 11 19 -3 4
-13 1 -22 -6 -14 -11 -14 -10 -2 6 9 12 17 14 26 7 6 -5 15 -7 18 -3z m-639
-163 c3 -8 2 -12 -4 -9 -6 3 -10 10 -10 16 0 14 7 11 14 -7z m-19 -24 c3 -5 1
-10 -4 -10 -6 0 -11 5 -11 10 0 6 2 10 4 10 3 0 8 -4 11 -10z m40 0 c-3 -5
-12 -10 -18 -10 -7 0 -6 4 3 10 19 12 23 12 15 0z m155 -60 c0 -5 -5 -10 -11
-10 -5 0 -7 5 -4 10 3 6 8 10 11 10 2 0 4 -4 4 -10z m72 -25 c2 3 5 -1 5 -8 0
-18 -43 -16 -59 2 -9 9 -9 12 -1 7 6 -3 15 -2 18 4 5 8 11 8 19 1 7 -6 15 -9
18 -6z"/>
<path d="M3877 5723 c-4 -3 -7 -11 -7 -17 0 -6 5 -5 12 2 6 6 9 14 7 17 -3 3
-9 2 -12 -2z"/>
<path d="M4835 5561 c-15 -17 -15 -19 -1 -17 22 3 40 22 28 30 -5 3 -17 -3
-27 -13z"/>
<path d="M3295 5401 c-10 -17 12 -21 25 -6 10 12 10 15 -3 15 -9 0 -18 -4 -22
-9z"/>
<path d="M5240 4049 c0 -5 5 -7 10 -4 6 3 10 8 10 11 0 2 -4 4 -10 4 -5 0 -10
-5 -10 -11z"/>
<path d="M4443 2438 c3 -9 1 -19 -6 -22 -9 -3 -9 -5 0 -5 18 -1 23 13 11 29
-8 12 -9 12 -5 -2z"/>
<path d="M4266 1072 c-3 -5 1 -9 9 -9 8 0 12 4 9 9 -3 4 -7 8 -9 8 -2 0 -6 -4
-9 -8z"/>
<path d="M4130 5880 c0 -5 5 -10 10 -10 6 0 10 5 10 10 0 6 -4 10 -10 10 -5 0
-10 -4 -10 -10z"/>
<path d="M4410 5817 c0 -5 7 -6 16 -3 8 3 24 1 34 -4 15 -8 18 -7 14 3 -5 15
-64 19 -64 4z"/>
<path d="M4430 5794 c0 -10 6 -14 15 -10 8 3 15 0 15 -6 0 -6 3 -8 6 -5 8 8
-14 37 -27 37 -5 0 -9 -7 -9 -16z"/>
<path d="M4600 5725 c0 -2 6 -8 13 -14 10 -8 14 -7 14 2 0 8 -6 14 -14 14 -7
0 -13 -1 -13 -2z"/>
<path d="M3697 5668 c-14 -11 -14 -16 -3 -37 11 -20 14 -21 19 -7 4 10 3 15
-2 12 -5 -3 -11 1 -15 9 -6 18 -1 19 25 4 19 -10 19 -9 9 10 -13 25 -12 24
-33 9z"/>
<path d="M3725 5620 c-3 -6 1 -7 9 -4 18 7 21 14 7 14 -6 0 -13 -4 -16 -10z"/>
<path d="M5009 5493 c-10 -11 -10 -14 -1 -9 6 4 12 2 12 -3 0 -6 5 -11 11 -11
8 0 8 4 0 14 -9 11 -9 15 1 19 8 3 8 6 2 6 -6 1 -18 -7 -25 -16z"/>
<path d="M2005 5327 c1 -23 7 -31 23 -33 11 -2 24 1 27 6 3 5 -1 7 -9 4 -8 -3
-19 3 -25 14 -8 15 -7 21 4 26 8 3 17 1 20 -4 4 -6 1 -10 -5 -10 -6 0 -8 -5
-4 -11 5 -8 9 -8 14 1 6 9 9 9 13 -1 3 -8 6 -9 6 -3 1 15 -26 38 -48 39 -13 1
-17 -6 -16 -28z"/>
<path d="M2067 5343 c3 -7 10 -13 16 -13 5 0 2 -10 -9 -22 -10 -12 -14 -18 -7
-15 6 4 14 3 17 -1 3 -5 -17 -8 -44 -7 -27 1 -48 -1 -45 -5 2 -4 -18 -6 -45
-4 -27 2 -52 -1 -55 -6 -3 -6 0 -7 7 -5 9 4 14 -3 16 -20 1 -14 -4 -25 -11
-26 -6 0 -3 -5 8 -10 15 -7 9 -8 -23 -5 -23 2 -40 1 -37 -4 2 -4 -7 -6 -21 -4
-18 2 -24 -2 -20 -11 3 -9 0 -12 -9 -8 -8 3 -12 9 -9 14 4 8 -6 7 -45 0 -2 -1
2 -8 9 -16 7 -8 15 -13 19 -11 4 3 13 0 21 -6 12 -8 12 -9 -2 -5 -9 3 -19 1
-22 -6 -3 -9 -5 -9 -5 1 -1 6 -6 12 -11 12 -7 0 -7 -7 1 -21 7 -13 7 -19 1
-15 -6 3 -13 2 -17 -4 -4 -7 -12 -7 -25 0 -11 6 -21 6 -24 1 -3 -5 -26 -8 -50
-7 -36 1 -43 -1 -34 -11 8 -10 14 -10 23 -3 10 8 15 6 20 -11 6 -17 9 -19 17
-8 8 12 9 11 5 -1 -2 -9 -13 -14 -28 -12 -22 3 -23 2 -6 -10 16 -12 15 -13
-10 -14 -16 -1 -40 -4 -55 -7 -15 -3 -30 -1 -34 4 -3 5 -14 -1 -24 -13 -15
-19 -20 -20 -34 -9 -9 7 -16 10 -16 5 0 -5 -5 -2 -10 6 -6 9 -10 10 -10 3 0
-11 18 -28 32 -28 12 0 21 -15 9 -15 -7 0 -9 -5 -5 -11 4 -8 11 -4 19 11 12
23 22 18 21 -10 -1 -11 -13 -15 -44 -15 -31 0 -42 -4 -42 -15 0 -9 -3 -11 -8
-4 -10 15 -79 13 -79 -3 0 -7 4 -13 8 -13 4 0 6 -11 5 -25 -1 -27 -11 -33 -19
-12 -4 9 -6 8 -6 -2 -1 -11 -6 -10 -23 5 -17 14 -19 15 -10 2 12 -15 10 -17
-15 -16 -39 1 -56 -5 -70 -22 -11 -13 -12 -13 -7 3 3 9 2 17 -3 17 -6 0 -9
-17 -9 -38 2 -43 3 -42 -96 -45 -31 -1 -54 -5 -52 -8 2 -4 -2 -10 -8 -12 -10
-4 -10 -6 0 -6 6 -1 12 -6 12 -12 0 -5 -5 -7 -11 -3 -7 4 -7 -1 1 -16 8 -15 8
-20 1 -16 -6 4 -11 4 -11 -1 0 -4 -23 -7 -50 -7 -28 1 -53 -3 -57 -9 -3 -5 -1
-7 5 -3 6 3 13 2 17 -4 3 -5 0 -10 -7 -10 -9 0 -9 -3 -2 -8 6 -4 13 -14 16
-22 5 -12 -3 -16 -33 -16 l-39 -1 22 26 c13 14 19 23 14 19 -5 -4 -14 0 -21 9
-9 13 -14 13 -20 3 -5 -9 -4 -11 3 -6 8 5 11 0 9 -12 -3 -23 -27 -55 -35 -47
-3 3 -12 -1 -20 -8 -13 -9 -14 -9 -8 1 5 8 0 12 -16 12 -18 0 -20 -2 -8 -10 9
-6 10 -10 3 -10 -6 0 -10 -8 -8 -18 6 -36 -1 -39 -112 -45 -28 -1 -55 -6 -60
-11 -4 -5 -3 -6 5 -2 13 8 12 -19 -2 -43 -6 -10 -4 -12 12 -7 11 4 23 3 25 -1
7 -10 -4 -12 -108 -16 -44 -1 -79 -7 -78 -12 10 -46 12 -49 29 -34 15 12 17
12 9 0 -5 -10 -4 -12 4 -7 6 4 9 11 6 16 -9 15 12 20 24 6 8 -10 9 -16 1 -21
-6 -3 -8 -10 -5 -14 6 -10 -48 -7 -64 3 -7 4 -10 2 -9 -5 2 -8 -10 -14 -32
-15 -65 -3 -64 -2 -49 -21 10 -11 10 -14 2 -9 -7 4 -13 3 -13 -3 0 -5 5 -13
12 -17 8 -5 6 -11 -6 -19 -19 -14 -56 -9 -56 9 0 6 -5 4 -10 -5 -6 -11 -22
-15 -50 -14 -29 1 -40 -2 -36 -10 2 -7 -1 -18 -7 -24 -8 -8 -6 -11 9 -12 10 0
13 -3 6 -6 -6 -2 -10 -8 -7 -13 3 -5 -6 -7 -20 -5 -14 1 -28 -2 -31 -7 -3 -5
-12 -4 -20 3 -11 9 -15 8 -20 -4 -3 -9 -3 -20 0 -26 4 -5 2 -12 -4 -16 -5 -3
-10 -11 -10 -17 0 -6 7 -5 18 3 15 13 16 12 3 -4 -10 -13 -17 -15 -27 -6 -12
10 -12 13 0 23 9 7 11 18 6 31 -5 11 -9 14 -9 7 -1 -10 -6 -10 -21 -2 -17 9
-20 8 -21 -12 -1 -13 0 -31 1 -42 1 -11 -3 -15 -9 -12 -6 4 -11 3 -11 -1 0
-10 -41 -10 -58 1 -9 6 -12 -273 -12 -1242 l0 -1249 40 3 c27 1 38 -1 33 -9
-4 -7 0 -8 11 -4 12 5 15 3 10 -5 -12 -18 -14 -59 -3 -53 5 4 17 2 26 -4 14
-7 21 -5 31 12 8 14 11 15 8 5 -3 -12 0 -18 9 -18 9 0 12 -6 9 -15 -4 -8 -1
-15 5 -15 6 0 10 5 8 11 -1 6 4 14 11 16 6 3 12 -1 12 -9 0 -10 2 -10 8 -1 6
10 12 10 28 -3 10 -8 13 -13 6 -9 -6 3 -12 3 -13 -2 0 -4 -2 -16 -4 -26 -2
-11 -1 -16 2 -13 3 3 12 -1 20 -9 10 -11 19 -12 33 -5 10 6 21 6 24 2 3 -5 24
-8 46 -7 22 1 38 0 35 -3 -3 -3 0 -11 6 -18 8 -9 5 -18 -11 -34 -21 -21 -21
-22 -2 -16 11 4 23 3 25 -1 3 -5 26 -8 51 -7 25 1 43 -3 40 -8 -3 -4 -9 -6
-13 -4 -10 6 -8 -35 2 -51 4 -6 16 -10 27 -8 11 2 20 -1 20 -7 0 -6 3 -9 6 -5
4 3 -3 18 -14 32 -12 16 -22 21 -24 13 -3 -8 -7 -8 -11 -2 -3 6 8 18 25 28 30
18 30 18 19 -2 -15 -29 -14 -40 2 -18 12 16 14 16 14 2 0 -9 -4 -16 -9 -16 -4
0 -3 -9 4 -19 9 -15 15 -17 25 -9 9 7 13 7 13 0 0 -6 6 -9 14 -6 8 3 23 1 33
-4 12 -7 25 -7 38 -1 19 10 19 10 1 -5 -10 -8 -22 -13 -27 -11 -4 3 -10 1 -14
-5 -3 -5 2 -10 12 -11 16 0 16 -1 -2 -8 -19 -8 -19 -8 0 -18 11 -5 32 -8 48
-7 15 2 27 -1 27 -6 0 -4 7 -11 16 -14 9 -3 12 -2 9 4 -4 7 4 9 20 6 15 -3 28
-6 29 -8 1 -2 8 -12 16 -22 13 -17 13 -18 1 -11 -11 6 -13 4 -8 -8 3 -9 1 -18
-6 -21 -7 -3 10 -5 38 -4 40 2 51 -1 53 -15 2 -9 8 -17 13 -17 5 0 9 -7 9 -16
0 -11 5 -14 16 -10 11 4 15 2 11 -7 -4 -10 2 -13 19 -11 13 1 24 -1 24 -6 0
-4 12 -6 27 -4 15 1 33 -2 40 -8 7 -6 13 -7 13 -3 0 4 8 1 17 -6 15 -12 16
-12 9 6 -5 15 -4 17 4 9 9 -9 9 -17 1 -32 -6 -10 -7 -22 -4 -26 3 -3 2 -6 -4
-6 -5 0 -15 12 -21 26 -7 14 -17 22 -23 19 -6 -5 -7 -11 0 -18 5 -7 10 -16 10
-22 1 -9 35 -15 114 -18 24 -1 37 -6 37 -15 0 -9 6 -12 18 -8 15 5 15 5 1 -6
-9 -7 -15 -21 -13 -31 3 -20 14 -36 14 -21 0 5 18 8 39 6 31 -3 39 -7 34 -20
-4 -15 -3 -15 10 0 11 14 16 15 27 5 10 -10 11 -9 5 2 -6 11 -4 11 10 3 21
-11 28 -63 8 -55 -7 3 -11 9 -8 13 3 5 1 11 -4 14 -5 4 -8 -1 -7 -10 4 -25 30
-35 100 -37 35 -1 62 -5 59 -10 -2 -4 0 -7 6 -7 5 0 11 3 14 8 2 4 3 2 1 -5
-1 -6 0 -14 4 -18 4 -4 7 -16 7 -28 0 -19 6 -21 52 -22 28 0 49 -4 45 -9 -3
-5 2 -6 12 -3 10 4 15 3 11 -3 -6 -9 7 -14 27 -11 4 0 5 -6 2 -14 -4 -8 -10
-15 -16 -15 -5 0 -7 4 -4 9 3 4 -6 13 -21 20 -20 9 -29 9 -37 0 -8 -9 -7 -10
3 -4 11 6 13 3 8 -16 -7 -26 -11 -25 119 -30 27 -1 31 -4 29 -28 -1 -17 -7
-25 -16 -23 -8 2 -10 0 -6 -5 5 -4 13 -9 18 -9 5 -1 10 -3 12 -4 3 -3 73 -11
119 -13 20 -1 35 -3 33 -6 -2 -2 0 -12 5 -22 7 -12 6 -20 -2 -25 -7 -5 -8 -3
-3 7 8 12 6 12 -8 0 -9 -7 -17 -19 -16 -25 0 -6 3 -6 6 2 4 10 9 10 27 -2 13
-8 28 -11 35 -6 7 4 22 5 32 3 14 -4 18 -13 15 -42 l-3 -37 108 0 c102 0 107
1 98 18 -6 11 -8 24 -6 31 2 7 11 -1 20 -18 9 -16 16 -25 17 -19 0 17 -26 47
-43 50 -13 2 -14 -3 -6 -23 12 -33 11 -37 -6 -23 -8 7 -12 17 -8 23 3 6 1 7
-5 3 -6 -4 -9 -14 -6 -24 5 -16 5 -16 -6 0 -25 39 27 69 71 42 8 -4 9 -3 5 4
-7 12 4 14 62 15 12 0 23 6 23 13 1 8 2 24 3 37 1 25 25 30 44 7 10 -13 11
-13 6 3 -7 19 12 24 19 5 4 -9 6 -7 6 3 1 13 10 16 41 13 45 -3 46 -2 24 31
-14 22 -14 24 3 33 10 6 33 9 51 8 17 -1 32 1 32 5 0 4 20 6 44 4 33 -1 43 1
42 12 -1 7 -6 13 -11 12 -4 0 -11 5 -15 11 -5 9 -9 9 -14 1 -4 -6 -2 -11 4
-11 6 0 8 -5 4 -11 -5 -8 -10 -6 -16 5 -5 9 -13 14 -17 12 -10 -7 -7 32 4 41
4 5 5 2 1 -5 -9 -14 10 -17 19 -2 4 6 11 8 16 4 5 -3 7 -10 4 -15 -4 -5 1 -9
9 -9 10 0 13 6 9 17 -5 13 -2 15 15 11 11 -3 23 -1 26 6 3 8 5 8 5 -1 1 -16
38 -4 46 15 3 8 0 19 -7 24 -11 6 -10 8 0 8 7 0 10 5 7 10 -3 6 -3 11 2 11 20
3 121 10 148 10 17 0 24 3 17 5 -6 3 -10 10 -6 15 3 5 1 9 -5 9 -6 0 -7 7 -4
17 5 12 3 14 -8 9 -8 -4 -6 -1 4 7 19 16 53 17 75 3 7 -4 14 -1 18 7 3 9 17
14 37 12 42 -2 49 2 37 25 -7 13 -6 20 3 24 6 3 3 4 -7 3 -10 -1 -20 4 -22 11
-1 7 0 8 3 2 3 -8 9 -7 19 1 8 7 17 9 21 6 3 -4 12 -2 19 4 8 7 14 7 19 -1 4
-6 13 -7 23 -2 9 5 31 8 48 8 19 -1 31 3 31 11 0 7 -5 13 -10 13 -5 0 -5 6 1
13 9 10 6 18 -9 30 -24 21 -43 13 -29 -12 7 -14 5 -23 -9 -35 -15 -13 -18 -14
-18 -1 0 8 4 12 9 9 4 -3 8 2 8 11 0 10 -5 13 -12 9 -7 -4 -8 -3 -4 4 4 7 2
12 -5 12 -7 0 -5 8 6 20 16 17 16 20 3 15 -21 -8 -18 22 3 36 15 10 17 9 -46
14 -16 2 -34 4 -40 5 -5 2 -25 3 -44 4 -37 1 -50 27 -28 55 9 12 9 13 0 7 -8
-4 -13 -2 -13 4 0 6 -4 9 -9 5 -5 -3 -13 -1 -16 5 -5 8 -11 8 -20 0 -9 -8 -17
-7 -27 4 -10 10 -19 11 -32 4 -10 -5 -20 -7 -23 -4 -4 3 -1 6 6 6 7 0 10 4 6
9 -3 6 -14 8 -25 6 -13 -3 -17 1 -13 12 5 12 7 12 14 1 7 -10 9 -9 9 4 0 10 7
16 19 15 16 -1 18 -5 10 -19 -11 -20 -2 -23 21 -8 9 6 10 10 3 10 -6 0 -10 9
-8 19 3 16 -1 19 -23 15 -15 -3 -33 -7 -40 -9 -7 -3 -11 -1 -8 4 3 5 -3 11
-14 14 -11 3 -20 1 -20 -4 0 -5 -10 -4 -22 2 -13 7 -24 12 -25 11 -10 -7 -14
0 -5 11 18 22 -2 50 -37 52 -23 1 -30 -2 -27 -12 9 -23 -3 -14 -18 15 -8 15
-15 22 -16 16 0 -14 -42 -13 -52 1 -14 18 -8 24 20 19 19 -3 23 -2 12 5 -8 5
-18 7 -22 5 -5 -3 -12 3 -16 13 -5 14 -17 18 -47 18 -39 0 -40 1 -41 38 -1 33
-14 69 -14 38 0 -8 -5 -9 -19 -1 -11 5 -27 7 -37 3 -12 -5 -15 -3 -9 6 5 10 3
11 -11 4 -29 -13 -50 -10 -75 12 -17 15 -21 16 -17 4 4 -9 1 -16 -7 -16 -7 0
-11 6 -8 14 3 9 0 11 -10 7 -8 -3 -18 -1 -22 5 -3 6 0 9 8 5 8 -3 20 2 27 11
7 8 18 15 24 15 7 0 6 -3 -2 -9 -10 -6 -10 -10 1 -20 12 -9 14 -7 14 16 -1 24
-6 28 -34 28 -17 0 -29 -3 -27 -7 3 -5 10 -5 16 -2 7 4 8 2 4 -4 -11 -18 -24
-14 -31 8 -5 17 -10 18 -27 9 -15 -8 -19 -8 -14 0 5 7 -1 10 -16 8 -17 -1 -23
3 -21 16 0 12 -4 16 -13 13 -7 -3 -16 0 -20 6 -4 6 -3 8 2 5 12 -7 41 9 33 18
-4 3 -33 8 -65 11 -99 8 -102 9 -111 18 -5 5 -3 6 5 2 13 -8 17 6 5 18 -4 4
-8 14 -8 23 0 9 -10 19 -23 24 -15 6 -21 5 -17 -1 4 -6 -2 -7 -17 -2 -13 5
-39 8 -58 7 -31 -1 -36 2 -36 22 0 13 4 23 9 23 5 0 6 -7 3 -16 -3 -8 -2 -12
4 -9 6 3 10 13 10 21 0 8 4 14 10 14 5 0 7 -8 4 -17 -5 -16 -4 -16 6 -3 10 13
11 12 6 -3 -4 -12 -2 -16 6 -11 7 5 8 3 3 -6 -5 -8 -4 -11 2 -7 11 7 11 36 0
53 -7 12 -36 12 -55 0 -7 -4 -12 -2 -12 5 0 6 -8 9 -20 6 -11 -3 -20 -2 -20 2
0 4 -12 6 -27 5 -23 -1 -28 3 -30 24 -1 19 1 22 9 11 7 -10 7 -7 3 10 -6 18
-4 22 6 16 8 -5 11 -4 6 1 -5 5 -23 10 -40 10 -18 1 -45 2 -60 3 -20 1 -26 5
-21 14 5 8 2 8 -9 -2 -9 -7 -17 -10 -17 -5 0 5 -5 2 -10 -6 -8 -11 -9 -9 -8
13 1 15 6 27 11 27 5 0 1 8 -9 17 -16 16 -32 20 -123 26 -30 2 -35 6 -36 29
-1 15 2 26 8 25 5 -1 11 4 12 11 2 7 1 8 -2 2 -2 -5 -10 -7 -16 -3 -7 4 -30 8
-52 8 -38 1 -40 3 -40 32 0 17 -3 35 -7 38 -4 4 -33 9 -65 11 -32 1 -64 3 -71
3 -7 1 -10 6 -7 11 3 6 -2 13 -11 17 -16 6 -16 7 -1 12 24 9 6 29 -32 36 -21
4 -30 2 -26 -5 14 -23 -4 -8 -21 17 -17 27 -17 28 1 13 17 -14 18 -13 9 5 -6
11 -9 57 -8 103 1 55 -2 82 -10 82 -8 0 -8 2 0 8 15 10 15 464 0 474 -8 6 -8
8 0 8 14 0 14 158 0 179 -6 10 -6 12 3 7 8 -5 11 2 9 23 -1 17 -7 31 -13 31
-6 0 -6 3 1 8 6 4 10 30 9 57 0 28 3 55 8 62 4 6 4 13 0 16 -12 8 -7 111 6
115 6 2 8 9 5 14 -5 7 -2 8 7 2 8 -5 25 -10 38 -12 18 -2 22 1 18 12 -4 9 -2
18 4 21 13 9 0 27 -14 19 -8 -5 -8 -3 0 6 7 8 30 15 50 16 55 3 55 3 47 16 -5
7 -3 8 6 3 18 -11 71 -14 64 -4 -3 5 0 9 7 9 10 0 10 3 2 11 -6 6 -9 19 -5 28
5 14 4 14 -11 -1 -19 -18 -23 -33 -7 -23 6 4 7 -1 3 -11 -5 -14 -8 -12 -20 10
-7 14 -19 26 -26 26 -7 0 -4 5 6 11 10 6 21 8 24 5 4 -3 1 -6 -6 -6 -7 0 -9
-5 -6 -10 5 -8 12 -7 22 2 9 7 37 14 62 16 78 5 79 5 73 22 -4 12 -1 11 15 -3
18 -15 21 -16 26 -3 4 11 1 13 -10 9 -11 -4 -14 -3 -9 6 8 12 -19 40 -39 40
-5 0 -2 -6 7 -13 17 -12 17 -14 -3 -31 -19 -18 -20 -18 -13 0 6 14 4 16 -6 10
-10 -6 -11 -4 -4 6 5 8 9 19 9 24 0 6 14 10 32 11 18 0 30 -3 27 -8 -3 -4 2
-5 10 -2 9 3 13 10 10 15 -3 5 4 5 18 0 28 -10 80 5 59 18 -10 7 -10 9 3 14 8
3 17 2 20 -4 2 -5 3 -4 2 3 -2 7 -8 14 -14 14 -24 3 -26 4 -14 16 6 6 35 13
64 14 67 3 66 3 48 14 -9 6 -10 10 -3 10 6 0 15 -4 18 -10 3 -5 16 -9 28 -9
18 1 19 2 4 6 -18 5 -18 5 0 19 10 7 13 14 6 14 -16 0 -9 35 8 35 8 0 20 4 27
8 6 5 12 4 12 -2 0 -7 8 -7 25 -1 18 7 25 6 25 -3 0 -8 3 -9 8 -1 4 6 17 10
29 9 13 -1 21 1 18 3 -3 3 1 12 8 20 9 13 9 14 0 8 -8 -4 -13 -2 -13 6 0 28
19 41 54 40 20 -1 36 3 36 10 0 7 4 7 13 0 9 -8 17 -8 27 0 12 8 11 9 -3 4
-12 -4 -17 -2 -14 6 2 7 15 13 29 12 20 -1 25 3 20 14 -4 11 -7 12 -10 4 -2
-7 -8 -12 -13 -12 -4 0 -6 8 -3 18 5 13 4 14 -4 3 -8 -11 -11 -11 -15 0 -4 9
-6 6 -4 -5 1 -10 -4 -21 -12 -24 -8 -3 -11 0 -7 7 4 6 2 11 -4 11 -7 0 -7 5 2
14 15 14 55 15 77 2 9 -6 12 -5 8 1 -5 7 17 10 66 8 92 -4 89 -3 83 -14 -4 -5
0 -12 6 -14 10 -4 10 -6 1 -6 -7 -1 -10 -8 -7 -18 5 -15 4 -16 -5 -3 -9 13
-11 13 -11 0 -1 -9 -6 -6 -14 9 -7 13 -15 20 -18 15 -3 -5 -3 -4 -2 3 2 7 -1
15 -5 18 -13 7 -21 -48 -10 -60 7 -7 8 -4 3 9 -7 17 -6 17 17 3 13 -8 32 -13
41 -12 10 2 20 0 23 -5 2 -4 19 -6 36 -4 24 3 30 0 26 -10 -3 -8 -1 -16 5 -18
8 -3 8 -10 0 -24 -9 -17 -7 -19 26 -21 105 -3 149 -14 136 -34 -4 -6 -10 -6
-18 0 -9 8 -13 7 -13 -4 0 -7 5 -13 11 -12 6 1 11 -6 11 -15 0 -9 4 -20 8 -24
4 -4 7 -2 7 5 0 9 5 9 20 1 14 -8 20 -8 20 0 0 8 6 8 20 0 10 -6 24 -9 31 -8
18 5 21 -18 5 -35 -13 -13 -14 -17 -1 -27 16 -13 35 -6 35 13 0 7 -4 6 -10 -3
-15 -24 -21 -5 -8 27 7 17 19 28 26 25 10 -3 10 -7 0 -20 -7 -9 -8 -13 -2 -9
7 4 10 -3 8 -19 -2 -19 1 -24 12 -20 8 3 14 2 14 -2 0 -5 15 -8 33 -8 30 1 32
-1 32 -34 -1 -33 1 -35 32 -37 18 -1 33 2 33 7 0 4 -10 7 -23 6 -16 -2 -23 3
-24 16 -1 11 5 18 15 18 14 0 14 2 -2 13 -16 12 -16 13 7 12 14 0 29 -4 33 -8
5 -4 0 -5 -11 -1 -19 7 -19 7 -2 -13 9 -11 14 -23 10 -26 -3 -4 -1 -7 5 -7 7
0 11 -5 10 -12 -2 -7 11 -12 32 -14 54 -3 74 -9 78 -25 2 -8 0 -10 -5 -4 -4 6
-16 11 -25 13 -13 2 -16 -3 -13 -19 6 -29 9 -31 52 -36 21 -2 41 -9 45 -16 6
-9 8 -9 8 0 0 7 11 12 25 11 17 -2 28 -11 35 -32 13 -37 13 -39 -2 -30 -6 4
-8 3 -5 -3 9 -14 57 -23 57 -11 0 5 8 4 19 -1 10 -6 35 -9 55 -7 19 2 33 0 30
-5 -3 -5 0 -9 7 -9 7 0 4 -7 -7 -15 -10 -8 -14 -14 -9 -13 6 2 11 0 13 -4 2
-9 -4 -9 -35 -2 -12 3 -21 11 -20 16 1 6 -5 13 -13 15 -9 3 -11 1 -5 -4 15
-12 19 -47 4 -37 -8 5 -10 3 -4 -5 5 -9 10 -10 18 -2 14 14 30 14 22 1 -3 -5
0 -7 8 -4 8 3 18 1 21 -5 5 -7 15 -7 31 -1 16 6 25 6 25 0 0 -5 13 -8 29 -6
23 2 28 0 23 -12 -3 -10 -1 -13 6 -8 7 4 18 3 26 -1 12 -7 12 -11 -1 -28 -9
-12 -17 -15 -20 -9 -2 6 -9 17 -16 25 -7 8 -11 12 -10 10 2 -2 -2 -10 -8 -17
-18 -22 9 -31 111 -37 38 -2 60 -13 60 -28 0 -6 -6 -7 -12 -3 -10 6 -10 5 -1
-8 7 -8 10 -18 7 -21 -7 -6 26 -15 61 -17 64 -3 84 -6 92 -13 11 -12 11 -31
-2 -39 -14 -11 14 -28 45 -27 50 0 120 -8 127 -14 3 -4 1 -7 -6 -7 -7 0 -9 -4
-6 -10 3 -5 1 -18 -5 -27 -8 -13 -10 -13 -7 -3 6 20 -18 55 -28 41 -3 -6 -1
-11 5 -11 6 0 8 -5 4 -11 -4 -8 -9 -7 -15 2 -4 7 -5 17 -3 21 7 11 -8 10 -26
-2 -13 -8 -12 -10 3 -10 9 0 17 -4 17 -10 0 -5 -5 -10 -12 -10 -9 0 -9 -3 0
-12 8 -8 15 -8 28 3 16 12 17 12 11 -3 -5 -13 -1 -16 19 -12 14 3 23 1 20 -4
-3 -5 12 -8 34 -7 31 1 39 -2 39 -17 3 -59 -8 -53 109 -60 17 -1 32 -7 32 -13
0 -5 5 -3 10 5 8 12 10 10 10 -8 0 -15 4 -21 13 -17 6 4 3 -1 -7 -9 -15 -12
-16 -16 -5 -16 12 0 12 -2 -1 -11 -12 -9 -11 -10 7 -6 12 3 24 0 27 -7 3 -7 5
-7 5 2 1 7 5 11 10 8 5 -4 31 -8 57 -11 60 -5 76 -20 46 -41 -12 -8 -22 -21
-21 -27 0 -9 2 -9 5 0 4 9 15 8 45 -2 24 -9 39 -10 39 -4 0 6 5 7 12 3 8 -5 9
2 5 25 -4 20 -3 30 3 26 5 -3 7 0 4 8 -3 8 -6 27 -8 43 -1 17 -7 28 -15 26 -7
-1 -10 2 -6 8 3 6 10 8 15 5 5 -3 9 9 10 27 0 18 1 49 2 68 1 25 -2 34 -12 32
-11 -3 -11 0 0 12 10 13 10 19 0 32 -11 12 -11 15 1 12 8 -2 13 3 10 12 -2 8
-2 38 -1 65 0 28 1 74 0 103 -1 76 -1 111 0 165 1 27 -5 56 -12 65 -8 10 -9
13 -1 9 6 -4 14 -3 17 2 4 5 2 12 -3 16 -5 3 -7 15 -4 28 8 35 3 90 -10 106
-9 11 -9 13 0 8 6 -4 14 -3 17 2 4 5 2 12 -3 16 -5 3 -7 15 -4 28 8 35 3 90
-10 106 -9 11 -9 13 0 8 6 -4 14 -3 17 2 4 5 2 12 -3 16 -9 5 -9 12 -1 50 5
22 -1 46 -9 40 -5 -3 -13 -1 -16 5 -4 6 -1 9 7 8 9 -2 13 11 14 45 1 26 -1 45
-4 43 -2 -3 -14 0 -26 6 l-21 11 20 -23 20 -23 -27 18 c-16 9 -28 13 -28 9 0
-5 -4 -3 -9 4 -5 8 -7 27 -6 43 1 16 0 29 -4 30 -3 0 -23 2 -43 3 -20 1 -40 5
-44 8 -4 4 -15 3 -25 -2 -12 -7 -20 -7 -24 0 -4 6 -10 8 -14 6 -4 -3 -13 0
-21 6 -12 8 -11 9 4 4 14 -5 17 -2 12 10 -4 9 -1 23 5 30 12 15 14 14 -46 19
-16 1 -33 3 -37 5 -5 1 -14 3 -20 4 -7 1 -12 8 -10 15 1 7 -2 10 -7 6 -6 -3
-8 -12 -4 -20 4 -11 1 -13 -11 -9 -10 4 -15 13 -12 21 3 8 2 12 -3 9 -5 -3
-11 1 -15 9 -3 8 0 17 6 21 7 4 6 9 -3 15 -18 11 -32 11 -25 0 6 -10 -12 -9
-29 0 -5 4 -20 5 -33 4 -12 -1 -27 4 -33 12 -6 7 -17 13 -23 13 -6 0 -4 -5 4
-10 8 -5 11 -10 5 -10 -5 0 -17 5 -25 10 -8 5 -10 10 -4 10 6 0 10 12 9 28 -1
25 -4 27 -42 27 -23 0 -39 4 -36 8 2 4 -7 6 -21 3 -14 -3 -28 0 -31 5 -4 5
-11 9 -16 9 -6 0 -7 -5 -3 -12 4 -6 3 -8 -3 -5 -13 8 -8 53 6 50 6 -2 11 2 11
8 0 8 4 9 13 0 8 -6 17 -7 22 -3 4 4 2 -4 -5 -17 -10 -19 -9 -22 1 -16 8 6 10
4 4 -5 -5 -8 -4 -11 3 -6 6 4 8 14 5 23 -5 12 -3 14 8 8 11 -7 12 -6 2 7 -7 8
-11 17 -9 19 3 3 -13 4 -35 3 -22 0 -42 2 -44 6 -2 4 -21 6 -42 4 -34 -2 -38
1 -38 20 1 12 5 27 9 34 4 7 6 12 4 12 -2 0 -34 3 -73 6 -90 7 -91 7 -97 38
-3 14 -1 23 3 20 5 -3 9 0 9 5 0 6 -3 11 -7 12 -53 7 -75 9 -115 12 -26 2 -51
7 -55 12 -5 4 -2 5 5 1 15 -9 15 -1 1 26 -6 12 -7 18 -1 14 5 -3 12 0 15 8 4
10 -1 13 -19 11 -13 -1 -24 1 -24 4 0 3 -25 6 -55 6 -34 -1 -60 4 -67 12 -8 9
-7 13 2 13 9 0 9 4 -1 17 -10 11 -10 14 -1 9 7 -4 12 -2 12 5 0 8 5 7 17 -2
15 -12 16 -12 8 1 -8 13 -7 13 8 1 10 -7 16 -19 15 -25 -2 -6 0 -13 5 -14 10
-3 10 -1 2 28 -6 27 -4 26 -127 31 -17 1 -25 6 -21 12 4 6 0 8 -10 4 -12 -4
-14 -2 -10 10 5 12 3 14 -7 8 -8 -5 -11 -4 -6 3 4 6 13 9 21 5 11 -4 13 -1 9
11 -6 16 -9 17 -57 20 -15 0 -32 8 -37 16 -5 8 -10 10 -10 5 0 -6 -13 -12 -29
-13 -27 -2 -29 0 -26 33 1 19 -2 32 -7 29 -4 -3 -8 0 -8 5 0 12 -27 10 -50 -3
-8 -5 -12 -6 -8 -2 3 4 -2 16 -13 27 -24 24 -25 40 -1 33 13 -5 14 -4 3 4 -7
5 -10 16 -7 23 5 9 3 9 -6 -1 -7 -8 -19 -15 -27 -15 -17 0 -24 -32 -9 -42 6
-3 8 -2 5 4 -3 5 0 10 8 10 8 0 12 -4 9 -9 -3 -4 0 -8 5 -8 6 0 11 -5 11 -11
0 -8 -4 -8 -12 -2 -7 6 -21 9 -30 8 -10 -2 -18 1 -18 6 0 6 -6 7 -12 4 -7 -4
-5 0 4 8 10 8 15 17 11 20 -3 4 -1 12 5 19 8 10 0 13 -36 13 -59 -1 -72 3 -66
19 5 13 -23 15 -43 3 -6 -4 -14 0 -17 9 -8 21 -8 21 10 28 14 5 15 4 5 -8 -9
-11 -7 -13 14 -13 14 0 25 4 25 9 0 5 5 6 11 2 8 -4 8 0 0 15 -13 24 -26 29
-17 6 3 -8 1 -15 -4 -15 -6 0 -10 6 -10 13 0 7 -9 13 -20 13 -11 0 -20 -4 -20
-9 0 -5 -8 -1 -17 9 -11 11 -18 13 -21 5 -2 -7 -9 -8 -21 -1 -10 5 -22 6 -26
2 -4 -4 -5 8 -3 26 5 35 -8 53 -38 51 -41 -4 -53 1 -48 19 5 16 5 16 -6 0 -11
-19 -36 -26 -25 -8 3 6 1 10 -4 10 -6 0 -11 -4 -11 -8 0 -5 -7 -9 -15 -9 -8 0
-15 4 -15 8 0 13 33 27 50 22 13 -4 13 -3 1 6 -10 6 -21 6 -33 0 -18 -10 -23
-3 -19 27 1 7 -18 11 -48 10 -34 -1 -47 -5 -44 -13z m219 -105 c3 -4 -1 -5
-10 -4 -8 1 -18 5 -22 8 -3 4 1 5 10 4 8 -1 18 -5 22 -8z m324 -158 c0 -5 -2
-10 -4 -10 -3 0 -8 5 -11 10 -3 6 -1 10 4 10 6 0 11 -4 11 -10z m-1190 -156
c0 -8 -19 -13 -24 -6 -3 5 1 9 9 9 8 0 15 -2 15 -3z m-150 -64 c0 -5 -2 -10
-4 -10 -3 0 -8 5 -11 10 -3 6 -1 10 4 10 6 0 11 -4 11 -10z m-33 -21 c-18 -10
-18 -11 0 -25 17 -14 16 -14 -5 -4 -19 9 -21 14 -11 26 6 8 17 14 23 14 6 0 3
-5 -7 -11z m28 -9 c-3 -5 -1 -10 6 -10 7 0 10 -3 6 -6 -9 -9 -28 6 -22 17 4 5
8 9 11 9 3 0 2 -4 -1 -10z m-150 -49 c-3 -2 1 -11 8 -20 11 -14 10 -14 -5 -2
-20 15 -25 2 -6 -17 7 -7 10 -12 8 -13 -3 0 -16 -2 -30 -5 -19 -3 -21 -2 -10
6 13 8 8 14 -11 12 -4 -1 -4 41 0 44 5 3 49 -1 46 -5z m2112 -113 c2 -17 0
-19 -7 -8 -5 8 -6 18 -4 22 8 12 10 10 11 -14z m161 -63 c-3 -3 -9 2 -12 12
-6 14 -5 15 5 6 7 -7 10 -15 7 -18z m27 -6 c-5 -16 -4 -19 5 -14 9 6 11 4 5
-4 -10 -18 -27 2 -19 22 9 25 17 21 9 -4z m-2746 -66 c-12 -15 -12 -16 4 -10
9 3 17 2 17 -3 0 -11 -23 -13 -33 -3 -7 6 10 33 20 33 3 0 -1 -8 -8 -17z m42
10 c7 -38 3 -60 -8 -56 -10 4 -11 9 -2 19 9 11 8 18 -1 29 -9 10 -9 15 -1 15
6 0 12 -3 12 -7z m-171 -79 c0 0 -10 -9 -22 -20 -13 -10 -20 -15 -16 -10 4 5
3 15 -2 22 -8 9 -4 12 15 10 14 0 25 -1 25 -2z m3405 -164 c-3 -5 -12 -10 -18
-10 -7 0 -6 4 3 10 19 12 23 12 15 0z m40 -8 c-3 -3 -11 0 -18 7 -9 10 -8 11
6 5 10 -3 15 -9 12 -12z m-5 -17 c0 -1 -12 -2 -26 -2 -17 0 -22 2 -13 7 10 7
39 3 39 -5z m154 -57 c-3 -4 -1 -8 4 -8 5 0 9 -7 9 -15 0 -8 -4 -15 -9 -15 -5
0 -7 -4 -4 -9 4 -5 -2 -8 -11 -6 -10 2 -24 4 -30 4 -7 1 -13 6 -13 11 0 6 6
10 13 9 24 -3 37 1 37 12 0 8 -4 8 -14 0 -10 -8 -16 -9 -21 -1 -9 15 1 26 24
26 11 0 17 -4 15 -8z m-4009 -16 c-3 -3 -11 0 -18 7 -9 10 -8 11 6 5 10 -3 15
-9 12 -12z m-15 -22 c6 -11 8 -20 6 -20 -3 0 -10 9 -16 20 -6 11 -8 20 -6 20
3 0 10 -9 16 -20z m4100 -154 c0 -3 -4 -8 -10 -11 -5 -3 -10 -1 -10 4 0 6 5
11 10 11 6 0 10 -2 10 -4z m-2309 -36 c-14 -8 -14 -19 1 -37 7 -9 4 -11 -11
-8 -12 2 -21 0 -21 -4 0 -4 -6 -8 -12 -8 -7 0 -13 12 -13 27 0 20 4 26 14 22
8 -3 12 -1 9 4 -4 5 5 10 19 11 16 0 21 -2 14 -7z m484 0 c-3 -5 -1 -10 6 -10
7 0 10 -3 6 -6 -9 -9 -28 6 -22 17 4 5 8 9 11 9 3 0 2 -4 -1 -10z m-18 -26
c-3 -3 -12 -4 -19 -1 -8 3 -5 6 6 6 11 1 17 -2 13 -5z m18 -24 c3 -6 -1 -7 -9
-4 -18 7 -21 14 -7 14 6 0 13 -4 16 -10z m-641 -55 c3 -8 1 -15 -4 -15 -6 0
-10 7 -10 15 0 8 2 15 4 15 2 0 6 -7 10 -15z m2466 -19 c0 -3 -4 -8 -10 -11
-5 -3 -10 -1 -10 4 0 6 5 11 10 11 6 0 10 -2 10 -4z m0 -160 c0 -3 -4 -8 -10
-11 -5 -3 -10 -1 -10 4 0 6 5 11 10 11 6 0 10 -2 10 -4z m-2902 -76 c7 -11 11
-20 9 -20 -2 0 -12 9 -22 20 -10 11 -14 20 -9 20 5 0 15 -9 22 -20z m1636 -6
c3 -8 2 -12 -4 -9 -6 3 -10 10 -10 16 0 14 7 11 14 -7z m-1770 -83 c-2 -2 -10
1 -17 7 -8 7 -16 10 -19 7 -2 -3 -5 1 -5 9 0 12 5 11 23 -2 12 -9 20 -19 18
-21z m3036 5 c0 -3 -4 -8 -10 -11 -5 -3 -10 -1 -10 4 0 6 5 11 10 11 6 0 10
-2 10 -4z m-3144 -66 c0 -12 -4 -16 -9 -11 -5 5 -6 14 -3 20 10 15 12 14 12
-9z m44 -42 c0 -4 -4 -8 -9 -8 -6 0 -12 4 -15 8 -3 5 1 9 9 9 8 0 15 -4 15 -9z
m2245 -16 c-3 -3 -11 0 -18 7 -9 10 -8 11 6 5 10 -3 15 -9 12 -12z m875 -2 c0
-5 -5 -10 -11 -10 -5 0 -7 5 -4 10 3 6 8 10 11 10 2 0 4 -4 4 -10z m-3163 -24
c0 -8 -6 -12 -15 -9 -11 5 -11 7 0 14 7 5 13 9 14 9 0 0 1 -6 1 -14z m3117
-14 c3 -5 -1 -9 -9 -9 -8 0 -12 4 -9 9 3 4 7 8 9 8 2 0 6 -4 9 -8z m-3089 -23
c11 -16 1 -19 -13 -3 -7 8 -8 14 -3 14 5 0 13 -5 16 -11z m3130 -19 c3 -5 1
-10 -4 -10 -6 0 -11 5 -11 10 0 6 2 10 4 10 3 0 8 -4 11 -10z m-728 -18 c-10
-10 -14 -22 -10 -25 3 -4 1 -7 -5 -7 -7 0 -12 3 -12 7 0 8 31 43 38 43 3 0 -2
-8 -11 -18z m-2390 -7 c5 -4 2 -5 -6 0 -11 6 -13 4 -8 -8 4 -10 2 -14 -7 -11
-17 6 -16 32 0 30 8 -1 17 -6 21 -11z m-19 -40 c3 -3 -4 -4 -16 -2 -12 2 -24
6 -28 10 -4 3 4 4 16 2 12 -2 25 -7 28 -10z m-7 -108 c-10 -9 -11 -8 -5 6 3
10 9 15 12 12 3 -3 0 -11 -7 -18z m-3 -42 c-3 -3 -9 2 -12 12 -6 14 -5 15 5 6
7 -7 10 -15 7 -18z m2814 -19 c7 4 8 2 4 -5 -9 -13 -26 -5 -25 12 0 9 2 8 6
-1 2 -6 10 -9 15 -6z m-2810 -18 c-14 -14 -44 -20 -36 -7 3 5 10 7 15 4 5 -4
12 1 15 10 4 9 9 13 12 10 3 -3 0 -11 -6 -17z m2788 -10 c0 -5 -5 -8 -11 -8
-5 0 -7 5 -4 10 3 6 1 10 -5 10 -6 0 -8 5 -4 11 6 11 23 -6 24 -23z m42 10
c-9 -9 -9 -15 1 -27 11 -14 10 -14 -5 -2 -12 9 -18 10 -18 2 0 -6 -5 -11 -11
-11 -6 0 0 13 13 29 13 15 25 27 27 25 3 -3 -1 -10 -7 -16z m-2806 -56 c-4 -3
-14 2 -24 12 -16 18 -16 18 6 6 13 -6 21 -14 18 -18z m2964 -8 c0 -8 -19 -13
-24 -6 -3 5 1 9 9 9 8 0 15 -2 15 -3z m-2963 -49 c4 -4 2 -5 -6 0 -10 6 -12 2
-6 -16 8 -27 3 -24 -14 8 -9 17 -8 21 4 19 8 -1 18 -6 22 -11z m0 -60 c5 -4 2
-5 -6 0 -11 6 -13 4 -8 -8 4 -10 2 -14 -7 -11 -17 6 -16 32 0 30 8 -1 17 -6
21 -11z m3103 -16 c0 -5 -5 -9 -12 -9 -6 0 -8 3 -5 7 4 3 1 13 -6 22 -11 14
-10 14 6 2 9 -7 17 -17 17 -22z m-3125 -27 c-3 -3 -11 0 -18 7 -9 10 -8 11 6
5 10 -3 15 -9 12 -12z m-15 -37 c0 -5 -5 -3 -10 5 -5 8 -10 20 -10 25 0 6 5 3
10 -5 5 -8 10 -19 10 -25z m-7 -36 c-8 -8 -13 -7 -18 2 -5 8 -4 10 3 5 7 -4
12 -2 12 5 0 7 3 9 7 6 4 -4 2 -12 -4 -18z m30 -34 c9 2 17 -1 17 -7 0 -5 -6
-8 -12 -5 -7 2 -20 1 -28 -4 -11 -5 -16 -2 -16 11 0 12 4 16 11 11 5 -5 18 -7
28 -6z m-12 -78 c-10 -9 -11 -8 -5 6 3 10 9 15 12 12 3 -3 0 -11 -7 -18z m-3
-42 c-3 -3 -9 2 -12 12 -6 14 -5 15 5 6 7 -7 10 -15 7 -18z m4 -37 c-14 -14
-44 -20 -36 -7 3 5 10 7 15 4 5 -4 12 1 15 10 4 9 9 13 12 10 3 -3 0 -11 -6
-17z m24 -56 c-4 -3 -14 2 -24 12 -16 18 -16 18 6 6 13 -6 21 -14 18 -18z m1
-57 c4 -4 2 -5 -6 0 -10 6 -12 2 -6 -16 8 -27 3 -24 -14 8 -9 17 -8 21 4 19 8
-1 18 -6 22 -11z m0 -60 c5 -4 2 -5 -6 0 -11 6 -13 4 -8 -8 4 -10 2 -14 -7
-11 -17 6 -16 32 0 30 8 -1 17 -6 21 -11z m60 -162 c1 -19 -1 -22 -8 -12 -11
17 -12 39 -1 39 4 0 8 -12 9 -27z m-22 -24 c-4 -5 -12 -9 -18 -8 -9 0 -8 2 1
6 6 2 9 10 6 15 -4 7 -2 8 5 4 6 -4 9 -12 6 -17z m185 -29 c3 -1 8 -2 11 -2 3
1 5 -11 4 -25 -1 -22 -6 -27 -32 -28 -18 -1 -30 2 -27 7 3 5 10 5 16 2 6 -4 8
-1 6 7 -3 8 -10 13 -16 12 -8 -2 -10 19 -3 34 1 1 33 -4 41 -7z m398 -238 c15
12 16 11 3 -4 -14 -19 -32 -15 -30 5 0 8 2 8 6 -1 4 -10 8 -10 21 0z m2 -44
c0 -4 -7 -4 -17 -1 -12 5 -14 3 -8 -8 5 -8 5 -11 -1 -6 -5 5 -9 12 -9 15 0 4
-4 12 -8 19 -5 8 -1 8 18 0 14 -7 25 -15 25 -19z m-1585 -267 c3 -5 0 -13 -6
-17 -8 -5 -9 -3 -4 6 6 10 4 12 -9 7 -10 -4 -15 -3 -11 3 8 13 22 13 30 1z
m-13 -38 c-6 -2 -10 -9 -7 -14 4 -5 -1 -6 -10 -2 -13 5 -14 7 -3 14 7 5 18 8
23 8 6 0 4 -3 -3 -6z m173 -53 c3 -5 1 -10 -4 -10 -6 0 -11 5 -11 10 0 6 2 10
4 10 3 0 8 -4 11 -10z m2152 -3 c6 0 9 -6 6 -13 -6 -16 -24 -14 -39 5 -9 11
-11 11 -11 -1 0 -9 9 -21 20 -27 11 -7 16 -8 13 -2 -4 7 -1 8 8 5 26 -10 8
-24 -25 -20 -29 3 -54 16 -32 16 6 0 10 8 8 18 -4 25 5 34 24 26 9 -3 21 -7
28 -7z m93 -97 c0 -5 -5 -10 -11 -10 -5 0 -7 5 -4 10 3 6 8 10 11 10 2 0 4 -4
4 -10z m164 -76 c3 -8 2 -12 -4 -9 -6 3 -10 10 -10 16 0 14 7 11 14 -7z
m-2188 -26 c3 -4 -1 -5 -10 -4 -8 1 -18 5 -22 8 -3 4 1 5 10 4 8 -1 18 -5 22
-8z m435 -201 c7 -12 6 -17 -1 -17 -6 0 -8 -5 -4 -12 4 -7 3 -8 -5 -4 -7 4 -9
17 -6 29 6 22 6 22 -7 0 -13 -22 -14 -22 -26 -3 -16 26 -16 27 14 26 14 -1 30
-10 35 -19z m2225 -79 c4 4 3 0 -3 -8 -6 -8 -12 -19 -12 -24 0 -6 -8 -11 -17
-12 -14 -2 -14 -1 -1 14 12 13 13 22 6 37 -9 18 -9 19 4 3 8 -10 18 -14 23
-10z m-2075 -35 c-12 -20 -14 -14 -5 12 4 9 9 14 11 11 3 -2 0 -13 -6 -23z
m1926 -86 c5 -9 3 -9 -8 0 -12 10 -18 10 -29 0 -12 -10 -12 -9 -1 6 15 20 9
22 -22 6 -21 -10 -21 -10 -3 5 11 9 14 16 8 16 -7 0 -12 5 -12 11 0 11 55 -25
67 -44z m-1762 25 c-3 -3 -11 0 -18 7 -9 10 -8 11 6 5 10 -3 15 -9 12 -12z
m1575 -57 c0 -7 -30 -13 -34 -7 -3 4 4 9 15 9 10 1 19 0 19 -2z m-411 -258 c0
-9 -2 -8 -6 1 -2 6 -10 9 -15 6 -7 -4 -8 -2 -4 5 9 13 26 5 25 -12z m-654 -7
c3 -6 -1 -7 -9 -4 -18 7 -21 14 -7 14 6 0 13 -4 16 -10z m665 -20 c0 -5 -4
-10 -10 -10 -5 0 -10 5 -10 10 0 6 5 10 10 10 6 0 10 -4 10 -10z m-376 -112
c-3 -4 1 -8 8 -8 10 0 10 -2 0 -9 -17 -10 -17 -22 -1 -32 8 -5 0 -7 -19 -5
-41 3 -60 20 -44 39 7 8 10 16 8 18 -3 2 8 4 24 4 16 1 26 -3 24 -7z"/>
<path d="M1081 4759 c5 -10 15 -21 22 -25 8 -6 8 -3 -1 9 -8 9 -11 20 -8 25 3
5 -1 9 -9 9 -10 0 -11 -5 -4 -18z"/>
<path d="M1867 3973 c-11 -10 -8 -20 6 -20 8 0 14 6 14 14 0 14 -10 17 -20 6z"/>
<path d="M1311 2194 c26 -28 28 -29 25 -9 -3 19 -13 28 -32 31 -12 2 -10 -4 7
-22z"/>
<path d="M2035 536 c-21 -15 -13 -35 12 -32 17 3 27 32 14 41 -5 2 -16 -2 -26
-9z m22 -9 c0 -8 -6 -14 -14 -14 -17 0 -17 14 0 20 6 3 12 6 13 6 0 1 1 -5 1
-12z"/>
<path d="M2195 5350 c-4 -6 1 -7 11 -3 13 5 15 3 9 -7 -5 -9 -4 -11 4 -6 6 4
9 12 6 17 -8 12 -22 12 -30 -1z"/>
<path d="M2165 5340 c-3 -5 -1 -10 4 -10 6 0 11 5 11 10 0 6 -2 10 -4 10 -3 0
-8 -4 -11 -10z"/>
<path d="M3130 5343 c5 -2 8 -8 5 -13 -3 -5 5 -19 17 -32 13 -13 22 -22 21
-19 -2 2 3 11 10 20 10 14 10 14 -5 3 -14 -11 -18 -10 -29 10 -7 13 -11 25
-10 28 1 2 -2 5 -9 7 -6 1 -7 0 0 -4z"/>
<path d="M5389 5271 c-1 -3 -1 -9 0 -13 0 -5 -4 -8 -10 -8 -8 0 -9 -4 0 -13 6
-8 9 -16 6 -19 -3 -2 2 -5 10 -5 8 0 15 5 15 11 0 6 4 5 9 -2 7 -11 9 -11 14
2 3 8 2 18 -3 21 -15 9 -12 27 3 19 6 -4 9 -3 4 1 -9 10 -46 14 -48 6z m24
-19 c15 -16 15 -18 -3 -19 -13 -1 -18 4 -17 18 2 23 0 23 20 1z"/>
<path d="M2375 5260 c-3 -5 -1 -10 4 -10 6 0 11 5 11 10 0 6 -2 10 -4 10 -3 0
-8 -4 -11 -10z"/>
<path d="M1890 5240 c0 -5 5 -10 11 -10 5 0 7 5 4 10 -3 6 -8 10 -11 10 -2 0
-4 -4 -4 -10z"/>
<path d="M5555 5190 c-4 -6 1 -7 11 -3 13 5 15 3 9 -7 -5 -9 -4 -11 4 -6 6 4
9 12 6 17 -8 12 -22 12 -30 -1z"/>
<path d="M3317 5160 c3 -11 9 -22 13 -25 5 -3 6 4 3 15 -3 11 -9 22 -13 25 -5
3 -6 -4 -3 -15z"/>
<path d="M3284 5159 c-3 -6 -2 -15 4 -21 6 -6 12 -6 17 3 6 8 4 10 -5 4 -10
-6 -12 -4 -7 8 7 19 2 23 -9 6z"/>
<path d="M3456 5102 c-3 -2 -2 -11 1 -20 5 -11 3 -13 -8 -7 -12 7 -12 6 -1 -7
10 -13 10 -17 0 -21 -7 -2 1 -4 19 -3 17 0 30 3 27 5 -2 2 2 11 9 19 9 13 9
14 0 8 -11 -6 -17 3 -15 25 1 7 -26 8 -32 1z m26 -28 c2 -7 -1 -14 -6 -15 -5
-2 -10 6 -11 19 -2 22 10 19 17 -4z"/>
<path d="M1604 5070 c0 -9 6 -17 13 -17 7 0 10 4 7 8 -2 4 3 12 12 17 14 8 13
10 -7 10 -17 0 -25 -6 -25 -18z"/>
<path d="M5773 5028 c-2 -5 0 -8 4 -8 5 0 13 -10 18 -22 11 -25 36 -31 43 -10
2 7 -2 10 -11 6 -8 -3 -18 0 -23 7 -4 8 -3 10 4 5 7 -4 20 -2 29 3 11 6 13 11
5 11 -7 0 -11 4 -8 8 2 4 -9 8 -26 7 -16 0 -32 -3 -35 -7z"/>
<path d="M1450 4992 c6 -13 14 -21 18 -18 3 4 -2 14 -12 24 -18 16 -18 16 -6
-6z"/>
<path d="M2735 5000 c-3 -5 -1 -10 4 -10 6 0 11 5 11 10 0 6 -2 10 -4 10 -3 0
-8 -4 -11 -10z"/>
<path d="M5970 4950 c0 -6 -4 -9 -9 -6 -5 3 -15 -2 -22 -11 -11 -13 -11 -15
-1 -9 9 6 12 3 10 -9 -2 -10 4 -20 12 -22 11 -3 12 -2 3 4 -10 7 -10 13 3 29
8 10 13 13 9 7 -3 -7 -2 -20 3 -29 8 -15 10 -15 15 0 4 11 3 15 -4 10 -7 -4
-9 0 -5 14 4 11 2 23 -4 27 -5 3 -10 1 -10 -5z"/>
<path d="M1305 4940 c-3 -6 1 -7 9 -4 18 7 21 14 7 14 -6 0 -13 -4 -16 -10z"/>
<path d="M1326 4922 c-3 -5 1 -9 9 -9 8 0 12 4 9 9 -3 4 -7 8 -9 8 -2 0 -6 -4
-9 -8z"/>
<path d="M3850 4860 c-9 -6 -10 -10 -3 -10 6 0 15 5 18 10 8 12 4 12 -15 0z"/>
<path d="M3876 4853 c-4 -9 -3 -20 1 -24 4 -4 9 3 9 17 2 28 -1 31 -10 7z"/>
<path d="M2983 4829 c-2 -19 16 -22 29 -4 12 16 9 21 -10 22 -11 1 -18 -6 -19
-18z"/>
<path d="M6117 4829 c7 -7 15 -10 18 -7 3 3 -2 9 -12 12 -14 6 -15 5 -6 -5z"/>
<path d="M3848 4823 c6 -2 9 -10 6 -15 -4 -7 -2 -8 5 -4 13 9 5 26 -12 25 -9
0 -8 -2 1 -6z"/>
<path d="M3150 4782 c-19 -16 -21 -22 -11 -38 11 -18 12 -17 6 3 -5 18 -3 22
9 17 9 -3 14 -9 12 -13 -3 -4 5 -8 17 -8 19 -2 18 0 -7 16 -19 13 -23 20 -14
23 7 3 19 -2 26 -11 11 -14 11 -13 2 7 -13 27 -12 27 -40 4z"/>
<path d="M4041 4766 c-10 -11 -9 -14 1 -12 14 2 23 15 15 22 -2 2 -10 -2 -16
-10z"/>
<path d="M3315 4682 c3 -3 1 -10 -5 -16 -6 -8 -2 -12 13 -13 12 0 16 1 9 4 -9
3 -10 9 -3 17 8 9 6 13 -4 13 -8 0 -13 -3 -10 -5z"/>
<path d="M935 4660 c3 -5 8 -10 11 -10 2 0 4 5 4 10 0 6 -5 10 -11 10 -5 0 -7
-4 -4 -10z"/>
<path d="M775 4620 c-3 -5 -1 -10 4 -10 6 0 11 5 11 10 0 6 -2 10 -4 10 -3 0
-8 -4 -11 -10z"/>
<path d="M4254 4602 c4 -3 14 -7 22 -8 9 -1 13 0 10 4 -4 3 -14 7 -22 8 -9 1
-13 0 -10 -4z"/>
<path d="M3547 4508 c20 -22 18 -22 20 1 1 14 -4 19 -17 18 -18 -1 -18 -3 -3
-19z"/>
<path d="M4436 4504 c-4 -9 -13 -14 -22 -10 -8 3 -12 2 -9 -3 10 -16 41 -8 42
11 2 22 -3 23 -11 2z"/>
<path d="M3695 4460 c-3 -5 -1 -10 4 -10 6 0 11 5 11 10 0 6 -2 10 -4 10 -3 0
-8 -4 -11 -10z"/>
<path d="M543 4443 c4 -3 1 -13 -6 -22 -11 -14 -10 -14 5 -2 16 12 16 31 1 31
-4 0 -3 -3 0 -7z"/>
<path d="M3715 4440 c-17 -7 -17 -9 -2 -9 9 -1 17 -5 17 -11 0 -5 5 -10 11
-10 8 0 7 6 -2 17 -12 15 -12 16 4 10 11 -4 16 -3 12 3 -7 12 -13 12 -40 0z"/>
<path d="M340 4380 c8 -5 22 -9 30 -9 10 0 8 3 -5 9 -27 12 -43 12 -25 0z"/>
<path d="M350 4340 c0 -5 7 -6 17 -3 12 5 14 3 8 -7 -5 -9 -4 -11 4 -6 6 4 9
12 6 17 -8 12 -35 12 -35 -1z"/>
<path d="M2203 4049 c6 -10 16 -15 21 -12 6 4 5 8 -2 11 -7 2 -10 7 -8 11 3 4
-1 8 -8 8 -11 0 -12 -4 -3 -18z"/>
<path d="M5225 3951 c-3 -12 -10 -21 -14 -21 -4 0 -7 -11 -7 -24 0 -14 4 -22
8 -20 4 3 8 0 8 -5 0 -6 -4 -11 -8 -11 -5 0 -8 -20 -8 -45 1 -39 3 -43 14 -28
7 10 10 23 8 30 -3 7 0 12 7 10 7 -1 11 4 9 12 -1 7 2 19 8 26 7 9 6 16 -6 26
-15 12 -16 11 -9 -11 4 -14 4 -22 0 -18 -4 4 -9 19 -11 34 -2 20 0 24 9 15 16
-16 23 -14 24 8 1 11 -4 25 -12 31 -10 9 -15 6 -20 -9z m10 -101 c3 -6 -1 -7
-9 -4 -18 7 -21 14 -7 14 6 0 13 -4 16 -10z"/>
<path d="M1635 3810 c3 -5 8 -10 11 -10 2 0 4 5 4 10 0 6 -5 10 -11 10 -5 0
-7 -4 -4 -10z"/>
<path d="M1661 3797 c-13 -21 -12 -21 5 -5 10 10 16 20 13 22 -3 3 -11 -5 -18
-17z"/>
<path d="M5230 3800 c0 -5 5 -10 11 -10 5 0 7 5 4 10 -3 6 -8 10 -11 10 -2 0
-4 -4 -4 -10z"/>
<path d="M5205 3695 c0 -41 1 -75 2 -75 1 0 9 14 18 30 14 27 14 33 0 59 -8
17 -12 37 -9 45 3 9 2 16 -3 16 -5 0 -9 -34 -8 -75z"/>
<path d="M2761 3721 c-10 -6 -9 -10 3 -14 8 -3 18 -2 21 3 8 13 -9 20 -24 11z"/>
<path d="M5230 3719 c0 -5 5 -7 10 -4 6 3 10 8 10 11 0 2 -4 4 -10 4 -5 0 -10
-5 -10 -11z"/>
<path d="M5225 3631 c-3 -12 -10 -21 -14 -21 -4 0 -7 -11 -7 -24 0 -14 4 -22
8 -20 4 3 8 0 8 -5 0 -6 -4 -11 -8 -11 -5 0 -8 -20 -8 -45 1 -39 3 -43 14 -28
7 10 10 23 8 30 -3 7 0 12 7 10 7 -1 11 4 9 12 -1 7 2 19 8 26 7 9 6 16 -6 26
-15 12 -16 11 -9 -11 4 -14 4 -22 0 -18 -4 4 -9 19 -11 34 -2 20 0 24 9 15 16
-16 23 -14 24 8 1 11 -4 25 -12 31 -10 9 -15 6 -20 -9z m10 -101 c3 -6 -1 -7
-9 -4 -18 7 -21 14 -7 14 6 0 13 -4 16 -10z"/>
<path d="M2975 3560 c-2 -3 5 -7 16 -7 10 -1 19 2 19 6 0 9 -29 10 -35 1z"/>
<path d="M3167 3496 c-4 -10 -1 -13 8 -9 8 3 12 9 9 14 -7 12 -11 11 -17 -5z"/>
<path d="M5230 3480 c0 -5 5 -10 11 -10 5 0 7 5 4 10 -3 6 -8 10 -11 10 -2 0
-4 -4 -4 -10z"/>
<path d="M5205 3375 c0 -41 1 -75 2 -75 1 0 9 14 18 30 14 27 14 33 0 59 -8
17 -12 37 -9 45 3 9 2 16 -3 16 -5 0 -9 -34 -8 -75z"/>
<path d="M2353 3415 c0 -8 4 -12 9 -9 5 3 6 10 3 15 -9 13 -12 11 -12 -6z"/>
<path d="M3310 3400 c0 -5 5 -10 10 -10 6 0 10 5 10 10 0 6 -4 10 -10 10 -5 0
-10 -4 -10 -10z"/>
<path d="M5230 3399 c0 -5 5 -7 10 -4 6 3 10 8 10 11 0 2 -4 4 -10 4 -5 0 -10
-5 -10 -11z"/>
<path d="M5225 3311 c-3 -12 -10 -21 -14 -21 -4 0 -7 -11 -7 -24 0 -14 4 -22
8 -20 4 3 8 0 8 -5 0 -6 -4 -11 -8 -11 -5 0 -8 -20 -8 -45 1 -39 3 -43 14 -28
7 10 10 23 8 30 -3 7 0 12 7 10 7 -1 11 4 9 12 -1 7 2 19 8 26 7 9 6 16 -6 26
-15 12 -16 11 -9 -11 4 -14 4 -22 0 -18 -4 4 -9 19 -11 34 -2 20 0 24 9 15 16
-16 23 -14 24 8 1 11 -4 25 -12 31 -10 9 -15 6 -20 -9z m10 -101 c3 -6 -1 -7
-9 -4 -18 7 -21 14 -7 14 6 0 13 -4 16 -10z"/>
<path d="M3575 3260 c-3 -5 -1 -10 4 -10 6 0 11 5 11 10 0 6 -2 10 -4 10 -3 0
-8 -4 -11 -10z"/>
<path d="M2580 3241 c5 -11 15 -23 21 -27 6 -3 3 5 -6 20 -20 30 -30 35 -15 7z"/>
<path d="M3545 3239 c-4 -6 -5 -12 -2 -15 2 -3 7 2 10 11 7 17 1 20 -8 4z"/>
<path d="M2770 3191 c0 -5 7 -15 17 -22 15 -13 15 -12 4 9 -12 23 -21 28 -21
13z"/>
<path d="M5230 3160 c0 -5 5 -10 11 -10 5 0 7 5 4 10 -3 6 -8 10 -11 10 -2 0
-4 -4 -4 -10z"/>
<path d="M5205 3055 c0 -41 1 -75 2 -75 1 0 9 14 18 30 14 27 14 33 0 59 -8
17 -12 37 -9 45 3 9 2 16 -3 16 -5 0 -9 -34 -8 -75z"/>
<path d="M5230 3079 c0 -5 5 -7 10 -4 6 3 10 8 10 11 0 2 -4 4 -10 4 -5 0 -10
-5 -10 -11z"/>
<path d="M5226 2994 c-9 -23 10 -42 26 -26 10 10 9 16 -4 28 -14 14 -16 14
-22 -2z"/>
<path d="M3151 2939 c4 -9 5 -19 2 -23 -3 -3 -1 -6 6 -6 7 0 9 -5 5 -12 -5
-10 -4 -10 6 -1 7 6 20 9 29 6 13 -4 13 -3 2 5 -7 5 -10 15 -7 21 4 6 4 11 -1
10 -19 -3 -27 2 -14 10 10 7 7 9 -11 8 -21 -2 -24 -5 -17 -18z m27 -24 c-3 -3
-9 2 -12 12 -6 14 -5 15 5 6 7 -7 10 -15 7 -18z"/>
<path d="M4102 2938 c-6 -6 -8 -17 -5 -26 5 -11 3 -13 -7 -7 -9 5 -11 4 -6 -4
10 -15 29 -3 22 15 -3 7 -1 16 4 19 5 3 11 -3 13 -12 4 -16 5 -16 6 -1 1 22
-13 30 -27 16z"/>
<path d="M3320 2860 c0 -5 0 -13 1 -16 0 -4 -5 -10 -12 -14 -7 -5 -2 -7 13 -7
13 1 25 7 25 14 0 6 -6 9 -14 6 -9 -4 -11 0 -7 11 3 9 3 16 0 16 -3 0 -6 -4
-6 -10z"/>
<path d="M3494 2776 c1 -8 5 -18 8 -22 4 -3 5 1 4 10 -1 8 -5 18 -8 22 -4 3
-5 -1 -4 -10z"/>
<path d="M4995 2751 c2 -9 4 -18 4 -20 1 -2 8 2 16 9 16 14 13 23 -9 26 -8 1
-13 -5 -11 -15z"/>
<path d="M4830 2660 c0 -5 5 -10 10 -10 6 0 10 5 10 10 0 6 -4 10 -10 10 -5 0
-10 -4 -10 -10z"/>
<path d="M3722 2620 c-7 -12 -17 -18 -21 -15 -5 3 -8 -3 -7 -12 2 -11 12 -17
27 -18 13 0 31 -4 39 -9 13 -9 13 -8 1 7 -7 9 -18 14 -23 10 -6 -3 -8 0 -6 8
3 8 11 13 17 11 9 -2 9 3 1 18 -13 25 -12 25 -28 0z m18 -3 c0 -2 -10 -12 -22
-23 l-23 -19 19 23 c18 21 26 27 26 19z"/>
<path d="M3875 2550 c-4 -6 -11 -7 -17 -4 -7 4 -8 2 -4 -5 6 -9 11 -9 22 0 14
11 18 19 10 19 -3 0 -8 -5 -11 -10z"/>
<path d="M3889 2528 c-8 -7 -12 -12 -10 -11 2 2 9 -1 15 -7 8 -6 12 -3 12 11
0 10 -1 19 -1 19 -1 0 -8 -6 -16 -12z"/>
<path d="M4015 2440 c3 -5 8 -10 11 -10 2 0 4 5 4 10 0 6 -5 10 -11 10 -5 0
-7 -4 -4 -10z"/>
<path d="M4267 2362 c1 -8 3 -16 3 -18 0 -2 4 -4 8 -4 5 0 9 7 9 15 0 8 -4 12
-8 9 -4 -2 -9 -1 -12 3 -2 5 -2 2 0 -5z"/>
<path d="M6233 2214 c-3 -8 -2 -19 3 -24 5 -5 9 1 9 16 0 28 -3 30 -12 8z"/>
<path d="M1491 2153 c-1 -17 16 -25 25 -12 4 7 3 9 -4 5 -5 -3 -13 0 -15 6 -4
9 -6 10 -6 1z"/>
<path d="M1461 2121 c-10 -7 -7 -9 12 -8 14 1 23 5 20 10 -6 9 -15 9 -32 -2z"/>
<path d="M1468 2093 c7 -3 16 -2 19 1 4 3 -2 6 -13 5 -11 0 -14 -3 -6 -6z"/>
<path d="M2573 1963 c9 -8 47 -11 47 -4 0 5 -11 9 -25 9 -14 0 -24 -2 -22 -5z"/>
<path d="M1866 1862 c-3 -5 1 -9 9 -9 8 0 12 4 9 9 -3 4 -7 8 -9 8 -2 0 -6 -4
-9 -8z"/>
<path d="M2011 1833 c-1 -17 16 -25 25 -12 4 7 3 9 -4 5 -5 -3 -13 0 -15 6 -4
9 -6 10 -6 1z"/>
<path d="M2057 1819 c7 -7 15 -10 18 -7 3 3 -2 9 -12 12 -14 6 -15 5 -6 -5z"/>
<path d="M2030 1800 c-13 -8 -12 -10 3 -10 9 0 17 5 17 10 0 12 -1 12 -20 0z"/>
<path d="M2055 1781 c-3 -5 0 -13 6 -17 7 -4 9 -3 5 4 -3 5 0 13 6 15 9 4 10
6 1 6 -6 1 -14 -3 -18 -8z"/>
<path d="M2975 1731 c-3 -5 -2 -12 3 -15 5 -3 9 1 9 9 0 17 -3 19 -12 6z"/>
<path d="M3148 1653 c6 -2 10 -8 8 -12 -3 -4 1 -8 9 -8 8 0 15 4 15 8 0 7 -26
20 -38 18 -4 0 -1 -3 6 -6z"/>
<path d="M3125 1619 c-4 -6 -4 -13 -1 -16 3 -4 6 -1 6 6 0 7 5 9 12 5 7 -4 8
-3 4 4 -9 15 -13 15 -21 1z"/>
<path d="M5155 1560 c3 -5 8 -10 11 -10 2 0 4 5 4 10 0 6 -5 10 -11 10 -5 0
-7 -4 -4 -10z"/>
<path d="M175 1540 c3 -5 8 -10 11 -10 2 0 4 5 4 10 0 6 -5 10 -11 10 -5 0 -7
-4 -4 -10z"/>
<path d="M354 1498 c6 -20 -10 -25 -17 -5 -4 9 -6 9 -6 -1 -1 -7 6 -15 14 -18
8 -4 12 -10 9 -16 -3 -5 -13 -4 -22 4 -15 12 -16 11 -3 -4 12 -17 15 -17 42 3
16 11 29 23 29 27 0 3 -5 1 -12 -6 -17 -17 -33 -15 -18 3 7 9 10 18 6 22 -3 3
-6 0 -6 -8 0 -12 -2 -11 -11 1 -9 13 -10 12 -5 -2z"/>
<path d="M5010 1500 c0 -5 5 -10 11 -10 5 0 7 5 4 10 -3 6 -8 10 -11 10 -2 0
-4 -4 -4 -10z"/>
<path d="M5015 1471 c-3 -5 0 -13 6 -17 7 -4 9 -3 5 4 -3 5 0 13 6 15 9 4 10
6 1 6 -6 1 -14 -3 -18 -8z"/>
<path d="M3687 1320 c9 -10 10 -17 1 -27 -8 -11 -7 -12 6 -7 21 8 20 18 -1 35
-15 11 -16 11 -6 -1z"/>
<path d="M2990 1271 c0 -6 5 -11 11 -11 5 0 7 -6 3 -12 -5 -9 -2 -9 9 1 9 7
17 19 16 25 0 6 -3 6 -6 -2 -4 -10 -8 -10 -19 -1 -10 8 -14 8 -14 0z"/>
<path d="M2970 1240 c0 -5 5 -10 10 -10 6 0 10 5 10 10 0 6 -4 10 -10 10 -5 0
-10 -4 -10 -10z"/>
<path d="M3022 1234 c-7 -8 -8 -14 -3 -14 10 0 25 19 20 25 -2 1 -10 -3 -17
-11z"/>
<path d="M3159 1188 c-5 -16 -4 -46 2 -42 4 2 7 13 6 24 -1 17 -5 26 -8 18z"/>
<path d="M4410 1160 c0 -5 5 -10 10 -10 6 0 10 5 10 10 0 6 -4 10 -10 10 -5 0
-10 -4 -10 -10z"/>
<path d="M4450 1163 c14 -6 13 -24 -1 -20 -6 1 -14 -5 -16 -13 -4 -12 -3 -12
5 -1 8 11 12 10 20 -5 9 -16 11 -15 9 10 -1 16 -8 31 -15 32 -7 1 -8 0 -2 -3z"/>
<path d="M884 1140 c0 -13 4 -16 10 -10 7 7 7 13 0 20 -6 6 -10 3 -10 -10z"/>
<path d="M1066 1087 c3 -10 9 -15 12 -12 3 3 0 11 -7 18 -10 9 -11 8 -5 -6z"/>
<path d="M1173 995 c0 -8 4 -12 9 -9 5 3 6 10 3 15 -9 13 -12 11 -12 -6z"/>
<path d="M1300 920 c-9 -6 -10 -10 -3 -10 6 0 15 5 18 10 8 12 4 12 -15 0z"/>
<path d="M1300 896 c0 -2 7 -7 16 -10 8 -3 12 -2 9 4 -6 10 -25 14 -25 6z"/>
<path d="M1469 860 c-1 -5 -2 -16 -3 -22 -1 -7 -7 -18 -14 -23 -9 -7 -3 -10
24 -10 45 0 54 26 18 50 -14 9 -25 11 -25 5z m21 -21 c0 -5 4 -8 8 -5 5 3 9
-1 9 -9 0 -20 -33 -14 -34 7 -1 10 2 18 8 18 5 0 9 -5 9 -11z"/>
<path d="M2760 864 c0 -6 3 -14 8 -18 4 -4 7 -13 7 -18 0 -6 7 -13 15 -15 12
-4 12 -3 2 5 -8 5 -12 11 -11 13 2 2 -2 13 -9 24 -6 11 -12 15 -12 9z"/>
<path d="M2740 855 c0 -5 5 -17 10 -25 5 -8 10 -10 10 -5 0 6 -5 17 -10 25 -5
8 -10 11 -10 5z"/>
<path d="M2589 773 c-13 -16 -12 -17 4 -4 16 13 21 21 13 21 -2 0 -10 -8 -17
-17z"/>
<path d="M2466 685 c4 -8 8 -15 10 -15 2 0 4 7 4 15 0 8 -4 15 -10 15 -5 0 -7
-7 -4 -15z"/>
<path d="M1877 613 c6 -16 5 -17 -12 -3 -10 8 -16 10 -12 3 4 -6 1 -13 -5 -16
-7 -2 -1 -4 15 -4 27 0 37 19 17 32 -6 4 -7 -1 -3 -12z"/>
<path d="M2340 606 c0 -2 8 -10 18 -17 15 -13 16 -12 3 4 -13 16 -21 21 -21
13z"/>
<path d="M1850 570 c-9 -6 -10 -10 -3 -10 6 0 15 5 18 10 8 12 4 12 -15 0z"/>
</g>
</svg>
