<svg xmlns="http://www.w3.org/2000/svg" width="67" height="17" viewBox="0 0 67 17"><title>Слой 10</title><desc>Created with Avocode.</desc><path d="M57.3 6.9l5.54 9.6h3.7l-9.24-16-9.24 16h3.7zm-48.06 3.2l-5.55-9.6h-3.69l9.24 16 9.24-16h-3.7zm36.91 0c-.66 1.86-2.44 3.2-4.53 3.2-2.65 0-4.8-2.15-4.8-4.8s2.15-4.8 4.8-4.8c1.42 0 2.7.62 3.58 1.6h3.75c-1.23-2.82-4.05-4.8-7.33-4.8-4.41 0-8 3.58-8 8 0 4.41 3.59 8 8 8 4.42 0 8-3.59 8-8 0-.55-.05-1.08-.16-1.6h-8.67l-1.86 3.2zm-16.71-3.2c-.66-1.86-2.44-3.2-4.52-3.2-2.65 0-4.8 2.15-4.8 4.8s2.15 4.8 4.8 4.8c1.42 0 2.69-.62 3.57-1.6h3.76c-1.24 2.82-4.06 4.8-7.33 4.8-4.42 0-8-3.59-8-8 0-4.42 3.58-8 8-8 4.41 0 8 3.58 8 8 0 .55-.06 1.08-.16 1.6h-10.55l1.85-3.2z" fill="#b3b3b3"/></svg>