<svg id="logo" xmlns="http://www.w3.org/2000/svg" width="213.031" height="34" viewBox="0 0 213.031 34">
  <metadata><?xpacket begin="﻿" id="W5M0MpCehiHzreSzNTczkc9d"?>
<x:xmpmeta xmlns:x="adobe:ns:meta/" x:xmptk="Adobe XMP Core 5.6-c138 79.159824, 2016/09/14-01:09:01        ">
   <rdf:RDF xmlns:rdf="http://www.w3.org/1999/02/22-rdf-syntax-ns#">
      <rdf:Description rdf:about=""/>
   </rdf:RDF>
</x:xmpmeta>
                                                                                                    
                                                                                                    
                                                                                                    
                                                                                                    
                                                                                                    
                                                                                                    
                                                                                                    
                                                                                                    
                                                                                                    
                                                                                                    
                                                                                                    
                                                                                                    
                                                                                                    
                                                                                                    
                                                                                                    
                                                                                                    
                                                                                                    
                                                                                                    
                                                                                                    
                                                                                                    
                           
<?xpacket end="w"?></metadata>
<defs>
    <style>
      .cls-1 {
        fill: #141515;
      }

      .cls-1, .cls-2 {
        fill-rule: evenodd;
      }

      .cls-2 {
        fill: #ec681f;
      }
    </style>
  </defs>
  <path id="Слой_466" data-name="Слой 466" class="cls-1" d="M105.47,43.167h-5.033l-1.964-5.2H89.266l-1.907,5.2H82.44l8.937-22.932h4.976Zm8.242,0-8.135-22.932h5.041L116.4,37.2l5.615-16.966h4.919L118.72,43.167h-5.008Zm-16.7-9.084-3.208-8.5-3.118,8.5h6.327Z" transform="translate(-30 -13)"/>
  <path id="Слой_467" data-name="Слой 467" class="cls-2" d="M139.975,34.769V30.89h9.968v9.093a13.983,13.983,0,0,1-9.8,3.527q-5.709,0-8.684-3.331a12.376,12.376,0,0,1-2.971-8.561q0-5.88,3.307-8.806a11.785,11.785,0,0,1,8.077-2.922q8.3,0,9.781,6.744l-4.616.867q-1.044-3.634-5.156-3.634-6.581,0-6.58,7.562a9.462,9.462,0,0,0,1.685,5.942,5.809,5.809,0,0,0,4.87,2.161,8.813,8.813,0,0,0,5.426-1.9V34.769h-5.3Zm85.443,8.4V30.6h7.161a10.214,10.214,0,0,0,4.37-.671,2.637,2.637,0,0,0,1.285-2.586,2.715,2.715,0,0,0-1.145-2.529c-0.763-.463-2.358-0.7-4.8-0.7h-6.875V20.235h7.456a33.546,33.546,0,0,1,5.59.335,5.314,5.314,0,0,1,3.175,2.112,7.157,7.157,0,0,1,1.408,4.6,7.5,7.5,0,0,1-1.1,4.2,6.026,6.026,0,0,1-2.881,2.365,18.6,18.6,0,0,1-5.991.679h-3.036v8.642h-4.616ZM202.281,20.235H206.9V32.609a30.361,30.361,0,0,0,.188,3.986,3.184,3.184,0,0,0,1.326,2.087,5.1,5.1,0,0,0,3.135.851c1.694,0,2.848-.4,3.462-1.195s0.924-2.619.924-5.467V20.235h4.616v12.03a28.451,28.451,0,0,1-.515,6.3,6.027,6.027,0,0,1-2.529,3.519,9.969,9.969,0,0,1-5.811,1.424,11.67,11.67,0,0,1-5.819-1.211,6.121,6.121,0,0,1-2.848-3.143,20.89,20.89,0,0,1-.745-6.719v-12.2Zm-25.87,11.6q0-5.537,2.946-8.741t8.176-3.2q5.929,0,8.553,3.511a13.556,13.556,0,0,1,2.619,8.331q0,5.451-2.955,8.61a10.589,10.589,0,0,1-8.143,3.167,10.8,10.8,0,0,1-8.217-3.126Q176.407,37.253,176.411,31.832Zm4.812-.139a9.069,9.069,0,0,0,1.662,5.688,5.594,5.594,0,0,0,4.7,2.153,5.392,5.392,0,0,0,4.747-2.259,9.716,9.716,0,0,0,1.563-5.655q0-7.746-6.31-7.75Q181.224,23.868,181.223,31.693ZM154.305,43.167V29.958h8.013a12.273,12.273,0,0,0,4.673-.59,2.386,2.386,0,0,0,1.211-2.39,2.43,2.43,0,0,0-1-2.291q-0.995-.577-4.7-0.573h-8.2V20.235h9.723q4.518,0,6.752,1.367t2.235,5.049q0,5.512-6.041,6.4,2.346,1.228,5.107,5.639l2.8,4.477h-5.6l-4.926-7.423a5.189,5.189,0,0,0-1.646-1.629,5.9,5.9,0,0,0-2.856-.524h-0.933v9.575h-4.616Z" transform="translate(-30 -13)"/>
  <path id="Слой_468" data-name="Слой 468" class="cls-1" d="M69.567,35.858l-13.2,7.624-13.2-7.624V27.948l13.2,7.623L62.716,31.9V24.567l-13.2-7.623,6.851-3.956,13.2,7.624V35.858Z" transform="translate(-30 -13)"/>
  <path id="Слой_469" data-name="Слой 469" class="cls-2" d="M30,24.141l13.2-7.623,13.2,7.624v7.911L43.2,24.429,36.851,28.1v7.336l13.2,7.624L43.2,47.012,30,39.388V24.141Z" transform="translate(-30 -13)"/>
</svg>
