<svg id="manufacturer-2" xmlns="http://www.w3.org/2000/svg" width="183.031" height="45.62" viewBox="0 0 183.031 45.62">
  <metadata><?xpacket begin="﻿" id="W5M0MpCehiHzreSzNTczkc9d"?>
<x:xmpmeta xmlns:x="adobe:ns:meta/" x:xmptk="Adobe XMP Core 5.6-c138 79.159824, 2016/09/14-01:09:01        ">
   <rdf:RDF xmlns:rdf="http://www.w3.org/1999/02/22-rdf-syntax-ns#">
      <rdf:Description rdf:about=""/>
   </rdf:RDF>
</x:xmpmeta>
                                                                                                    
                                                                                                    
                                                                                                    
                                                                                                    
                                                                                                    
                                                                                                    
                                                                                                    
                                                                                                    
                                                                                                    
                                                                                                    
                                                                                                    
                                                                                                    
                                                                                                    
                                                                                                    
                                                                                                    
                                                                                                    
                                                                                                    
                                                                                                    
                                                                                                    
                                                                                                    
                           
<?xpacket end="w"?></metadata>
<defs>
    <style>
      .cls-1 {
        fill: #c8c8c8;
        fill-rule: evenodd;
      }
    </style>
  </defs>
  <path id="Слой_720" data-name="Слой 720" class="cls-1" d="M955.472,2096.67a11.154,11.154,0,0,1-11.154,11.15H783.584a11.135,11.135,0,0,1-7.878-3.26H775.7a11.134,11.134,0,0,1-3.266-7.89v-23.34a11.111,11.111,0,0,1,3.266-7.88l0.007-.01a11.135,11.135,0,0,1,7.878-3.26H944.318a11.14,11.14,0,0,1,7.88,3.26H952.2a11.132,11.132,0,0,1,3.268,7.89v23.34Zm-3.4,0v-23.34a7.723,7.723,0,0,0-2.27-5.48h0.007a7.748,7.748,0,0,0-5.489-2.27H783.584a7.723,7.723,0,0,0-5.48,2.26,0.061,0.061,0,0,0-.007.01l0.007-.01a0.061,0.061,0,0,0-.007.01,7.734,7.734,0,0,0-2.263,5.48v23.34a7.723,7.723,0,0,0,2.27,5.48H778.1a7.745,7.745,0,0,0,5.487,2.27H944.318A7.738,7.738,0,0,0,952.07,2096.67Z" transform="translate(-772.438 -2062.19)"/>
  <path id="Слой_721" data-name="Слой 721" class="cls-1" d="M820.257,2071.16h-8.67l-7.723,22.43-3.548-6.13s4.683-.17,4.855-7.46c0.215-9.05-9.015-9.09-9.015-9.09H780.55v26.43h8.323v-9.53h2.08l6.589,9.53H809.68l1.348-3.64h9.315l1.128,3.64h8.5Zm-31.212,5.65h6.071a2.947,2.947,0,0,1,2.773,3.29,2.789,2.789,0,0,1-2.6,2.5h-6.244v-5.79Zm24.1,11.17L816.1,2080l2.472,7.98h-5.423Z" transform="translate(-772.438 -2062.19)"/>
  <path id="Слой_722" data-name="Слой 722" class="cls-1" d="M837.769,2077.57l4.683,0.01v-6.42h-18.38v6.42l5.9-.01v19.77h7.8v-19.77Z" transform="translate(-772.438 -2062.19)"/>
  <path id="Слой_723" data-name="Слой 723" class="cls-1" d="M884.006,2084.98v-0.01a16.366,16.366,0,0,0-25.535-13.56l6.813,9.13a5.01,5.01,0,0,1,7.363,4.43v0.01H868.61l9.446,12.66,9.446-12.66h-3.5Z" transform="translate(-772.438 -2062.19)"/>
  <path id="Слой_724" data-name="Слой 724" class="cls-1" d="M869.937,2089.42a5.085,5.085,0,0,1-2.3.56,5.014,5.014,0,0,1-5.012-5h4.057l-9.446-12.65-9.447,12.65h3.477a16.371,16.371,0,0,0,25.5,13.58Z" transform="translate(-772.438 -2062.19)"/>
  <path id="Слой_725" data-name="Слой 725" class="cls-1" d="M848.127,2086.52h-3.475l6.619-8.87,0-.42v-6.07h-7.95v26.18H851.3v-10.82h-3.168Z" transform="translate(-772.438 -2062.19)"/>
  <path id="Слой_726" data-name="Слой 726" class="cls-1" d="M939.607,2090.93l0-19.77h-7.369v21.59l-8.149-21.59h-8.669l-7.633,22.16v-22.16H900.33v15.26l-9.017-15.26-7.355.01v12.27h6.636l-0.952,1.28,0.018,0.01-5.694,7.63v3.56l-0.015,1.16,0.014,0.26h7.348v-13.17l8.669,13.17h13.527l1.345-3.64h9.452l1.166,3.64h23.583v-6.41h-9.448Zm-22.636-2.95,2.952-7.98,2.551,7.98h-5.5Z" transform="translate(-772.438 -2062.19)"/>
</svg>
