<svg id="manufacturer-3" xmlns="http://www.w3.org/2000/svg" width="202" height="55.25" viewBox="0 0 202 55.25">
  <metadata><?xpacket begin="﻿" id="W5M0MpCehiHzreSzNTczkc9d"?>
<x:xmpmeta xmlns:x="adobe:ns:meta/" x:xmptk="Adobe XMP Core 5.6-c138 79.159824, 2016/09/14-01:09:01        ">
   <rdf:RDF xmlns:rdf="http://www.w3.org/1999/02/22-rdf-syntax-ns#">
      <rdf:Description rdf:about=""/>
   </rdf:RDF>
</x:xmpmeta>
                                                                                                    
                                                                                                    
                                                                                                    
                                                                                                    
                                                                                                    
                                                                                                    
                                                                                                    
                                                                                                    
                                                                                                    
                                                                                                    
                                                                                                    
                                                                                                    
                                                                                                    
                                                                                                    
                                                                                                    
                                                                                                    
                                                                                                    
                                                                                                    
                                                                                                    
                                                                                                    
                           
<?xpacket end="w"?></metadata>
<defs>
    <style>
      .cls-1 {
        fill: #c8c8c8;
        fill-rule: evenodd;
      }
    </style>
  </defs>
  <path id="Слой_712" data-name="Слой 712" class="cls-1" d="M1204.67,2095.91a9.7,9.7,0,0,0-1.51.6,12,12,0,0,1-5.57.91v-20.17h6.47v-2.56h-6.47v-7.98l-2.07,1.85c-1.12,1.03-1.24,1.34-2.7,2.56l-6.06,5.83c1.52,0,2.82.15,4.51,0.15v20.32c0,0.85-.2,2.27-0.1,2.8,0.49,2.72,5.72,3.58,7.74,1.68,1.02-.96,1.93-1.94,2.93-2.94,0.26-.26.44-0.42,0.68-0.68Zm-97.98-3.76,0,0c-0.53-.28-0.86-0.53-1.4-0.86-4.43-2.64-6.43-3.18-11.69-4.41,1.26-1.89,1.44-1.87,2.98-4.39a57.592,57.592,0,0,0,3.69-8.05c0.02-.04.07-0.17,0.09-0.21a0.851,0.851,0,0,1,.16-0.29c0.04,1.89,3.4,11.53,4.34,13.87Zm-18.81-6.17a31.3,31.3,0,0,0-11.16,2.08,10.017,10.017,0,0,0-2.84,1.68c1.38,0,3.75-.75,6.77-0.75h2.41c0.92,0,1.1.15,1.96,0.15-2.58,3.84-8.55,8.41-12.97,10.21a33.244,33.244,0,0,1-5.84,1.98c0,1.1,0,2.21-.01,3.31,0,1.21.16,1.98,0.16,3.31a6.715,6.715,0,0,0,1.97-.58c0.67-.25,1.2-0.44,1.88-0.68a47.481,47.481,0,0,0,10.14-5.36c3.21-2.12,8.57-7.39,10.24-10.54,1.88,0.16,8.13,2.99,10.32,4.28l3.63,2.39c0.33,0.25.52,0.39,0.86,0.64a35.943,35.943,0,0,1,5.25,5.14c0.5,0.62.87,1.07,1.31,1.7a47.116,47.116,0,0,1,3.35,5.53,9.458,9.458,0,0,1,.86,2.15h12.19a5.216,5.216,0,0,0-.97-1.44,144.277,144.277,0,0,1-10.02-15.26c-0.3-.52-0.6-1.09-0.93-1.64-1-1.64-2.51-4.82-3.43-6.65a125.352,125.352,0,0,1-5.85-14.31c-0.83-2.5-1.67-5.09-2.34-7.75l-1.89-8.19a0.937,0.937,0,0,0-.25.35l-1.45,3.37c-1.46,3.41-3.54,7.96-5.22,11.18-0.32.61-.62,1.07-0.96,1.76s-0.62,1.08-.95,1.75a100.789,100.789,0,0,1-5.65,9.26A2.348,2.348,0,0,0,1087.88,2085.98Zm48.61,13.39c-2.32,0-3.46-.93-3.46-3.31v-8.13c0-.81,1.05-1.58,1.54-2.07,1.21-1.2,7.64-6.88,7.64-3.19v13.09a3.006,3.006,0,0,1-.71,1.55A7.8,7.8,0,0,1,1136.49,2099.37Zm-9.93-34.31c0,10.18.21,20.19,0.14,30.25,0,1.36-.08,1.34.52,2.2,0.21,0.31.34,0.54,0.54,0.81,1.49,2.07,4.74,4.66,7.98,4.66h1.65c3.74,0,7.51-2.91,9.42-5.78,0.45-.69,1.57-2.59,1.57-3.55v-15.8c0-.73-2.39-7.08-10.2-0.27l-2.49,2.18a17.791,17.791,0,0,1-2.66,2v-17l3.98-1.59c1.01-.38.85-0.54,1.28-1.42a10.9,10.9,0,0,0,.91-1.96l-4.07-.15c-2.39,0-5.9,1.61-7.16,3.22C1127.55,2063.4,1126.56,2064.34,1126.56,2065.06Zm38.67,30.85c-0.8,0-1.2-.41-1.2-1.5v-12.35c0-2.13,9.18-6.54,9.18-3.31v10.99c0,0.56-2.95,3.06-3.5,3.57C1168.75,2094.21,1166.55,2095.91,1165.23,2095.91Zm-7.67-11.74v15.96c0,1.82,3,4.33,5.65,2.93l8.26-6.18a5.613,5.613,0,0,1,1.44-.97c0,1.24-.25,4.77.17,5.55,0.9,1.72,5.07,2.48,6.57,1.19,0.61-.51,1.23-0.95,1.86-1.45,1.21-.97,2.44-1.88,3.59-2.88a56.324,56.324,0,0,0-5.72,1.35c0-2.53-.15-4.53-0.15-7.07v-17.91h-10.84C1165.3,2074.69,1157.56,2078.83,1157.56,2084.17Z" transform="translate(-1003.58 -2057.38)"/>
  <path id="Слой_713" data-name="Слой 713" class="cls-1" d="M1204.67,2095.91a9.7,9.7,0,0,0-1.51.6,12,12,0,0,1-5.57.91v-20.17h6.47v-2.56h-6.47v-7.98l-2.07,1.85c-1.12,1.03-1.24,1.34-2.7,2.56l-6.06,5.83c1.52,0,2.82.15,4.51,0.15v20.32c0,0.85-.2,2.27-0.1,2.8,0.49,2.72,5.72,3.58,7.74,1.68,1.02-.96,1.93-1.94,2.93-2.94,0.26-.26.44-0.42,0.68-0.68Zm-97.98-3.76,0,0c-0.53-.28-0.86-0.53-1.4-0.86-4.43-2.64-6.43-3.18-11.69-4.41,1.26-1.89,1.44-1.87,2.98-4.39a57.592,57.592,0,0,0,3.69-8.05c0.02-.04.07-0.17,0.09-0.21a0.851,0.851,0,0,1,.16-0.29c0.04,1.89,3.4,11.53,4.34,13.87Zm-18.81-6.17a31.3,31.3,0,0,0-11.16,2.08,10.017,10.017,0,0,0-2.84,1.68c1.38,0,3.75-.75,6.77-0.75h2.41c0.92,0,1.1.15,1.96,0.15-2.58,3.84-8.55,8.41-12.97,10.21a33.244,33.244,0,0,1-5.84,1.98c0,1.1,0,2.21-.01,3.31,0,1.21.16,1.98,0.16,3.31a6.715,6.715,0,0,0,1.97-.58c0.67-.25,1.2-0.44,1.88-0.68a47.481,47.481,0,0,0,10.14-5.36c3.21-2.12,8.57-7.39,10.24-10.54,1.88,0.16,8.13,2.99,10.32,4.28l3.63,2.39c0.33,0.25.52,0.39,0.86,0.64a35.943,35.943,0,0,1,5.25,5.14c0.5,0.62.87,1.07,1.31,1.7a47.116,47.116,0,0,1,3.35,5.53,9.458,9.458,0,0,1,.86,2.15h12.19a5.216,5.216,0,0,0-.97-1.44,144.277,144.277,0,0,1-10.02-15.26c-0.3-.52-0.6-1.09-0.93-1.64-1-1.64-2.51-4.82-3.43-6.65a125.352,125.352,0,0,1-5.85-14.31c-0.83-2.5-1.67-5.09-2.34-7.75l-1.89-8.19a0.937,0.937,0,0,0-.25.35l-1.45,3.37c-1.46,3.41-3.54,7.96-5.22,11.18-0.32.61-.62,1.07-0.96,1.76s-0.62,1.08-.95,1.75a100.789,100.789,0,0,1-5.65,9.26A2.348,2.348,0,0,0,1087.88,2085.98Zm48.61,13.39c-2.32,0-3.46-.93-3.46-3.31v-8.13c0-.81,1.05-1.58,1.54-2.07,1.21-1.2,7.64-6.88,7.64-3.19v13.09a3.006,3.006,0,0,1-.71,1.55A7.8,7.8,0,0,1,1136.49,2099.37Zm-9.93-34.31c0,10.18.21,20.19,0.14,30.25,0,1.36-.08,1.34.52,2.2,0.21,0.31.34,0.54,0.54,0.81,1.49,2.07,4.74,4.66,7.98,4.66h1.65c3.74,0,7.51-2.91,9.42-5.78,0.45-.69,1.57-2.59,1.57-3.55v-15.8c0-.73-2.39-7.08-10.2-0.27l-2.49,2.18a17.791,17.791,0,0,1-2.66,2v-17l3.98-1.59c1.01-.38.85-0.54,1.28-1.42a10.9,10.9,0,0,0,.91-1.96l-4.07-.15c-2.39,0-5.9,1.61-7.16,3.22C1127.55,2063.4,1126.56,2064.34,1126.56,2065.06Zm38.67,30.85c-0.8,0-1.2-.41-1.2-1.5v-12.35c0-2.13,9.18-6.54,9.18-3.31v10.99c0,0.56-2.95,3.06-3.5,3.57C1168.75,2094.21,1166.55,2095.91,1165.23,2095.91Zm-7.67-11.74v15.96c0,1.82,3,4.33,5.65,2.93l8.26-6.18a5.613,5.613,0,0,1,1.44-.97c0,1.24-.25,4.77.17,5.55,0.9,1.72,5.07,2.48,6.57,1.19,0.61-.51,1.23-0.95,1.86-1.45,1.21-.97,2.44-1.88,3.59-2.88a56.324,56.324,0,0,0-5.72,1.35c0-2.53-.15-4.53-0.15-7.07v-17.91h-10.84C1165.3,2074.69,1157.56,2078.83,1157.56,2084.17Z" transform="translate(-1003.58 -2057.38)"/>
  <path id="Слой_714" data-name="Слой 714" class="cls-1" d="M1016.24,2083.87c0,3,2.22,6.08,3.66,7.78,3.79,4.52,14.53,9.1,13.55,14.84-0.43,2.48-1.46,3.25-1.71,4.17,4.21,0.98,7.54,1.38,10.95-1.99,4.63-4.58,3.13-9.03-.43-13.79-6.23-8.33-16.69-9.95-16.69-17.63a10.256,10.256,0,0,1,.45-2.56,13.647,13.647,0,0,0-6.74,2.74A8.43,8.43,0,0,0,1016.24,2083.87Z" transform="translate(-1003.58 -2057.38)"/>
  <path id="Слой_715" data-name="Слой 715" class="cls-1" d="M1044.23,2091.55a8.456,8.456,0,0,1-.45,3.61,12.748,12.748,0,0,0,6.73-2.45,7.8,7.8,0,0,0,2.18-2.49c3.47-5.75-2.06-12.35-6.67-15.81-0.93-.7-1.7-1.31-2.63-2.04-0.5-.4-0.85-0.68-1.3-1.1-0.31-.29-0.37-0.28-0.67-0.54l-2.91-3.11c-2.61-3.69-.95-5.64.6-8.58-1.11-.09-2.23-0.63-3.47-0.74a7.91,7.91,0,0,0-3.66.23,10.226,10.226,0,0,0-4,2.31,7.938,7.938,0,0,0-2.82,7.34,13.148,13.148,0,0,0,1.01,3.2,25.959,25.959,0,0,0,3.48,5.1,14.208,14.208,0,0,0,2.65,2.62c0.23,0.2.31,0.32,0.54,0.51C1036.72,2082.9,1044.23,2086.94,1044.23,2091.55Z" transform="translate(-1003.58 -2057.38)"/>
  <path id="Слой_716" data-name="Слой 716" class="cls-1" d="M1040.77,2064.31l15.01,14.63c0.26,0.24.43,0.42,0.68,0.68,6.62,6.63,6.84,4.71-2.49,13.99l-1.5,1.66a37.156,37.156,0,0,0-3.12,3.2,30.3,30.3,0,0,0,2.41,1.96L1062.1,2090c2.62-2.59,3.27-5.96.61-8.65-0.96-.97-1.82-1.82-2.79-2.78l-5.72-5.57c-0.96-.97-1.82-1.82-2.78-2.79l-8.54-8.31A25.085,25.085,0,0,0,1040.77,2064.31Z" transform="translate(-1003.58 -2057.38)"/>
  <path id="Слой_717" data-name="Слой 717" class="cls-1" d="M1004.5,2085.68c0,3.26,2.19,4.52,4.4,6.73,2.47,2.47,4.53,4.68,7.07,6.93,0.51,0.44.95,0.94,1.44,1.42l8.61,8.4a13.637,13.637,0,0,0,2.11-2.26l-10.5-10.27c-1.77-1.77-3.42-3.43-5.19-5.2l-2.64-2.48a9.361,9.361,0,0,1-1.84-2.06c-0.98-2.28,1.38-3.74,3.88-6.22,0.6-.59.91-1.07,1.5-1.65l6.21-6.29-2.26-2.1a41.255,41.255,0,0,0-3.5,3.42l-1.73,1.73-1.65,1.81-3.46,3.46C1005.82,2082.18,1004.5,2083.49,1004.5,2085.68Z" transform="translate(-1003.58 -2057.38)"/>
</svg>
