<svg id="manufacturer-4" xmlns="http://www.w3.org/2000/svg" width="174" height="76" viewBox="0 0 174 76">
  <metadata><?xpacket begin="﻿" id="W5M0MpCehiHzreSzNTczkc9d"?>
<x:xmpmeta xmlns:x="adobe:ns:meta/" x:xmptk="Adobe XMP Core 5.6-c138 79.159824, 2016/09/14-01:09:01        ">
   <rdf:RDF xmlns:rdf="http://www.w3.org/1999/02/22-rdf-syntax-ns#">
      <rdf:Description rdf:about=""/>
   </rdf:RDF>
</x:xmpmeta>
                                                                                                    
                                                                                                    
                                                                                                    
                                                                                                    
                                                                                                    
                                                                                                    
                                                                                                    
                                                                                                    
                                                                                                    
                                                                                                    
                                                                                                    
                                                                                                    
                                                                                                    
                                                                                                    
                                                                                                    
                                                                                                    
                                                                                                    
                                                                                                    
                                                                                                    
                                                                                                    
                           
<?xpacket end="w"?></metadata>
<defs>
    <style>
      .cls-1, .cls-4 {
        fill: none;
        stroke-miterlimit: 1.414;
      }

      .cls-1 {
        stroke: #c8c8c8;
        stroke-width: 1.233px;
      }

      .cls-1, .cls-2, .cls-3, .cls-4 {
        fill-rule: evenodd;
      }

      .cls-2 {
        fill: #c8c8c8;
      }

      .cls-3 {
        fill: #ececec;
      }

      .cls-4 {
        stroke: #ececec;
        stroke-width: 2.043px;
      }
    </style>
  </defs>
  <path id="Слой_729" data-name="Слой 729" class="cls-1" d="M1432.5,2085c0,20.22-38.32,36.61-85.58,36.61s-85.58-16.39-85.58-36.61,38.31-36.61,85.58-36.61S1432.5,2064.78,1432.5,2085Z" transform="translate(-1259.925 -2047)"/>
  <path id="Слой_730" data-name="Слой 730" class="cls-2" d="M1418.06,2084.88c0,16.72-32.01,30.26-71.49,30.26s-71.49-13.54-71.49-30.26,32.01-30.26,71.49-30.26S1418.06,2068.17,1418.06,2084.88Z" transform="translate(-1259.925 -2047)"/>
  <path id="Слой_731" data-name="Слой 731" class="cls-3" d="M1283.62,2075.49c0-2.9,1.18-4.33,3.66-4.33s3.65,1.43,3.65,4.33v10.62c0,4.74,2.2,7.12,6.44,7.12s6.44-2.38,6.44-7.12v-10.62c0-2.9,1.18-4.33,3.65-4.33s3.66,1.43,3.66,4.33v11.3c0,7.98-5.37,12.27-13.75,12.27s-13.75-4.29-13.75-12.27v-11.3Z" transform="translate(-1259.925 -2047)"/>
  <path id="Слой_732" data-name="Слой 732" class="cls-3" d="M1318.53,2098.97c-2.46,0-3.62-1.43-3.62-4.35V2075.5c0-2.69,1.03-4.09,3.35-4.09a4.838,4.838,0,0,1,3.84,1.97l13.36,14.96v-12.61c0-2.92,1.16-4.36,3.62-4.36s3.62,1.44,3.62,4.36v19.57c0,2.54-.99,3.83-3.31,3.83-1.52,0-2.77-.69-4.15-2.24l-13.09-14.65v12.38C1322.15,2097.54,1320.99,2098.97,1318.53,2098.97Z" transform="translate(-1259.925 -2047)"/>
  <path id="Слой_733" data-name="Слой 733" class="cls-3" d="M1360.39,2093.44c4.37,0,7.42-3.14,7.42-8.18,0-5.27-3-8.37-7.42-8.37s-7.43,3.1-7.43,8.37C1352.96,2090.3,1356.01,2093.44,1360.39,2093.44Zm0-22.3c8.88,0,15.01,5.61,15.01,14.05,0,8.4-6,14.04-15.01,14.04s-14.98-5.64-14.98-14.04C1345.41,2076.75,1351.51,2071.14,1360.39,2071.14Z" transform="translate(-1259.925 -2047)"/>
  <path id="Слой_734" data-name="Слой 734" class="cls-4" d="M1377.86,2098.94c-1.87,0-3.5-1.31-3.5-2.62,0-1.08.72-1.94,1.73-3.06l8.3-9-6.24-6.8c-1.01-1.08-1.73-1.94-1.73-2.99,0-1.49,1.54-2.72,3.79-2.72,1.4,0,2.6.78,3.99,2.31l4.8,5.23,4.89-5.3c1.39-1.5,2.73-2.28,4.13-2.28,1.72,0,3.4,1.31,3.4,2.61,0,1.2-.76,2.02-1.72,3.07l-6.29,6.8,8.3,9.11c0.96,1.08,1.78,1.9,1.78,3.06,0,1.35-1.64,2.62-3.55,2.62-1.59,0-2.84-.79-4.23-2.28l-6.91-7.55-6.86,7.51C1380.55,2098.16,1379.35,2098.94,1377.86,2098.94Z" transform="translate(-1259.925 -2047)"/>
  <path id="Слой_735" data-name="Слой 735" class="cls-3" d="M1406.78,2075.43h0.81c0.67,0,1.29-.04,1.29-0.81,0-.66-0.56-0.76-1.08-0.76h-1.02v1.57Zm-0.76-2.19h1.9c1.18,0,1.73.46,1.73,1.41a1.266,1.266,0,0,1-1.3,1.34l1.41,2.18h-0.82l-1.34-2.12h-0.82v2.12h-0.76v-4.93Zm1.64,6.07a3.6,3.6,0,1,0-3.48-3.62A3.483,3.483,0,0,0,1407.66,2079.31Zm0-7.82a4.22,4.22,0,1,1-4.25,4.2A4.2,4.2,0,0,1,1407.66,2071.49Z" transform="translate(-1259.925 -2047)"/>
</svg>
