<svg id="manufacturer-1" xmlns="http://www.w3.org/2000/svg" width="243.438" height="32" viewBox="0 0 243.438 32">
  <metadata><?xpacket begin="﻿" id="W5M0MpCehiHzreSzNTczkc9d"?>
<x:xmpmeta xmlns:x="adobe:ns:meta/" x:xmptk="Adobe XMP Core 5.6-c138 79.159824, 2016/09/14-01:09:01        ">
   <rdf:RDF xmlns:rdf="http://www.w3.org/1999/02/22-rdf-syntax-ns#">
      <rdf:Description rdf:about=""/>
   </rdf:RDF>
</x:xmpmeta>
                                                                                                    
                                                                                                    
                                                                                                    
                                                                                                    
                                                                                                    
                                                                                                    
                                                                                                    
                                                                                                    
                                                                                                    
                                                                                                    
                                                                                                    
                                                                                                    
                                                                                                    
                                                                                                    
                                                                                                    
                                                                                                    
                                                                                                    
                                                                                                    
                                                                                                    
                                                                                                    
                           
<?xpacket end="w"?></metadata>
<defs>
    <style>
      .cls-1 {
        fill: #c8c8c8;
        fill-rule: evenodd;
      }
    </style>
  </defs>
  <path id="Слой_708" data-name="Слой 708" class="cls-1" d="M487.5,2070.62h29.848v29.1H487.5v-29.1Zm20.081,27.19,1.708-.82,1.639-1.16,1.3-1.3,1.229-1.57,1.025-1.71,0.683-1.84,0.478-1.92,0.205-1.98-0.205-2.12-0.478-1.91-0.683-1.91-1.025-1.64-1.229-1.57-1.3-1.37-1.639-1.09-1.708-.89v24.8Zm-2.117.68-0.615-2.46-0.888-2.25-1.366-2.05-1.639-1.64-1.981-1.44-2.118-1.09-2.39-.68-2.459-.21h-1.5l-0.341.07-0.273.07h-0.41l-0.274.14,0.479,2.39,0.888,2.25,1.3,2.05,1.708,1.71,1.844,1.43,2.186,1.03,2.322,0.68,2.527,0.27,0.41-.07h1.093l0.41-.06,0.341-.07h0.41Zm-16.325-14.07,0.273,0.07h0.41l0.273,0.07,0.342,0.06h1.093l0.341,0.07,2.6-.27,2.459-.75,2.254-1.03,1.912-1.57,1.708-1.77,1.3-2.12,0.957-2.32,0.478-2.46-0.342-.14h-0.409l-0.41-.07-0.342-.07h-1.571l-2.6.21-2.391.68-2.186,1.1-1.912,1.57-1.708,1.77-1.229,2.12-0.956,2.32Z" transform="translate(-487.5 -2069.005)"/>
  <path id="Слой_709" data-name="Слой 709" class="cls-1" d="M551.227,2078.27v-6.76H527.662l0.888,0.27,0.82,0.34,0.683,0.28,0.478,0.34,0.478,0.34,0.273,0.62,0.2,0.68,0.068,0.89v20.35l-0.068.68-0.2.69-0.273.48-0.478.54-0.547.41-0.683.41-0.751.48-0.888.48h24.111v-6.9l-0.546.82-0.41.89-0.547.68-0.615.75-1.024.55-1.639.54-2.254.28-2.937.13-0.478-.06h-0.547l-0.546-.07-0.752-.07-0.614-.21-0.547-.27-0.341-.48-0.069-.48v-10.45h6.831l0.956,0.07,0.683,0.14,0.341,0.2,0.274,0.48,0.205,0.55,0.273,0.75,0.341,1.02v-8.12l-0.478,1.09-0.478.75-0.478.55-0.546.34-0.479.2-0.546.07h-6.9v-9.08l0.137-.48,0.137-.27,0.2-.21,0.2-.07,0.274-.07h3.756l2.528,0.07,1.775,0.28,1.3,0.41,0.888,0.68,0.615,0.68,0.41,0.82,0.409,0.96Zm156.618,6.42,6.42,6.63-5.191,5.12-0.341.21-0.342.41-0.546.34-0.615.41-0.751.47-0.888.48-1.025.55-1.093.48h10.246l-0.751-.21-0.547-.2-0.615-.28-0.409-.34-0.273-.41-0.137-.41,0.068-.47,0.273-.41,0.342-.62,0.546-.55,0.478-.61,0.547-.55,0.546-.61,0.615-.55,0.546-.68,0.683-.48,3.006,3.55,0.205,0.28,0.341,0.54,0.068,0.48v0.55l-0.136.61-0.41.55-0.615.48-0.888.34h13.729l-1.707-1.03-1.571-1.16-1.5-1.3-1.571-1.43-1.434-1.43-1.366-1.58-1.3-1.5L719.32,2089l4.849-4.31,0.957-.82,0.751-.68,0.615-.48,0.546-.48,0.546-.34,0.479-.27,0.614-.34,0.683-.34h-9.767l0.273,0.2,0.41,0.34,0.342,0.34,0.273,0.35,0.136,0.34,0.2,0.41,0.137,0.47,0.068,0.55-0.205.48-0.273.55-0.41.54-0.614.41-0.479.55-0.478.48-0.546.47-0.273.35-0.342-.41-0.478-.48-0.41-.48-0.546-.61-0.41-.48-0.342-.62-0.2-.48-0.136-.54v-0.41l0.136-.28,0.2-.34,0.205-.47,0.274-.41,0.409-.48,0.683-.34h-14l0.82,0.41,0.683,0.47,0.683,0.48,0.546,0.55,0.547,0.41,0.41,0.54,0.478,0.41Zm-42.621-12.43,0.478,0.14,0.546,0.2,0.479,0.14,0.478,0.2,0.341,0.35,0.2,0.41,0.205,0.68,0.068,0.89v20.69l-0.068.62-0.137.61-0.136.48-0.342.48-0.41.41-0.478.41-0.614.41-0.615.41h11.953l-0.751-.48-0.615-.48-0.547-.41-0.409-.34-0.342-.48-0.341-.48-0.137-.61v-25.89Zm-112.222,0,0.615,0.07,0.478,0.14,0.547,0.13,0.409,0.14,0.342,0.2,0.273,0.41,0.2,0.41,0.068,0.62v21.58l-0.068.62-0.068.61-0.205.48-0.273.41-0.41.41-0.478.34-0.683.48-0.752.48h11.953l-0.819-.55-0.615-.48-0.478-.34-0.342-.34-0.409-.41-0.205-.41-0.137-.61v-26.78Zm40.982,17.56v1.98l0.41,1.64,0.615,1.29,0.751,1.03,0.888,0.61,0.82,0.48,0.819,0.27,0.82,0.07,1.571-.07,1.434-.13,1.161-.34,1.025-.35,0.888-.47,0.751-.62,0.888-.68,0.956-.82-0.888,1.5-1.024,1.3-1.093,1.09-1.093.82-1.366.68-1.434.41-1.5.21-1.571.14-2.595-.28-2.118-.68-1.912-.96-1.5-1.36-1.161-1.51-0.82-1.7-0.615-1.85-0.136-1.84,0.478-3.76,1.366-2.73,2.186-1.98,2.8-1.3,3.279-.61,3.483-.07,3.484,0.41,3.346,0.95v6.15l-0.478-1.02-0.546-1.03-0.888-.82-0.956-.82-1.161-.68-1.23-.41-1.3-.14-1.366.21-1.161.34-1.093.55-0.956.68-0.683.89-0.683,1.09-0.478,1.16-0.342,1.44Zm-17.485,7.37,1.434-.07,1.229-.2,1.161-.34,1.162-.41,0.956-.48,0.956-.62,0.956-.61,0.957-.75-0.957,1.5-0.956,1.3-1.093,1.09-1.229.82-1.3.68-1.434.41-1.5.21-1.639.14-2.527-.28-2.186-.68-1.776-.96-1.639-1.36-1.23-1.51-0.819-1.7-0.615-1.85-0.137-1.84,0.137-2.05,0.615-1.91,0.888-1.64,1.3-1.57,1.64-1.23,1.844-.96,2.117-.61,2.391-.21,2.049,0.14,1.912,0.48,1.708,0.88,1.434,1.17,1.23,1.36,0.956,1.71,0.615,1.77,0.2,2.12v1.1h-13.8v1.91l0.342,1.5,0.683,1.23,0.751,0.89,0.82,0.61,0.82,0.48,0.888,0.27Zm-4.987-9.7h7.924l-0.069-.48-0.136-.61-0.342-.82-0.341-.96-0.479-.95-0.751-.75-0.888-.62-1.024-.13h-0.615l-0.683.2-0.615.41-0.614.48-0.547.75-0.478.82-0.273,1.16Zm46.31-7.44v-8.54l-9.016,10.52h3.21v11.41l0.137,1.22,0.341,1.23,0.41,1.23,0.751,1.1,1.025,0.88,1.229,0.62,1.64,0.2,1.229-.13,1.161-.21,1.093-.41,1.025-.68,0.819-.82,0.615-1.02,0.478-1.1,0.137-1.43-0.82.89-0.956.88-1.093.55-0.956.41-0.957-.07-0.819-.54-0.547-1.17-0.136-1.7v-11.34h4.918v-1.98h-4.918Zm10.45,3v13.05l-0.068.75-0.068.55-0.137.54-0.205.41-0.342.41-0.409.34-0.41.35-0.41.34h9.084l-0.683-.48-0.546-.55-0.342-.34-0.205-.41-0.136-.48-0.069-.41V2089l0.2-2.8,0.82-1.71,0.956-.96,1.23-.2,1.3,0.2,1.161,0.62,0.819,0.68,0.547,0.75,1.912-5.81-1.5-.27-1.367.07-1.229.2-1.093.55-1.024.62-0.957.75-0.819.68-0.888.89v-3.35h-7.1l0.342,0.27,0.41,0.35,0.341,0.27,0.342,0.34,0.205,0.41,0.136,0.41,0.137,0.48Zm14.48,6.36,0.205,2.25,0.615,2.05,1.093,1.84,1.434,1.51,1.571,1.16,1.776,0.88,1.981,0.55,2.117,0.21,2.323-.21,2.185-.68,1.844-.89,1.64-1.23,1.366-1.57,0.956-1.78,0.615-1.98,0.205-2.11-0.205-2.19-0.615-1.84-0.956-1.78-1.366-1.43L659.9,2081l-1.844-.88-2.185-.48-2.323-.14-2.117.14-1.981.41-1.776.82-1.571,1.16-1.434,1.36-1.093,1.78-0.615,1.91Zm6.557,0v-2.81l0.274-1.22,0.273-1.3,0.478-1.1,0.751-.88,1.025-.55,1.434-.2,1.5,0.27,1.161,0.61,0.82,0.96,0.546,1.23,0.342,1.3,0.2,1.23v1.29l0.069,1.17-0.069,1.36-0.068,1.5-0.205,1.3-0.41,1.3-0.546,1.02-0.888.76-1.093.61-1.366.21-1.434-.21-1.025-.61-0.751-.82-0.478-1.1-0.273-1.23-0.274-1.36v-2.73Zm50.066-9.64v16.47l0.069,0.68,0.205,0.55,0.2,0.61,0.41,0.48,0.41,0.54,0.547,0.35,0.683,0.34h-8.2l-0.136-3.14-1.093.95-1.161.82-1.23.68-1.229.41-1.23.28-1.229.2-1.025.07-0.888.07-1.366-.14-1.229-.41-1.025-.68-0.819-.75-0.615-1.03-0.41-1.09-0.341-1.16-0.069-1.16v-9.91l-0.068-.68-0.068-.41-0.205-.41-0.2-.27-0.273-.21-0.41-.2-0.342-.27-0.409-.21,7.854-1.37v14.21l0.41,1.71,0.956,0.89,1.5,0.41,1.639-.07,1.64-.48,1.5-.68,1.025-.75,0.41-.76V2083.8l-0.069-.68-0.136-.48-0.205-.41-0.342-.27-0.341-.2-0.41-.21-0.478-.27-0.41-.14Z" transform="translate(-487.5 -2069.005)"/>
</svg>
