<svg xmlns="http://www.w3.org/2000/svg" viewBox="0 0 317.825 317.825" enable-background="new 0 0 317.825 317.825"><path d="M301.934 143.021h-286.043c-8.772 0-15.891 7.119-15.891 15.891s7.119 15.891 15.891 15.891h286.042c8.74 0 15.891-7.119 15.891-15.891.001-8.772-7.15-15.891-15.89-15.891zM15.891 79.456h286.042c8.74 0 15.891-7.119 15.891-15.891s-7.151-15.891-15.891-15.891h-286.042c-8.772 0-15.891 7.119-15.891 15.891s7.119 15.891 15.891 15.891zM301.934 238.369h-286.043c-8.772 0-15.891 7.151-15.891 15.891s7.119 15.891 15.891 15.891h286.042c8.74 0 15.891-7.151 15.891-15.891.001-8.74-7.15-15.891-15.89-15.891z"/></svg>