<svg id="phone-icon" xmlns="http://www.w3.org/2000/svg" width="20" height="32" viewBox="0 0 20 32">
  <metadata><?xpacket begin="﻿" id="W5M0MpCehiHzreSzNTczkc9d"?>
<x:xmpmeta xmlns:x="adobe:ns:meta/" x:xmptk="Adobe XMP Core 5.6-c138 79.159824, 2016/09/14-01:09:01        ">
   <rdf:RDF xmlns:rdf="http://www.w3.org/1999/02/22-rdf-syntax-ns#">
      <rdf:Description rdf:about=""/>
   </rdf:RDF>
</x:xmpmeta>
                                                                                                    
                                                                                                    
                                                                                                    
                                                                                                    
                                                                                                    
                                                                                                    
                                                                                                    
                                                                                                    
                                                                                                    
                                                                                                    
                                                                                                    
                                                                                                    
                                                                                                    
                                                                                                    
                                                                                                    
                                                                                                    
                                                                                                    
                                                                                                    
                                                                                                    
                                                                                                    
                           
<?xpacket end="w"?></metadata>
<defs>
    <style>
      .cls-1, .cls-3 {
        fill: #115aa5;
      }

      .cls-1, .cls-2 {
        fill-rule: evenodd;
      }

      .cls-2 {
        fill: #fff;
      }
    </style>
  </defs>
  <path id="phone-icon-2" data-name="phone-icon" class="cls-1" d="M1701,17a2,2,0,0,0-2-2h-15a2,2,0,0,0-2,2V44a2,2,0,0,0,2,2h15a2,2,0,0,0,2-2V17Z" transform="translate(-1681.5 -14.5)"/>
  <path id="Слой_452" data-name="Слой 452" class="cls-2" d="M1700,18a2,2,0,0,0-2-2h-13a2,2,0,0,0-2,2V43a2,2,0,0,0,2,2h13a2,2,0,0,0,2-2V18Z" transform="translate(-1681.5 -14.5)"/>
  <path id="Слой_453" data-name="Слой 453" class="cls-1" d="M1700,19h-17v1h17V19Z" transform="translate(-1681.5 -14.5)"/>
  <path id="Слой_454" data-name="Слой 454" class="cls-1" d="M1700,38h-17v1h17V38Z" transform="translate(-1681.5 -14.5)"/>
  <circle id="Слой_455" data-name="Слой 455" class="cls-3" cx="10" cy="28" r="1.5"/>
</svg>
