<svg id="questions" xmlns="http://www.w3.org/2000/svg" width="745.969" height="295.97" viewBox="0 0 745.969 295.97">
  <metadata><?xpacket begin="﻿" id="W5M0MpCehiHzreSzNTczkc9d"?>
<x:xmpmeta xmlns:x="adobe:ns:meta/" x:xmptk="Adobe XMP Core 5.6-c138 79.159824, 2016/09/14-01:09:01        ">
   <rdf:RDF xmlns:rdf="http://www.w3.org/1999/02/22-rdf-syntax-ns#">
      <rdf:Description rdf:about=""/>
   </rdf:RDF>
</x:xmpmeta>
                                                                                                    
                                                                                                    
                                                                                                    
                                                                                                    
                                                                                                    
                                                                                                    
                                                                                                    
                                                                                                    
                                                                                                    
                                                                                                    
                                                                                                    
                                                                                                    
                                                                                                    
                                                                                                    
                                                                                                    
                                                                                                    
                                                                                                    
                                                                                                    
                                                                                                    
                                                                                                    
                           
<?xpacket end="w"?></metadata>
<defs>
    <style>
      .cls-1, .cls-5 {
        fill: #004791;
      }

      .cls-1, .cls-2, .cls-3, .cls-4 {
        fill-rule: evenodd;
      }

      .cls-2 {
        fill: #83b1e1;
      }

      .cls-3 {
        fill: #0351a1;
      }

      .cls-4 {
        fill: #fff;
      }
    </style>
  </defs>
  <g id="Слой_151" data-name="Слой 151">
    <g id="Слой_142" data-name="Слой 142">
      <path id="Слой_138" data-name="Слой 138" class="cls-1" d="M744,5862l259,259H763L604,5961l38-83h87Z" transform="translate(-587.031 -5825.03)"/>
      <path id="Слой_139" data-name="Слой 139" class="cls-2" d="M681.429,5825.41a86.335,86.335,0,0,0-16.859,0l-2.533,13.32a72.78,72.78,0,0,0-15.68,4.2l-8.85-10.26a85.711,85.711,0,0,0-14.6,8.42l4.462,12.8a73.217,73.217,0,0,0-11.478,11.48l-12.8-4.46a86.1,86.1,0,0,0-8.429,14.6l10.262,8.85a72.99,72.99,0,0,0-4.2,15.68l-13.313,2.53a86.034,86.034,0,0,0,0,16.86l13.313,2.53a72.99,72.99,0,0,0,4.2,15.68l-10.262,8.85a86.1,86.1,0,0,0,8.429,14.6l12.8-4.46a73.217,73.217,0,0,0,11.478,11.48l-4.462,12.79a85.1,85.1,0,0,0,14.6,8.43l8.85-10.26a72.78,72.78,0,0,0,15.68,4.2l2.533,13.32a86.335,86.335,0,0,0,16.859,0l2.534-13.32a72.78,72.78,0,0,0,15.68-4.2l8.85,10.26a85.1,85.1,0,0,0,14.6-8.43l-4.463-12.79a73.181,73.181,0,0,0,11.479-11.48l12.8,4.46a86.1,86.1,0,0,0,8.429-14.6l-10.262-8.85a72.99,72.99,0,0,0,4.2-15.68l13.313-2.53a86.034,86.034,0,0,0,0-16.86l-13.313-2.53a72.99,72.99,0,0,0-4.2-15.68l10.262-8.85a86.1,86.1,0,0,0-8.429-14.6l-12.8,4.46a73.181,73.181,0,0,0-11.479-11.48l4.463-12.8a85.711,85.711,0,0,0-14.6-8.42l-8.85,10.26a72.78,72.78,0,0,0-15.68-4.2ZM673,5893.8a17.2,17.2,0,1,1-17.2,17.2A17.21,17.21,0,0,1,673,5893.8Z" transform="translate(-587.031 -5825.03)"/>
      <path id="Слой_140" data-name="Слой 140" class="cls-3" d="M758.658,5918.66c-0.023.26-.047,0.51-0.072,0.77l-13.313,2.53a72.99,72.99,0,0,1-4.2,15.68l10.262,8.85a86.1,86.1,0,0,1-8.429,14.6l-12.8-4.46a73.181,73.181,0,0,1-11.479,11.48l4.463,12.79a85.1,85.1,0,0,1-14.6,8.43l-8.85-10.26a72.78,72.78,0,0,1-15.68,4.2l-2.534,13.32c-0.257.02-.514,0.05-0.771,0.07L633,5949l63-5,19-69Z" transform="translate(-587.031 -5825.03)"/>
      <path id="Слой_141" data-name="Слой 141" class="cls-4" d="M673,5856a55,55,0,1,1-55,55A55.023,55.023,0,0,1,673,5856Zm0,27.5a27.5,27.5,0,1,1-27.5,27.5A27.511,27.511,0,0,1,673,5883.5Z" transform="translate(-587.031 -5825.03)"/>
    </g>
    <g id="Слой_150" data-name="Слой 150">
      <path id="Слой_144" data-name="Слой 144" class="cls-1" d="M850.541,5948.54L1023,6121H863.192L757.32,6014.46l25.3-55.27h57.93Z" transform="translate(-587.031 -5825.03)"/>
      <g id="Слой_149" data-name="Слой 149">
        <path id="Слой_146" data-name="Слой 146" class="cls-2" d="M811.03,5926.26a54.834,54.834,0,0,0-10.718,0l-1.61,8.47a45.892,45.892,0,0,0-9.968,2.67l-5.626-6.53a55.222,55.222,0,0,0-9.282,5.36l2.837,8.14a46.5,46.5,0,0,0-7.3,7.29l-8.134-2.83a54.7,54.7,0,0,0-5.359,9.28l6.524,5.62a46.627,46.627,0,0,0-2.671,9.97l-8.463,1.61a54.7,54.7,0,0,0,0,10.72l8.463,1.61a46.627,46.627,0,0,0,2.671,9.97l-6.524,5.62a54.784,54.784,0,0,0,5.359,9.29l8.134-2.84a46.991,46.991,0,0,0,7.3,7.3l-2.837,8.13a54.546,54.546,0,0,0,9.282,5.36l5.626-6.53a46.49,46.49,0,0,0,9.968,2.68l1.61,8.46a54.834,54.834,0,0,0,10.718,0l1.61-8.46a46.49,46.49,0,0,0,9.968-2.68l5.626,6.53a54.546,54.546,0,0,0,9.282-5.36l-2.837-8.13a47.034,47.034,0,0,0,7.3-7.3l8.134,2.84a54.784,54.784,0,0,0,5.359-9.29l-6.524-5.62a46.627,46.627,0,0,0,2.671-9.97l8.463-1.61a54.7,54.7,0,0,0,0-10.72l-8.463-1.61a46.627,46.627,0,0,0-2.671-9.97l6.524-5.62a54.7,54.7,0,0,0-5.359-9.28l-8.134,2.83a46.538,46.538,0,0,0-7.3-7.29l2.837-8.14a55.222,55.222,0,0,0-9.282-5.36l-5.626,6.53a45.892,45.892,0,0,0-9.968-2.67Zm-5.359,43.48a10.935,10.935,0,1,1-10.934,10.93A10.939,10.939,0,0,1,805.671,5969.74Z" transform="translate(-587.031 -5825.03)"/>
        <path id="Слой_147" data-name="Слой 147" class="cls-3" d="M860.125,5985.54c-0.015.16-.03,0.33-0.046,0.49l-8.463,1.61a46.627,46.627,0,0,1-2.671,9.97l6.524,5.62a54.784,54.784,0,0,1-5.359,9.29l-8.134-2.84a47.034,47.034,0,0,1-7.3,7.3l2.837,8.13a54.546,54.546,0,0,1-9.282,5.36l-5.626-6.53a46.49,46.49,0,0,1-9.968,2.68l-1.61,8.46c-0.164.01-.327,0.03-0.491,0.04l-30.3-30.29,40.049-3.18,12.079-43.86Z" transform="translate(-587.031 -5825.03)"/>
        <path id="Слой_148" data-name="Слой 148" class="cls-4" d="M805.671,5945.71a34.96,34.96,0,1,1-34.964,34.96A34.975,34.975,0,0,1,805.671,5945.71Zm0,17.48a17.48,17.48,0,1,1-17.482,17.48A17.487,17.487,0,0,1,805.671,5963.19Z" transform="translate(-587.031 -5825.03)"/>
      </g>
    </g>
  </g>
  <g id="Слой_157" data-name="Слой 157">
    <path id="Слой_153" data-name="Слой 153" class="cls-1" d="M1203.5,5991.5L1333,6121H1213l-79.5-80,19-41.5H1196Z" transform="translate(-587.031 -5825.03)"/>
    <path id="Слой_154" data-name="Слой 154" class="cls-2" d="M1172.21,5973.21a42.305,42.305,0,0,0-8.42,0l-1.27,6.65a36.767,36.767,0,0,0-7.84,2.1l-4.43-5.13a43.825,43.825,0,0,0-7.3,4.22l2.23,6.4a36.108,36.108,0,0,0-5.73,5.73l-6.4-2.23a43.825,43.825,0,0,0-4.22,7.3l5.13,4.43a36.767,36.767,0,0,0-2.1,7.84l-6.65,1.27a42.305,42.305,0,0,0,0,8.42l6.65,1.27a36.767,36.767,0,0,0,2.1,7.84l-5.13,4.43a43.825,43.825,0,0,0,4.22,7.3l6.4-2.23a36.108,36.108,0,0,0,5.73,5.73l-2.23,6.4a43.825,43.825,0,0,0,7.3,4.22l4.43-5.13a37.366,37.366,0,0,0,7.84,2.1l1.27,6.65a42.305,42.305,0,0,0,8.42,0l1.27-6.65a37.366,37.366,0,0,0,7.84-2.1l4.43,5.13a43.825,43.825,0,0,0,7.3-4.22l-2.23-6.4a36.108,36.108,0,0,0,5.73-5.73l6.4,2.23a43.825,43.825,0,0,0,4.22-7.3l-5.13-4.43a36.767,36.767,0,0,0,2.1-7.84l6.65-1.27a42.305,42.305,0,0,0,0-8.42l-6.65-1.27a36.767,36.767,0,0,0-2.1-7.84l5.13-4.43a43.825,43.825,0,0,0-4.22-7.3l-6.4,2.23a36.108,36.108,0,0,0-5.73-5.73l2.23-6.4a43.825,43.825,0,0,0-7.3-4.22l-4.43,5.13a36.767,36.767,0,0,0-7.84-2.1ZM1168,6007.4a8.6,8.6,0,1,1-8.6,8.6A8.6,8.6,0,0,1,1168,6007.4Z" transform="translate(-587.031 -5825.03)"/>
    <path id="Слой_155" data-name="Слой 155" class="cls-3" d="M1210.83,6019.83c-0.01.13-.02,0.26-0.04,0.38l-6.65,1.27a36.767,36.767,0,0,1-2.1,7.84l5.13,4.43a43.825,43.825,0,0,1-4.22,7.3l-6.4-2.23a36.108,36.108,0,0,1-5.73,5.73l2.23,6.4a43.825,43.825,0,0,1-7.3,4.22l-4.43-5.13a37.366,37.366,0,0,1-7.84,2.1l-1.27,6.65c-0.12.02-.25,0.03-0.38,0.04L1148,6035l31.5-2.5,9.5-34.5Z" transform="translate(-587.031 -5825.03)"/>
    <path id="Слой_156" data-name="Слой 156" class="cls-4" d="M1168,5988.5a27.5,27.5,0,1,1-27.5,27.5A27.51,27.51,0,0,1,1168,5988.5Zm0,13.75a13.75,13.75,0,1,1-13.75,13.75A13.755,13.755,0,0,1,1168,6002.25Z" transform="translate(-587.031 -5825.03)"/>
  </g>
  <g id="Слой_166" data-name="Слой 166">
    <g id="Слой_161" data-name="Слой 161">
      <path id="Слой_160" data-name="Слой 160" class="cls-1" d="M969.65,6015l31.35-18,124,124h-50Z" transform="translate(-587.031 -5825.03)"/>
    </g>
    <g id="Слой_165" data-name="Слой 165">
      <path id="Слой_163" data-name="Слой 163" class="cls-2" d="M985,5987l16,9.24v18.47l-16,9.24-16-9.24v-18.47Z" transform="translate(-587.031 -5825.03)"/>
      <circle id="Слой_164" data-name="Слой 164" class="cls-5" cx="398.063" cy="180.44" r="9.5"/>
    </g>
  </g>
</svg>
