<svg id="service-2" xmlns="http://www.w3.org/2000/svg" width="295.69" height="340" viewBox="0 0 295.69 340">
  <metadata><?xpacket begin="﻿" id="W5M0MpCehiHzreSzNTczkc9d"?>
<x:xmpmeta xmlns:x="adobe:ns:meta/" x:xmptk="Adobe XMP Core 5.6-c138 79.159824, 2016/09/14-01:09:01        ">
   <rdf:RDF xmlns:rdf="http://www.w3.org/1999/02/22-rdf-syntax-ns#">
      <rdf:Description rdf:about=""/>
   </rdf:RDF>
</x:xmpmeta>
                                                                                                    
                                                                                                    
                                                                                                    
                                                                                                    
                                                                                                    
                                                                                                    
                                                                                                    
                                                                                                    
                                                                                                    
                                                                                                    
                                                                                                    
                                                                                                    
                                                                                                    
                                                                                                    
                                                                                                    
                                                                                                    
                                                                                                    
                                                                                                    
                                                                                                    
                                                                                                    
                           
<?xpacket end="w"?></metadata>
<defs>
    <style>
      .cls-1 {
        fill: #0052a6;
      }

      .cls-1, .cls-2, .cls-3, .cls-4, .cls-5 {
        fill-rule: evenodd;
      }

      .cls-2 {
        fill: #ec681f;
      }

      .cls-3 {
        fill: #283259;
      }

      .cls-4 {
        fill: #83b1e1;
      }

      .cls-5 {
        fill: #fff;
      }
    </style>
  </defs>
  <path id="Слой_97" data-name="Слой 97" class="cls-1" d="M1217.32,2606.32L1328,2717H1138.77L1082,2660.23C1103.61,2626.13,1092.63,2605.73,1217.32,2606.32Z" transform="translate(-1032.31 -2377)"/>
  <g id="Слой_115" data-name="Слой 115">
    <g id="Слой_102" data-name="Слой 102">
      <path id="Слой_100" data-name="Слой 100" class="cls-2" d="M1213.52,2599.48h-7.59a9.287,9.287,0,0,1-9.29-9.29v-1.58a10.089,10.089,0,0,0-10.08-10.08H1086.27a10.083,10.083,0,0,0-10.08,10.08v9.14a1.741,1.741,0,0,1-1.73,1.73h-0.36v4.19h143.48v-0.12A4.063,4.063,0,0,0,1213.52,2599.48Z" transform="translate(-1032.31 -2377)"/>
      <path id="Слой_101" data-name="Слой 101" class="cls-3" d="M1074.1,2603.67h143.48s-1.23,33.4-1.81,48.87a7.985,7.985,0,0,1-7.98,7.69h-123.9a7.985,7.985,0,0,1-7.98-7.69C1075.33,2637.07,1074.1,2603.67,1074.1,2603.67Z" transform="translate(-1032.31 -2377)"/>
    </g>
    <g id="Слой_114" data-name="Слой 114">
      <path id="Слой_104" data-name="Слой 104" class="cls-4" d="M1309.96,2408.21l12.36,3.25v5.2l-12.36,3.25v-11.7Z" transform="translate(-1032.31 -2377)"/>
      <path id="Слой_105" data-name="Слой 105" class="cls-3" d="M1306.05,2429.46a5.341,5.341,0,0,0,3.91-5.15v-20.49a5.353,5.353,0,0,0-3.91-5.16l-28.6-8.01h-32.51v46.82h32.51Z" transform="translate(-1032.31 -2377)"/>
      <path id="Слой_106" data-name="Слой 106" class="cls-5" d="M1227.38,2388.05h12.55a5.015,5.015,0,0,1,5.01,5.02v41.99a5.006,5.006,0,0,1-5.01,5.01h-12.55v-52.02Z" transform="translate(-1032.31 -2377)"/>
      <path id="Слой_107" data-name="Слой 107" class="cls-3" d="M1127.25,2377h-59.17a35.76,35.76,0,0,0-35.76,35.76h0a35.774,35.774,0,0,0,25.5,34.27,11.486,11.486,0,0,1,7.56,7.17c1.58,4.5,5.36,9.93,14.37,9.93h24.37c7.91,0.3,10.49,6.54,8.83,17.52-8.6,28.81-13.34,57.45-12.36,85.83-0.54,5.35-2.43,9.48-7.15,11.05h32.72c-3.69-55.35,11.42-69.41,10.84-89.73v-24.67c0.73-8.84,2.41-16.2-.65-18.67a10.125,10.125,0,0,1-3.58-6.85C1131.24,2422.12,1127.25,2377,1127.25,2377Z" transform="translate(-1032.31 -2377)"/>
      <path id="Слой_108" data-name="Слой 108" class="cls-2" d="M1188.85,2446.92a20.851,20.851,0,0,1-9.1-6.15c-0.92-1.08-1.84-2.15-2.69-3.13a15.066,15.066,0,0,1-3.64-9.83V2379.6l-46.17-2.6h-63.07v3.54a11.79,11.79,0,0,1-6.6,10.58,24.028,24.028,0,0,0-13.56,21.64h0a24.057,24.057,0,0,0,24.06,24.06h42.29c20.8-.44,26.11,13.87,26.63,27.31v24.67c0.58,20.32-14.53,34.38-10.84,89.73h32.3l-8.13-3.25-0.8-1.95-5.37-12.35,9.1-57.22c3.27-4.87,8.04-7.18,14.95-5.85l5.21-2.47c-1.57-11.6-2.57-24.36,19.58-30.69q2.88-.06,4.47-3.91l1.24-6.5h0.06l1.31-6.5-0.13.01,0.13-.66Z" transform="translate(-1032.31 -2377)"/>
      <path id="Слой_109" data-name="Слой 109" class="cls-3" d="M1168.21,2497.91c-0.47-2.44-2.53-3.81-6.5-3.9h-14.3c-3.66.73-6.63,3.16-8.46,8.45-6.74,21.85-8.98,47.51-7.8,76.07h44.22s-26.92-2.21-23.41-16.9q5.85-24.51,5.2-54.62C1157.04,2500.88,1163.04,2498.49,1168.21,2497.91Z" transform="translate(-1032.31 -2377)"/>
      <path id="Слой_110" data-name="Слой 110" class="cls-3" d="M1222.26,2445.73a5.624,5.624,0,0,0,5.12-5.61V2388a5.631,5.631,0,0,0-5.12-5.61c-10.04-.89-31.29-2.79-31.29-2.79h-17.55v53.8a15.685,15.685,0,0,0,15.11,15.68c1.48,0.06,2.44.09,2.44,0.09Z" transform="translate(-1032.31 -2377)"/>
      <path id="Слой_111" data-name="Слой 111" class="cls-3" d="M1151.31,2458.24a4.554,4.554,0,0,1,4.55-4.55h11.7a4.555,4.555,0,1,1,0,9.11h-11.7A4.556,4.556,0,0,1,1151.31,2458.24Z" transform="translate(-1032.31 -2377)"/>
      <path id="Слой_112" data-name="Слой 112" class="cls-3" d="M1055.22,2423.13a15.561,15.561,0,0,0,11.63,5.2h7.73v-5.2h-19.36Zm-3.86-8.45a15.571,15.571,0,0,0,1.3,4.55h21.92v-4.55h-23.22Zm1.3-8.45a15.4,15.4,0,0,0-1.3,4.55h23.22v-4.55h-21.92Zm21.92-3.91v-5.2h-7.73a15.561,15.561,0,0,0-11.63,5.2h19.36Z" transform="translate(-1032.31 -2377)"/>
      <path id="Слой_113" data-name="Слой 113" class="cls-3" d="M1192.92,2464.75h-17.23c-10.86,1.49-10.41,25.64-2.27,30.56h5.85c4.45,0.67,7.04-1.22,5.85-4.56-2.66-7.49-2.71-13.8,0-18.85C1187.32,2467.78,1193.8,2468.16,1192.92,2464.75Z" transform="translate(-1032.31 -2377)"/>
    </g>
  </g>
</svg>
