<svg id="service-3" xmlns="http://www.w3.org/2000/svg" width="435.969" height="295.97" viewBox="0 0 435.969 295.97">
  <metadata><?xpacket begin="﻿" id="W5M0MpCehiHzreSzNTczkc9d"?>
<x:xmpmeta xmlns:x="adobe:ns:meta/" x:xmptk="Adobe XMP Core 5.6-c138 79.159824, 2016/09/14-01:09:01        ">
   <rdf:RDF xmlns:rdf="http://www.w3.org/1999/02/22-rdf-syntax-ns#">
      <rdf:Description rdf:about=""/>
   </rdf:RDF>
</x:xmpmeta>
                                                                                                    
                                                                                                    
                                                                                                    
                                                                                                    
                                                                                                    
                                                                                                    
                                                                                                    
                                                                                                    
                                                                                                    
                                                                                                    
                                                                                                    
                                                                                                    
                                                                                                    
                                                                                                    
                                                                                                    
                                                                                                    
                                                                                                    
                                                                                                    
                                                                                                    
                                                                                                    
                           
<?xpacket end="w"?></metadata>
<defs>
    <style>
      .cls-1 {
        fill: #242c4e;
      }

      .cls-1, .cls-2, .cls-3, .cls-4 {
        fill-rule: evenodd;
      }

      .cls-2 {
        fill: #83b1e1;
      }

      .cls-3 {
        fill: #0351a1;
      }

      .cls-4 {
        fill: #fff;
      }
    </style>
  </defs>
  <g id="Слой_125" data-name="Слой 125">
    <path id="Слой_121" data-name="Слой 121" class="cls-1" d="M194,2878l259,259H213L54,2977l38-83h87Z" transform="translate(-37.031 -2841.03)"/>
    <path id="Слой_122" data-name="Слой 122" class="cls-2" d="M131.429,2841.41a86.335,86.335,0,0,0-16.859,0l-2.533,13.32a72.775,72.775,0,0,0-15.68,4.2l-8.85-10.26a85.1,85.1,0,0,0-14.6,8.43l4.463,12.79a73.209,73.209,0,0,0-11.479,11.48l-12.8-4.46a86.092,86.092,0,0,0-8.43,14.6l10.263,8.85a72.979,72.979,0,0,0-4.2,15.68l-13.312,2.53a86,86,0,0,0,0,16.86l13.313,2.53a72.979,72.979,0,0,0,4.2,15.68l-10.263,8.85a86.092,86.092,0,0,0,8.43,14.6l12.8-4.46a73.209,73.209,0,0,0,11.479,11.48l-4.463,12.79a85.1,85.1,0,0,0,14.6,8.43l8.85-10.26a72.775,72.775,0,0,0,15.68,4.2l2.533,13.32a86.335,86.335,0,0,0,16.859,0l2.533-13.32a72.773,72.773,0,0,0,15.681-4.2l8.85,10.26a85.1,85.1,0,0,0,14.6-8.43l-4.463-12.79a73.181,73.181,0,0,0,11.479-11.48l12.8,4.46a86.1,86.1,0,0,0,8.429-14.6l-10.262-8.85a72.99,72.99,0,0,0,4.2-15.68l13.313-2.53a86.034,86.034,0,0,0,0-16.86l-13.313-2.53a72.99,72.99,0,0,0-4.2-15.68l10.262-8.85a86.1,86.1,0,0,0-8.429-14.6l-12.8,4.46a73.181,73.181,0,0,0-11.479-11.48l4.463-12.79a85.1,85.1,0,0,0-14.6-8.43l-8.85,10.26a72.773,72.773,0,0,0-15.681-4.2ZM123,2909.8a17.2,17.2,0,1,1-17.2,17.2A17.21,17.21,0,0,1,123,2909.8Z" transform="translate(-37.031 -2841.03)"/>
    <path id="Слой_123" data-name="Слой 123" class="cls-3" d="M208.658,2934.66c-0.023.25-.047,0.51-0.072,0.77l-13.313,2.53a72.99,72.99,0,0,1-4.2,15.68l10.262,8.85a86.1,86.1,0,0,1-8.429,14.6l-12.8-4.46a73.181,73.181,0,0,1-11.479,11.48l4.463,12.79a85.1,85.1,0,0,1-14.6,8.43l-8.85-10.26a72.773,72.773,0,0,1-15.681,4.2l-2.533,13.32c-0.257.02-.514,0.05-0.771,0.07L83,2965l63-5,19-69Z" transform="translate(-37.031 -2841.03)"/>
    <path id="Слой_124" data-name="Слой 124" class="cls-4" d="M123,2872a55,55,0,1,1-55,55A55.023,55.023,0,0,1,123,2872Zm0,27.5A27.5,27.5,0,1,1,95.5,2927,27.511,27.511,0,0,1,123,2899.5Z" transform="translate(-37.031 -2841.03)"/>
  </g>
  <g id="Слой_133" data-name="Слой 133">
    <path id="Слой_127" data-name="Слой 127" class="cls-1" d="M300.541,2964.54L473,3137H313.192L207.32,3030.46l25.3-55.27h57.93Z" transform="translate(-37.031 -2841.03)"/>
    <g id="Слой_132" data-name="Слой 132">
      <path id="Слой_129" data-name="Слой 129" class="cls-2" d="M261.03,2942.26a54.834,54.834,0,0,0-10.718,0l-1.61,8.47a45.892,45.892,0,0,0-9.968,2.67l-5.626-6.53a55.222,55.222,0,0,0-9.282,5.36l2.837,8.14a46.5,46.5,0,0,0-7.3,7.29l-8.134-2.83a54.7,54.7,0,0,0-5.359,9.28l6.524,5.62a46.627,46.627,0,0,0-2.671,9.97l-8.463,1.61a54.7,54.7,0,0,0,0,10.72l8.463,1.61a46.627,46.627,0,0,0,2.671,9.97l-6.524,5.62a54.784,54.784,0,0,0,5.359,9.29l8.134-2.84a46.991,46.991,0,0,0,7.3,7.3l-2.837,8.13a54.546,54.546,0,0,0,9.282,5.36l5.626-6.53a46.49,46.49,0,0,0,9.968,2.68l1.61,8.46a54.834,54.834,0,0,0,10.718,0l1.61-8.46a46.49,46.49,0,0,0,9.968-2.68l5.626,6.53a54.546,54.546,0,0,0,9.282-5.36l-2.837-8.13a47.034,47.034,0,0,0,7.3-7.3l8.134,2.84a54.784,54.784,0,0,0,5.359-9.29l-6.524-5.62a46.686,46.686,0,0,0,2.671-9.97l8.463-1.61a54.7,54.7,0,0,0,0-10.72l-8.463-1.61a46.686,46.686,0,0,0-2.671-9.97l6.524-5.62a54.7,54.7,0,0,0-5.359-9.28l-8.134,2.83a46.538,46.538,0,0,0-7.3-7.29l2.837-8.14a55.222,55.222,0,0,0-9.282-5.36l-5.626,6.53a45.892,45.892,0,0,0-9.968-2.67Zm-5.359,43.48a10.935,10.935,0,1,1-10.934,10.93A10.939,10.939,0,0,1,255.671,2985.74Z" transform="translate(-37.031 -2841.03)"/>
      <path id="Слой_130" data-name="Слой 130" class="cls-3" d="M310.125,3001.54c-0.015.16-.03,0.33-0.046,0.49l-8.463,1.61a46.686,46.686,0,0,1-2.671,9.97l6.524,5.62a54.784,54.784,0,0,1-5.359,9.29l-8.134-2.84a47.034,47.034,0,0,1-7.3,7.3l2.837,8.13a54.546,54.546,0,0,1-9.282,5.36l-5.626-6.53a46.49,46.49,0,0,1-9.968,2.68l-1.61,8.46c-0.164.01-.327,0.03-0.491,0.04l-30.3-30.29,40.049-3.18,12.079-43.86Z" transform="translate(-37.031 -2841.03)"/>
      <path id="Слой_131" data-name="Слой 131" class="cls-4" d="M255.671,2961.71a34.96,34.96,0,1,1-34.964,34.96A34.975,34.975,0,0,1,255.671,2961.71Zm0,17.48a17.48,17.48,0,1,1-17.482,17.48A17.487,17.487,0,0,1,255.671,2979.19Z" transform="translate(-37.031 -2841.03)"/>
    </g>
  </g>
</svg>
