<svg id="service-4" xmlns="http://www.w3.org/2000/svg" width="271" height="368" viewBox="0 0 271 368">
  <metadata><?xpacket begin="﻿" id="W5M0MpCehiHzreSzNTczkc9d"?>
<x:xmpmeta xmlns:x="adobe:ns:meta/" x:xmptk="Adobe XMP Core 5.6-c138 79.159824, 2016/09/14-01:09:01        ">
   <rdf:RDF xmlns:rdf="http://www.w3.org/1999/02/22-rdf-syntax-ns#">
      <rdf:Description rdf:about=""/>
   </rdf:RDF>
</x:xmpmeta>
                                                                                                    
                                                                                                    
                                                                                                    
                                                                                                    
                                                                                                    
                                                                                                    
                                                                                                    
                                                                                                    
                                                                                                    
                                                                                                    
                                                                                                    
                                                                                                    
                                                                                                    
                                                                                                    
                                                                                                    
                                                                                                    
                                                                                                    
                                                                                                    
                                                                                                    
                                                                                                    
                           
<?xpacket end="w"?></metadata>
<defs>
    <style>
      .cls-1 {
        fill: #6da1d8;
      }

      .cls-1, .cls-2, .cls-3, .cls-4, .cls-5, .cls-6 {
        fill-rule: evenodd;
      }

      .cls-2 {
        fill: none;
        stroke: #283259;
        stroke-linecap: square;
        stroke-miterlimit: 1.414;
        stroke-width: 22px;
      }

      .cls-3 {
        fill: #005ab7;
      }

      .cls-4 {
        fill: #283259;
      }

      .cls-5 {
        fill: #fff;
      }

      .cls-6 {
        fill: #ec681f;
      }
    </style>
  </defs>
  <path id="Слой_171" data-name="Слой 171" class="cls-1" d="M1252,3066l71,71H1100l-22.48-22.48L1084,3104v-48.69Z" transform="translate(-1052 -2769)"/>
  <path id="Слой_173" data-name="Слой 173" class="cls-2" d="M1082.5,3033V2804a24,24,0,0,1,24-24h0a24,24,0,0,1,24,24v154.5A21.51,21.51,0,0,0,1152,2980h0a21.505,21.505,0,0,0,21.5-21.5V2804a24,24,0,0,1,24-24h0a24,24,0,0,1,24,24v229" transform="translate(-1052 -2769)"/>
  <path id="Слой_175" data-name="Слой 175" class="cls-3" d="M1242,3044H1062v16h180v-16Z" transform="translate(-1052 -2769)"/>
  <path id="Слой_176" data-name="Слой 176" class="cls-3" d="M1204.53,3031.06a5.524,5.524,0,0,0-4.95-3.06h-95.16a5.524,5.524,0,0,0-4.95,3.06L1093,3044h118Z" transform="translate(-1052 -2769)"/>
  <path id="Слой_178" data-name="Слой 178" class="cls-4" d="M1093,3066.52h-21v16h21v-16Z" transform="translate(-1052 -2769)"/>
  <path id="Слой_179" data-name="Слой 179" class="cls-5" d="M1093,3082.52h-21v16h21v-16Z" transform="translate(-1052 -2769)"/>
  <path id="Слой_180" data-name="Слой 180" class="cls-6" d="M1087,3098.52h-9v16h9v-16Z" transform="translate(-1052 -2769)"/>
  <path id="Слой_183" data-name="Слой 183" class="cls-6" d="M1226,3098.52h-9v16h9v-16Z" transform="translate(-1052 -2769)"/>
  <path id="Слой_184" data-name="Слой 184" class="cls-4" d="M1232,3066.52h-21v16h21v-16Z" transform="translate(-1052 -2769)"/>
  <path id="Слой_185" data-name="Слой 185" class="cls-5" d="M1232,3082.52h-21v16h21v-16Z" transform="translate(-1052 -2769)"/>
  <path id="Слой_187" data-name="Слой 187" class="cls-4" d="M1252,3059.52H1052v7h200v-7Z" transform="translate(-1052 -2769)"/>
</svg>
