<svg id="type-5" xmlns="http://www.w3.org/2000/svg" width="64" height="71.75" viewBox="0 0 64 71.75">
  <metadata><?xpacket begin="﻿" id="W5M0MpCehiHzreSzNTczkc9d"?>
<x:xmpmeta xmlns:x="adobe:ns:meta/" x:xmptk="Adobe XMP Core 5.6-c138 79.159824, 2016/09/14-01:09:01        ">
   <rdf:RDF xmlns:rdf="http://www.w3.org/1999/02/22-rdf-syntax-ns#">
      <rdf:Description rdf:about=""/>
   </rdf:RDF>
</x:xmpmeta>
                                                                                                    
                                                                                                    
                                                                                                    
                                                                                                    
                                                                                                    
                                                                                                    
                                                                                                    
                                                                                                    
                                                                                                    
                                                                                                    
                                                                                                    
                                                                                                    
                                                                                                    
                                                                                                    
                                                                                                    
                                                                                                    
                                                                                                    
                                                                                                    
                                                                                                    
                                                                                                    
                           
<?xpacket end="w"?></metadata>
<defs>
    <style>
      .cls-1 {
        fill: #ededed;
      }

      .cls-1, .cls-3, .cls-4, .cls-5, .cls-6 {
        fill-rule: evenodd;
      }

      .cls-2, .cls-5 {
        fill: #d8e4ef;
      }

      .cls-3 {
        fill: #509ceb;
      }

      .cls-4 {
        fill: #a2c0dc;
      }

      .cls-6 {
        fill: #005ab7;
      }
    </style>
  </defs>
  <path id="Слой_375" data-name="Слой 375" class="cls-1" d="M815,1527.46c17.661,0,32,2.23,32,4.97s-14.339,4.98-32,4.98-32-2.23-32-4.98S797.339,1527.46,815,1527.46Z" transform="translate(-783 -1465.66)"/>
  <g id="Слой_413" data-name="Слой 413">
    <g id="Слой_398" data-name="Слой 398">
      <g id="Слой_385" data-name="Слой 385">
        <circle id="Слой_379" data-name="Слой 379" class="cls-2" cx="39.11" cy="42.67" r="24.89"/>
        <path id="Слой_380" data-name="Слой 380" class="cls-3" d="M822.111,1484.15a24.175,24.175,0,1,1-24.178,24.17A24.185,24.185,0,0,1,822.111,1484.15Zm0,0.71a23.465,23.465,0,1,1-23.464,23.46A23.472,23.472,0,0,1,822.111,1484.86Z" transform="translate(-783 -1465.66)"/>
        <g id="Слой_384" data-name="Слой 384">
          <path id="Слой_382" data-name="Слой 382" class="cls-4" d="M821.755,1490.19a17.78,17.78,0,1,1-17.777,17.78A17.789,17.789,0,0,1,821.755,1490.19Z" transform="translate(-783 -1465.66)"/>
          <path id="Слой_383" data-name="Слой 383" class="cls-3" d="M809.918,1521.23a17.776,17.776,0,1,1,25.1-25.1A17.776,17.776,0,0,0,809.918,1521.23Z" transform="translate(-783 -1465.66)"/>
        </g>
      </g>
      <g id="Слой_393" data-name="Слой 393">
        <path id="Слой_387" data-name="Слой 387" class="cls-5" d="M807.889,1483.44A24.885,24.885,0,1,1,783,1508.32,24.9,24.9,0,0,1,807.889,1483.44Z" transform="translate(-783 -1465.66)"/>
        <path id="Слой_388" data-name="Слой 388" class="cls-3" d="M807.889,1484.15a24.175,24.175,0,1,1-24.178,24.17A24.185,24.185,0,0,1,807.889,1484.15Zm0,0.71a23.465,23.465,0,1,1-23.464,23.46A23.472,23.472,0,0,1,807.889,1484.86Z" transform="translate(-783 -1465.66)"/>
        <g id="Слой_392" data-name="Слой 392">
          <path id="Слой_390" data-name="Слой 390" class="cls-4" d="M807.533,1490.19a17.78,17.78,0,1,1-17.777,17.78A17.789,17.789,0,0,1,807.533,1490.19Z" transform="translate(-783 -1465.66)"/>
          <path id="Слой_391" data-name="Слой 391" class="cls-3" d="M795.7,1521.23a17.776,17.776,0,1,1,25.1-25.1A17.776,17.776,0,0,0,795.7,1521.23Z" transform="translate(-783 -1465.66)"/>
        </g>
      </g>
      <g id="Слой_397" data-name="Слой 397">
        <path id="Слой_395" data-name="Слой 395" class="cls-3" d="M805.452,1504.88c0-2.5,1.092-4.52,2.437-4.52s2.436,2.02,2.436,4.52c2.373-.77,4.637-0.36,5.052.92s-1.173,2.94-3.546,3.71c1.467,2.02,1.774,4.3.686,5.09s-3.162-.21-4.628-2.22c-1.466,2.01-3.54,3.01-4.628,2.22s-0.781-3.07.685-5.09c-2.372-.77-3.961-2.43-3.546-3.71S803.08,1504.11,805.452,1504.88Z" transform="translate(-783 -1465.66)"/>
        <path id="Слой_396" data-name="Слой 396" class="cls-6" d="M807.889,1506.19a2.135,2.135,0,1,1-2.133,2.13A2.136,2.136,0,0,1,807.889,1506.19Z" transform="translate(-783 -1465.66)"/>
      </g>
    </g>
    <g id="Слой_412" data-name="Слой 412">
      <g id="Слой_403" data-name="Слой 403">
        <path id="Слой_401" data-name="Слой 401" class="cls-3" d="M815,1465.66s-4.978,7.46-4.978,10.66a4.978,4.978,0,1,0,9.956,0C819.978,1473.12,815,1465.66,815,1465.66Z" transform="translate(-783 -1465.66)"/>
        <path id="Слой_402" data-name="Слой 402" class="cls-5" d="M812.867,1472.77s-2.134,2.49-2.134,3.55a2.134,2.134,0,1,0,4.267,0C815,1475.26,812.867,1472.77,812.867,1472.77Z" transform="translate(-783 -1465.66)"/>
      </g>
      <g id="Слой_407" data-name="Слой 407">
        <path id="Слой_405" data-name="Слой 405" class="cls-3" d="M829.222,1465.66s-4.978,7.46-4.978,10.66a4.978,4.978,0,1,0,9.956,0C834.2,1473.12,829.222,1465.66,829.222,1465.66Z" transform="translate(-783 -1465.66)"/>
        <path id="Слой_406" data-name="Слой 406" class="cls-5" d="M827.089,1472.77s-2.134,2.49-2.134,3.55a2.134,2.134,0,1,0,4.267,0C829.222,1475.26,827.089,1472.77,827.089,1472.77Z" transform="translate(-783 -1465.66)"/>
      </g>
      <g id="Слой_411" data-name="Слой 411">
        <path id="Слой_409" data-name="Слой 409" class="cls-3" d="M800.778,1465.66s-4.978,7.46-4.978,10.66a4.978,4.978,0,1,0,9.956,0C805.756,1473.12,800.778,1465.66,800.778,1465.66Z" transform="translate(-783 -1465.66)"/>
        <path id="Слой_410" data-name="Слой 410" class="cls-5" d="M798.644,1472.77s-2.133,2.49-2.133,3.55a2.134,2.134,0,1,0,4.267,0C800.778,1475.26,798.644,1472.77,798.644,1472.77Z" transform="translate(-783 -1465.66)"/>
      </g>
    </g>
  </g>
</svg>
