<svg id="type-4" xmlns="http://www.w3.org/2000/svg" width="61.281" height="68" viewBox="0 0 61.281 68">
  <metadata><?xpacket begin="﻿" id="W5M0MpCehiHzreSzNTczkc9d"?>
<x:xmpmeta xmlns:x="adobe:ns:meta/" x:xmptk="Adobe XMP Core 5.6-c138 79.159824, 2016/09/14-01:09:01        ">
   <rdf:RDF xmlns:rdf="http://www.w3.org/1999/02/22-rdf-syntax-ns#">
      <rdf:Description rdf:about=""/>
   </rdf:RDF>
</x:xmpmeta>
                                                                                                    
                                                                                                    
                                                                                                    
                                                                                                    
                                                                                                    
                                                                                                    
                                                                                                    
                                                                                                    
                                                                                                    
                                                                                                    
                                                                                                    
                                                                                                    
                                                                                                    
                                                                                                    
                                                                                                    
                                                                                                    
                                                                                                    
                                                                                                    
                                                                                                    
                                                                                                    
                           
<?xpacket end="w"?></metadata>
<defs>
    <style>
      .cls-1 {
        fill: #ededed;
      }

      .cls-1, .cls-2, .cls-3, .cls-4, .cls-5, .cls-6 {
        fill-rule: evenodd;
      }

      .cls-2 {
        fill: #a2c0dc;
      }

      .cls-3 {
        fill: #509ceb;
      }

      .cls-4 {
        fill: #d8e4ef;
      }

      .cls-5 {
        fill: #fff;
      }

      .cls-6 {
        fill: #ecb81f;
        stroke: #fff;
        stroke-linecap: round;
        stroke-miterlimit: 1.414;
        stroke-width: 2px;
      }
    </style>
  </defs>
  <g id="Слой_429" data-name="Слой 429">
    <path id="Слой_420" data-name="Слой 420" class="cls-1" d="M421.619,1527.88c16.908,0,30.636,2.14,30.636,4.77s-13.728,4.76-30.636,4.76-30.635-2.13-30.635-4.76S404.711,1527.88,421.619,1527.88Z" transform="translate(-390.969 -1470.25)"/>
    <path id="Слой_421" data-name="Слой 421" class="cls-2" d="M412.013,1479.31a16.9,16.9,0,0,0-3.336,0l-0.5,2.64a14.491,14.491,0,0,0-3.1.83l-1.751-2.03a16.944,16.944,0,0,0-2.89,1.66l0.884,2.54a14.389,14.389,0,0,0-2.272,2.27l-2.532-.89a17.415,17.415,0,0,0-1.669,2.89l2.031,1.76a14.49,14.49,0,0,0-.831,3.1l-2.635.5a17.1,17.1,0,0,0,0,3.34l2.635,0.5a14.49,14.49,0,0,0,.831,3.1l-2.031,1.75a16.639,16.639,0,0,0,1.669,2.89l2.532-.88a14.389,14.389,0,0,0,2.272,2.27l-0.884,2.53a17,17,0,0,0,2.89,1.67l1.751-2.03a14.491,14.491,0,0,0,3.1.83l0.5,2.64a16.9,16.9,0,0,0,3.336,0l0.5-2.64a14.482,14.482,0,0,0,3.1-.83l1.751,2.03a16.956,16.956,0,0,0,2.89-1.67l-0.883-2.53a14.382,14.382,0,0,0,2.271-2.27l2.533,0.88a16.635,16.635,0,0,0,1.668-2.89l-2.031-1.75a14.49,14.49,0,0,0,.831-3.1l2.635-.5a17.1,17.1,0,0,0,0-3.34l-2.635-.5a14.49,14.49,0,0,0-.831-3.1l2.031-1.76a17.409,17.409,0,0,0-1.668-2.89l-2.533.89a14.382,14.382,0,0,0-2.271-2.27l0.883-2.54a16.906,16.906,0,0,0-2.89-1.66l-1.751,2.03a14.482,14.482,0,0,0-3.1-.83Zm-1.668,13.53a3.405,3.405,0,1,1-3.4,3.41A3.41,3.41,0,0,1,410.345,1492.84Z" transform="translate(-390.969 -1470.25)"/>
    <path id="Слой_422" data-name="Слой 422" class="cls-3" d="M417.566,1489.99a10.211,10.211,0,1,1-14.442,0A10.215,10.215,0,0,1,417.566,1489.99Z" transform="translate(-390.969 -1470.25)"/>
    <path id="Слой_423" data-name="Слой 423" class="cls-4" d="M417.566,1489.03a10.211,10.211,0,1,1-14.442,0A10.215,10.215,0,0,1,417.566,1489.03Z" transform="translate(-390.969 -1470.25)"/>
    <path id="Слой_424" data-name="Слой 424" class="cls-5" d="M412.752,1493.84a3.406,3.406,0,1,1-4.814,0A3.412,3.412,0,0,1,412.752,1493.84Z" transform="translate(-390.969 -1470.25)"/>
    <path id="Слой_425" data-name="Слой 425" class="cls-2" d="M439.116,1503.1a16.408,16.408,0,0,0-3.223-.87l-1.166,2.42a14.383,14.383,0,0,0-3.213,0l-1.166-2.42a16.408,16.408,0,0,0-3.223.87l0.2,2.67a14.314,14.314,0,0,0-2.782,1.61l-2.218-1.51a16.193,16.193,0,0,0-2.359,2.36l1.509,2.21a14.487,14.487,0,0,0-1.607,2.79l-2.674-.2a16.932,16.932,0,0,0-.864,3.22l2.415,1.17a14.476,14.476,0,0,0,0,3.21l-2.415,1.17a16.932,16.932,0,0,0,.864,3.22l2.674-.2a14.116,14.116,0,0,0,1.607,2.78l-1.509,2.22a17.25,17.25,0,0,0,2.359,2.36l2.218-1.51a14.314,14.314,0,0,0,2.782,1.61l-0.2,2.67a17.133,17.133,0,0,0,3.223.87l1.166-2.42a14.383,14.383,0,0,0,3.213,0l1.166,2.42a17.133,17.133,0,0,0,3.223-.87l-0.2-2.67a14.314,14.314,0,0,0,2.782-1.61l2.218,1.51a17.25,17.25,0,0,0,2.359-2.36l-1.509-2.22a14.116,14.116,0,0,0,1.607-2.78l2.674,0.2a16.932,16.932,0,0,0,.864-3.22l-2.415-1.17a14.476,14.476,0,0,0,0-3.21l2.415-1.17a16.932,16.932,0,0,0-.864-3.22l-2.674.2a14.487,14.487,0,0,0-1.607-2.79l1.509-2.21a16.193,16.193,0,0,0-2.359-2.36l-2.218,1.51a14.314,14.314,0,0,0-2.782-1.61ZM434,1515.74a3.4,3.4,0,1,1-4.169,2.4A3.4,3.4,0,0,1,434,1515.74Z" transform="translate(-390.969 -1470.25)"/>
    <path id="Слой_426" data-name="Слой 426" class="cls-3" d="M441.715,1514.85a10.211,10.211,0,1,1-13.95-3.74A10.218,10.218,0,0,1,441.715,1514.85Z" transform="translate(-390.969 -1470.25)"/>
    <path id="Слой_427" data-name="Слой 427" class="cls-4" d="M441.964,1513.92a10.211,10.211,0,1,1-13.949-3.74A10.218,10.218,0,0,1,441.964,1513.92Z" transform="translate(-390.969 -1470.25)"/>
    <path id="Слой_428" data-name="Слой 428" class="cls-5" d="M436.068,1517.32a3.405,3.405,0,1,1-4.65-1.24A3.405,3.405,0,0,1,436.068,1517.32Z" transform="translate(-390.969 -1470.25)"/>
  </g>
  <g id="Слой_433" data-name="Слой 433">
    <path id="Слой_431" data-name="Слой 431" class="cls-3" d="M434.792,1472.08l-26.955,28.17,13.818,8.65-14.449,25.25,28.826-27-13.771-8.6Z" transform="translate(-390.969 -1470.25)"/>
    <path id="Слой_432" data-name="Слой 432" class="cls-6" d="M434.792,1472.08l-27.565,27.56,13.818,8.65-13.839,25.86,27.607-27.61-13.771-8.6Z" transform="translate(-390.969 -1470.25)"/>
  </g>
</svg>
