<svg id="type-2" xmlns="http://www.w3.org/2000/svg" width="64" height="69.72" viewBox="0 0 64 69.72">
  <metadata><?xpacket begin="﻿" id="W5M0MpCehiHzreSzNTczkc9d"?>
<x:xmpmeta xmlns:x="adobe:ns:meta/" x:xmptk="Adobe XMP Core 5.6-c138 79.159824, 2016/09/14-01:09:01        ">
   <rdf:RDF xmlns:rdf="http://www.w3.org/1999/02/22-rdf-syntax-ns#">
      <rdf:Description rdf:about=""/>
   </rdf:RDF>
</x:xmpmeta>
                                                                                                    
                                                                                                    
                                                                                                    
                                                                                                    
                                                                                                    
                                                                                                    
                                                                                                    
                                                                                                    
                                                                                                    
                                                                                                    
                                                                                                    
                                                                                                    
                                                                                                    
                                                                                                    
                                                                                                    
                                                                                                    
                                                                                                    
                                                                                                    
                                                                                                    
                                                                                                    
                           
<?xpacket end="w"?></metadata>
<defs>
    <style>
      .cls-1 {
        fill: #ededed;
      }

      .cls-1, .cls-2 {
        fill-rule: evenodd;
      }

      .cls-2 {
        fill: #a2c0dc;
      }
    </style>
  </defs>
  <path id="Слой_221" data-name="Слой 221" class="cls-1" d="M812,1087.31c17.661,0,32,2.23,32,4.98s-14.339,4.98-32,4.98-32-2.23-32-4.98S794.339,1087.31,812,1087.31Z" transform="translate(-780 -1027.56)"/>
  <path id="Слой_222" data-name="Слой 222" class="cls-2" d="M810.933,1046.82v-7.15l-6.451-6.4,1.474-1.43,4.977,4.98v-2.84l-3.607-3.56L808.8,1029l2.133,2.13v-3.55h2.134v3.55L815.2,1029l1.474,1.42-3.607,3.56v2.84l4.977-4.98,1.474,1.43-6.451,6.4v7.15a12.734,12.734,0,0,1,7.2,2.99l5.061-5.07-0.036-9.08,2.047,0.03v7.04l2.012-2.01-0.037-5.06,2.048,0.03v3.02l2.514-2.51,1.509,1.5-2.515,2.52h3.017l0.037,2.05-5.065-.04-2.011,2.01h7.039l0.037,2.05-9.088-.04-5.061,5.06a12.771,12.771,0,0,1,2.984,7.2h7.155l6.4-6.45,1.422,1.47-4.977,4.98H837.6l3.556-3.61,1.422,1.48-2.134,2.13H844v2.13h-3.556l2.134,2.14-1.422,1.47-3.556-3.61h-2.844l4.977,4.98-1.422,1.48-6.4-6.46h-7.155a12.714,12.714,0,0,1-2.984,7.2l5.061,5.06,9.088-.03-0.037,2.04h-7.039l2.011,2.02,5.065-.04-0.037,2.05h-3.017l2.515,2.51-1.509,1.51-2.514-2.51v3.01l-2.048.04,0.037-5.07-2.012-2.01v7.04l-2.047.04,0.036-9.09-5.061-5.06a12.723,12.723,0,0,1-7.2,2.98v7.16l6.451,6.4-1.474,1.42-4.977-4.98v2.85l3.607,3.55-1.474,1.43-2.133-2.14v3.56h-2.134v-3.56l-2.133,2.14-1.474-1.43,3.607-3.55v-2.85l-4.977,4.98-1.474-1.42,6.451-6.4v-7.16a12.723,12.723,0,0,1-7.2-2.98l-5.061,5.06,0.036,9.09-2.047-.04v-7.04l-2.012,2.01,0.037,5.07-2.048-.04v-3.01l-2.514,2.51-1.509-1.51,2.514-2.51h-3.017l-0.036-2.05,5.065,0.04,2.011-2.02h-7.04l-0.036-2.04,9.087,0.03,5.062-5.06a12.714,12.714,0,0,1-2.984-7.2h-7.155l-6.4,6.46-1.422-1.48,4.977-4.98H786.4l-3.556,3.61-1.422-1.47,2.133-2.14H780v-2.13h3.555l-2.133-2.13,1.422-1.48,3.556,3.61h2.844l-4.977-4.98,1.422-1.47,6.4,6.45h7.155a12.771,12.771,0,0,1,2.984-7.2l-5.062-5.06-9.087.04,0.036-2.05h7.04l-2.011-2.01-5.065.04,0.036-2.05h3.017l-2.514-2.52,1.509-1.5,2.514,2.51v-3.02l2.048-.03-0.037,5.06,2.012,2.01v-7.04l2.047-.03-0.036,9.08,5.061,5.07A12.734,12.734,0,0,1,810.933,1046.82Zm0,23.37v-8.04l-5.682,5.69A10.611,10.611,0,0,0,810.933,1070.19Zm7.816-2.35-5.682-5.69v8.04A10.611,10.611,0,0,0,818.749,1067.84Zm-15.007-1.51,5.683-5.69h-8.039A10.624,10.624,0,0,0,803.742,1066.33Zm18.872-5.69h-8.039l5.683,5.69A10.624,10.624,0,0,0,822.614,1060.64Zm-2.356-7.81-5.683,5.68h8.039A10.632,10.632,0,0,0,820.258,1052.83Zm-16.516,0a10.624,10.624,0,0,0-2.356,5.68h8.039Zm9.325-3.87V1057l5.682-5.68A10.7,10.7,0,0,0,813.067,1048.96Zm-2.134,0a10.7,10.7,0,0,0-5.682,2.36l5.682,5.68v-8.04Z" transform="translate(-780 -1027.56)"/>
</svg>
