<svg id="SvgjsSvg1000" xmlns="http://www.w3.org/2000/svg" version="1.1" xmlns:xlink="http://www.w3.org/1999/xlink" xmlns:svgjs="http://svgjs.com/svgjs" width="67" height="17" viewBox="0 0 67 17"><title>Слой 10</title><desc>Created with Avocode.</desc><defs id="SvgjsDefs1001"></defs><path id="SvgjsPath1007" d="M1520.3 6141.9L1525.84 6151.5H1529.54L1520.3 6135.5L1511.06 6151.5H1514.76ZM1472.24 6145.1L1466.69 6135.5H1463L1472.24 6151.5L1481.48 6135.5H1477.78ZM1509.15 6145.1C1508.49 6146.96 1506.71 6148.3 1504.6200000000001 6148.3C1501.97 6148.3 1499.8200000000002 6146.150000000001 1499.8200000000002 6143.5C1499.8200000000002 6140.85 1501.9700000000003 6138.7 1504.6200000000001 6138.7C1506.0400000000002 6138.7 1507.3200000000002 6139.32 1508.2 6140.3H1511.95C1510.72 6137.4800000000005 1507.9 6135.5 1504.6200000000001 6135.5C1500.21 6135.5 1496.6200000000001 6139.08 1496.6200000000001 6143.5C1496.6200000000001 6147.91 1500.21 6151.5 1504.6200000000001 6151.5C1509.0400000000002 6151.5 1512.6200000000001 6147.91 1512.6200000000001 6143.5C1512.6200000000001 6142.95 1512.5700000000002 6142.42 1512.46 6141.9H1503.79L1501.93 6145.099999999999ZM1492.44 6141.9C1491.78 6140.04 1490 6138.7 1487.92 6138.7C1485.27 6138.7 1483.1200000000001 6140.849999999999 1483.1200000000001 6143.5C1483.1200000000001 6146.15 1485.2700000000002 6148.3 1487.92 6148.3C1489.3400000000001 6148.3 1490.6100000000001 6147.68 1491.49 6146.7H1495.25C1494.01 6149.5199999999995 1491.19 6151.5 1487.92 6151.5C1483.5 6151.5 1479.92 6147.91 1479.92 6143.5C1479.92 6139.08 1483.5 6135.5 1487.92 6135.5C1492.3300000000002 6135.5 1495.92 6139.08 1495.92 6143.5C1495.92 6144.05 1495.8600000000001 6144.58 1495.76 6145.1H1485.21L1487.06 6141.900000000001Z " fill="#b3b3b3" fill-opacity="1" transform="matrix(1,0,0,1,-1463,-6135)"></path></svg>