<svg xmlns="http://www.w3.org/2000/svg" id="logo" viewBox="0 0 213.031 34">
  <defs>
    <style>
      .cls-1 { fill: #141515; } .cls-1, .cls-2 { fill-rule: evenodd; } .cls-2 { fill: #ec681f; }
    </style>
  </defs>
  <path id="Слой_466" d="M75.47 30.167h-5.033l-1.964-5.2h-9.207l-1.907 5.2h-4.92l8.93-22.932h4.97zm8.242 0L75.577 7.235h5.04L86.4 24.2l5.615-16.966h4.92L88.72 30.167h-5.008zm-16.7-9.084l-3.208-8.5-3.118 8.5h6.327z" data-name="Слой 466" class="cls-1"/>
  <path id="Слой_467" d="M109.975 21.77v-3.88h9.968v9.093a13.983 13.983 0 0 1-9.8 3.527q-5.71 0-8.684-3.33a12.376 12.376 0 0 1-2.98-8.562q0-5.88 3.3-8.806a11.785 11.785 0 0 1 8.075-2.922q8.3 0 9.78 6.744l-4.615.867q-1.044-3.63-5.156-3.63-6.58 0-6.58 7.56a9.462 9.462 0 0 0 1.684 5.94 5.81 5.81 0 0 0 4.87 2.17 8.813 8.813 0 0 0 5.425-1.9v-2.87h-5.3zm85.443 8.4V17.6h7.16a10.214 10.214 0 0 0 4.37-.67 2.637 2.637 0 0 0 1.286-2.587 2.715 2.715 0 0 0-1.145-2.53c-.77-.462-2.36-.7-4.8-.7h-6.88V7.236h7.45a33.546 33.546 0 0 1 5.59.335 5.314 5.314 0 0 1 3.17 2.12 7.157 7.157 0 0 1 1.41 4.6 7.5 7.5 0 0 1-1.1 4.2 6.026 6.026 0 0 1-2.88 2.37 18.6 18.6 0 0 1-5.997.68h-3.035v8.64h-4.616zM172.28 7.234h4.62V19.61a30.36 30.36 0 0 0 .188 3.985 3.184 3.184 0 0 0 1.326 2.087 5.1 5.1 0 0 0 3.135.85c1.69 0 2.84-.4 3.46-1.194s.92-2.62.92-5.467V7.24h4.61v12.03a28.45 28.45 0 0 1-.52 6.3 6.027 6.027 0 0 1-2.53 3.52 9.97 9.97 0 0 1-5.81 1.423 11.67 11.67 0 0 1-5.82-1.21 6.12 6.12 0 0 1-2.848-3.144 20.89 20.89 0 0 1-.747-6.72V7.24zm-25.87 11.6q0-5.537 2.947-8.74t8.176-3.2q5.93 0 8.553 3.51a13.556 13.556 0 0 1 2.62 8.33q0 5.452-2.956 8.61a10.59 10.59 0 0 1-8.143 3.168 10.8 10.8 0 0 1-8.217-3.126q-2.983-3.134-2.98-8.555zm4.813-.14a9.07 9.07 0 0 0 1.662 5.69 5.594 5.594 0 0 0 4.7 2.152 5.392 5.392 0 0 0 4.747-2.26 9.716 9.716 0 0 0 1.563-5.654q0-7.746-6.31-7.75-6.36-.005-6.362 7.82zm-26.918 11.472v-13.21h8.013a12.273 12.273 0 0 0 4.673-.59 2.386 2.386 0 0 0 1.22-2.39 2.43 2.43 0 0 0-1-2.29q-.99-.577-4.7-.573h-8.2v-3.88h9.73q4.52 0 6.75 1.368t2.238 5.05q0 5.51-6.04 6.4 2.345 1.23 5.106 5.64l2.8 4.48h-5.6l-4.925-7.42a5.19 5.19 0 0 0-1.647-1.63 5.9 5.9 0 0 0-2.856-.52h-.93v9.58h-4.62z" data-name="Слой 467" class="cls-2"/>
  <path id="Слой_468" d="M39.567 22.858l-13.2 7.624-13.2-7.624v-7.91l13.2 7.623 6.35-3.67v-7.33l-13.2-7.62L26.367 0l13.2 7.624v15.24z" data-name="Слой 468" class="cls-1"/>
  <path id="Слой_469" d="M0 11.14l13.2-7.62 13.2 7.624v7.91L13.2 11.43 6.85 15.1v7.336l13.2 7.624-6.85 3.952L0 26.388V11.14z" data-name="Слой 469" class="cls-2"/>
</svg>
