<svg id="manufacturer-2" xmlns="http://www.w3.org/2000/svg" width="183.031" height="45.62" viewBox="0 0 183.031 45.62"><defs><style>.cls-1 { fill: #c8c8c8; fill-rule: evenodd; }</style></defs><path id="Слой_720" data-name="Слой 720" class="cls-1" d="M183.034 34.48a11.154 11.154 0 0 1-11.154 11.15H11.146a11.135 11.135 0 0 1-7.878-3.26h-.006a11.134 11.134 0 0 1-3.266-7.89V11.14a11.11 11.11 0 0 1 3.266-7.88l.007-.01a11.135 11.135 0 0 1 7.877-3.26H171.88a11.14 11.14 0 0 1 7.88 3.26h.002a11.132 11.132 0 0 1 3.268 7.89v23.34zm-3.4 0V11.14a7.723 7.723 0 0 0-2.27-5.48h.007a7.748 7.748 0 0 0-5.488-2.27H11.146a7.723 7.723 0 0 0-5.48 2.26.06.06 0 0 0-.007.01l.006-.01a.06.06 0 0 0-.007.01 7.734 7.734 0 0 0-2.264 5.48v23.34a7.723 7.723 0 0 0 2.27 5.48h-.004a7.745 7.745 0 0 0 5.487 2.27h160.73a7.738 7.738 0 0 0 7.752-7.75z"/><path id="Слой_721" data-name="Слой 721" class="cls-1" d="M47.82 8.97h-8.67L31.425 31.4l-3.548-6.13s4.683-.17 4.855-7.46c.215-9.05-9.015-9.09-9.015-9.09H8.112v26.43h8.323v-9.53h2.08l6.59 9.53H37.24l1.348-3.64h9.315l1.128 3.64h8.5zm-31.213 5.65h6.07a2.947 2.947 0 0 1 2.774 3.29 2.79 2.79 0 0 1-2.6 2.5h-6.243v-5.79zm24.1 11.17l2.955-7.98 2.472 7.98H40.71z"/><path id="Слой_722" data-name="Слой 722" class="cls-1" d="M65.33 15.38l4.684.01V8.97h-18.38v6.42l5.9-.01v19.77h7.8V15.38z"/><path id="Слой_723" data-name="Слой 723" class="cls-1" d="M111.568 22.79v-.01A16.366 16.366 0 0 0 86.033 9.22l6.813 9.13a5.01 5.01 0 0 1 7.363 4.43v.01H96.17l9.446 12.66 9.446-12.66h-3.5z"/><path id="Слой_724" data-name="Слой 724" class="cls-1" d="M97.5 27.23a5.085 5.085 0 0 1-2.3.56 5.014 5.014 0 0 1-5.013-5h4.057l-9.446-12.65-9.447 12.65h3.478a16.37 16.37 0 0 0 25.5 13.58z"/><path id="Слой_725" data-name="Слой 725" class="cls-1" d="M75.69 24.33h-3.476l6.62-8.87V8.97h-7.95v26.18h7.978V24.33h-3.168z"/><path id="Слой_726" data-name="Слой 726" class="cls-1" d="M167.17 28.74V8.97h-7.37v21.59l-8.15-21.59h-8.668l-7.633 22.16V8.97h-7.458v15.26l-9.017-15.26-7.355.01v12.27h6.636l-.952 1.28.018.01-5.694 7.63v3.56l-.015 1.16.014.26h7.348V21.98l8.67 13.17h13.526l1.346-3.64h9.452l1.166 3.64h23.583v-6.41h-9.448zm-22.637-2.95l2.952-7.98 2.55 7.98h-5.5z"/></svg>