<svg id="manufacturer-4" xmlns="http://www.w3.org/2000/svg" width="174" height="76" viewBox="0 0 174 76"><defs><style>.cls-1, .cls-4 { fill: none; stroke-miterlimit: 1.414; } .cls-1 { stroke: #c8c8c8; stroke-width: 1.233px; } .cls-1, .cls-2, .cls-3, .cls-4 { fill-rule: evenodd; } .cls-2 { fill: #c8c8c8; } .cls-3 { fill: #ececec; } .cls-4 { stroke: #ececec; stroke-width: 2.043px; }</style></defs><path id="Слой_729" data-name="Слой 729" class="cls-1" d="M172.575 38c0 20.22-38.32 36.61-85.58 36.61S1.415 58.22 1.415 38s38.31-36.61 85.58-36.61 85.58 16.39 85.58 36.61z"/><path id="Слой_730" data-name="Слой 730" class="cls-2" d="M158.135 37.88c0 16.72-32.01 30.26-71.49 30.26s-71.49-13.54-71.49-30.26 32.01-30.26 71.49-30.26 71.49 13.55 71.49 30.26z"/><path id="Слой_731" data-name="Слой 731" class="cls-3" d="M23.695 28.49c0-2.9 1.18-4.33 3.66-4.33s3.65 1.43 3.65 4.33v10.62c0 4.74 2.2 7.12 6.44 7.12s6.44-2.38 6.44-7.12V28.49c0-2.9 1.18-4.33 3.65-4.33s3.66 1.43 3.66 4.33v11.3c0 7.98-5.37 12.27-13.75 12.27s-13.75-4.29-13.75-12.27v-11.3z"/><path id="Слой_732" data-name="Слой 732" class="cls-3" d="M58.605 51.97c-2.46 0-3.62-1.43-3.62-4.35V28.5c0-2.69 1.03-4.09 3.35-4.09a4.838 4.838 0 0 1 3.84 1.97l13.36 14.96V28.73c0-2.92 1.16-4.36 3.62-4.36s3.62 1.44 3.62 4.36V48.3c0 2.54-.99 3.83-3.31 3.83-1.52 0-2.77-.69-4.15-2.24l-13.09-14.65v12.38c0 2.92-1.16 4.35-3.62 4.35z"/><path id="Слой_733" data-name="Слой 733" class="cls-3" d="M100.465 46.44c4.37 0 7.42-3.14 7.42-8.18 0-5.27-3-8.37-7.42-8.37s-7.43 3.1-7.43 8.37c0 5.04 3.05 8.18 7.43 8.18zm0-22.3c8.88 0 15.01 5.61 15.01 14.05 0 8.4-6 14.04-15.01 14.04s-14.98-5.64-14.98-14.04c0-8.44 6.1-14.05 14.98-14.05z"/><path id="Слой_734" data-name="Слой 734" class="cls-4" d="M117.935 51.94c-1.87 0-3.5-1.31-3.5-2.62 0-1.08.72-1.94 1.73-3.06l8.3-9-6.24-6.8c-1.01-1.08-1.73-1.94-1.73-2.99 0-1.49 1.54-2.72 3.79-2.72 1.4 0 2.6.78 3.99 2.31l4.8 5.23 4.89-5.3c1.39-1.5 2.73-2.28 4.13-2.28 1.72 0 3.4 1.31 3.4 2.61 0 1.2-.76 2.02-1.72 3.07l-6.29 6.8 8.3 9.11c.96 1.08 1.78 1.9 1.78 3.06 0 1.35-1.64 2.62-3.55 2.62-1.59 0-2.84-.79-4.23-2.28l-6.91-7.55-6.86 7.51c-1.39 1.5-2.59 2.28-4.08 2.28z"/><path id="Слой_735" data-name="Слой 735" class="cls-3" d="M146.855 28.43h.81c.67 0 1.29-.04 1.29-.81 0-.66-.56-.76-1.08-.76h-1.02v1.57zm-.76-2.19h1.9c1.18 0 1.73.46 1.73 1.41a1.266 1.266 0 0 1-1.3 1.34l1.41 2.18h-.82l-1.34-2.12h-.82v2.12h-.76v-4.93zm1.64 6.07a3.6 3.6 0 1 0-3.48-3.62 3.483 3.483 0 0 0 3.48 3.62zm0-7.82a4.22 4.22 0 1 1-4.25 4.2 4.2 4.2 0 0 1 4.25-4.2z"/></svg>