<svg id="manufacturer-1" xmlns="http://www.w3.org/2000/svg" width="243.438" height="32" viewBox="0 0 243.438 32"><defs><style>.cls-1 { fill: #c8c8c8; fill-rule: evenodd; }</style></defs><path id="Слой_708" data-name="Слой 708" class="cls-1" d="M0 1.615h29.848v29.1H0v-29.1zm20.08 27.19l1.71-.82 1.638-1.16 1.3-1.3 1.23-1.57 1.024-1.71.683-1.84.478-1.92.205-1.98-.205-2.12-.478-1.91-.683-1.91-1.025-1.64-1.23-1.57-1.3-1.37-1.638-1.09-1.71-.89v24.8zm-2.116.68l-.615-2.46-.89-2.25-1.365-2.05-1.64-1.64-1.98-1.44-2.118-1.09-2.39-.68-2.46-.21h-1.5l-.34.07-.273.07h-.41l-.274.14.48 2.39.887 2.25 1.3 2.05 1.708 1.71 1.844 1.43 2.185 1.03 2.322.68 2.527.27.41-.07h1.093l.41-.06.34-.07h.41zM1.64 15.415l.272.07h.41l.273.07.342.06H4.03l.34.07 2.6-.27 2.46-.75 2.254-1.03 1.912-1.57 1.708-1.77 1.3-2.12.957-2.32.48-2.46-.343-.14h-.41l-.41-.07-.34-.07h-1.572l-2.6.21-2.39.68-2.187 1.1-1.912 1.57-1.708 1.77-1.23 2.12-.955 2.32z"/><path id="Слой_709" data-name="Слой 709" class="cls-1" d="M63.727 9.265v-6.76H40.162l.888.27.82.34.683.28.478.34.48.34.272.62.2.68.068.89v20.35l-.068.68-.2.69-.273.48-.48.54-.546.41-.683.41-.75.48-.888.48h24.11v-6.9l-.545.82-.41.89-.547.68-.615.75-1.024.55-1.638.54-2.254.28-2.937.13-.477-.06h-.547l-.546-.07-.752-.07-.614-.21-.547-.27-.34-.48-.07-.48v-10.45h6.83l.957.07.683.14.34.2.275.48.205.55.273.75.34 1.02v-8.12l-.477 1.09-.478.75-.478.55-.546.34-.478.2-.546.07h-6.9v-9.08l.137-.48.137-.27.2-.21.2-.07.274-.07h3.756l2.528.07 1.775.28 1.3.41.888.68.616.68.41.82.41.96zm156.618 6.42l6.42 6.63-5.19 5.12-.342.21-.342.41-.545.34-.615.41-.75.47-.89.48-1.024.55-1.093.48h10.246l-.752-.21-.547-.2-.614-.28-.41-.34-.272-.41-.137-.41.068-.47.273-.41.342-.62.546-.55.478-.61.547-.55.547-.61.615-.55.546-.68.683-.48 3.007 3.55.205.28.34.54.07.48v.55l-.137.61-.41.55-.615.48-.888.34h13.73l-1.708-1.03-1.57-1.16-1.5-1.3-1.572-1.43-1.434-1.43-1.366-1.58-1.3-1.5-1.162-1.36 4.85-4.31.956-.82.75-.68.616-.48.546-.48.546-.34.48-.27.613-.34.683-.34h-9.767l.273.2.41.34.342.34.273.35.137.34.2.41.137.47.068.55-.205.48-.273.55-.41.54-.614.41-.48.55-.477.48-.546.47-.273.35-.342-.41-.478-.48-.41-.48-.546-.61-.41-.48-.342-.62-.2-.48-.136-.54v-.41l.136-.28.2-.34.205-.47.275-.41.41-.48.682-.34h-14l.82.41.683.47.683.48.546.55.546.41.41.54.478.41zm-42.62-12.43l.477.14.546.2.48.14.477.2.34.35.2.41.206.68.07.89v20.69l-.07.62-.136.61-.136.48-.342.48-.41.41-.478.41-.614.41-.615.41h11.952l-.75-.48-.616-.48-.547-.41-.41-.34-.342-.48-.34-.48-.138-.61V1.615zm-112.223 0l.615.07.478.14.547.13.41.14.34.2.274.41.2.41.068.62v21.58l-.068.62-.068.61-.205.48-.273.41-.41.41-.478.34-.683.48-.753.48H77.45l-.82-.55-.614-.48-.478-.34-.342-.34-.41-.41-.204-.41-.137-.61V.865zm40.982 17.56v1.98l.41 1.64.615 1.29.75 1.03.888.61.82.48.82.27.82.07 1.57-.07 1.434-.13 1.16-.34 1.026-.35.888-.47.75-.62.89-.68.955-.82-.887 1.5-1.024 1.3-1.094 1.09-1.093.82-1.366.68-1.434.41-1.5.21-1.57.14-2.596-.28-2.118-.68-1.913-.96-1.5-1.36-1.16-1.51-.82-1.7-.616-1.85-.135-1.84.478-3.76 1.366-2.73 2.185-1.98 2.8-1.3 3.28-.61 3.482-.07 3.484.41 3.347.95v6.15l-.478-1.02-.547-1.03-.888-.82-.956-.82-1.162-.68-1.23-.41-1.3-.14-1.366.21-1.16.34-1.094.55-.956.68-.683.89-.684 1.09-.478 1.16-.342 1.44zM89 28.185l1.433-.07 1.23-.2 1.16-.34 1.162-.41.956-.48.957-.62.956-.61.957-.75-.957 1.5-.956 1.3-1.093 1.09-1.23.82-1.3.68-1.433.41-1.5.21-1.638.14-2.527-.28-2.186-.68-1.777-.96-1.64-1.36-1.23-1.51-.818-1.7-.615-1.85-.137-1.84.137-2.05.615-1.91.888-1.64 1.3-1.57 1.64-1.23 1.844-.96 2.117-.61 2.39-.21 2.05.14 1.912.48 1.708.88 1.434 1.17 1.23 1.36.956 1.71.615 1.77.2 2.12v1.1h-13.8v1.91l.34 1.5.684 1.23.75.89.82.61.82.48.89.27zm-4.988-9.7h7.924l-.07-.48-.135-.61-.34-.82-.342-.96-.48-.95-.75-.75-.888-.62-1.024-.13h-.615l-.682.2-.615.41-.614.48-.548.75-.478.82-.273 1.16zm46.31-7.44v-8.54l-9.016 10.52h3.21v11.41l.137 1.22.34 1.23.41 1.23.752 1.1 1.025.88 1.23.62 1.64.2 1.228-.13 1.16-.21 1.094-.41 1.025-.68.82-.82.614-1.02.48-1.1.136-1.43-.82.89-.956.88-1.093.55-.956.41-.956-.07-.82-.54-.546-1.17-.136-1.7v-11.34h4.918v-1.98h-4.918zm10.45 3v13.05l-.068.75-.068.55-.137.54-.206.41-.342.41-.41.34-.41.35-.41.34h9.085l-.683-.48-.546-.55-.342-.34-.205-.41-.135-.48-.07-.41v-8.12l.2-2.8.82-1.71.957-.96 1.23-.2 1.3.2 1.16.62.82.68.547.75 1.91-5.81-1.5-.27-1.366.07-1.23.2-1.092.55-1.024.62-.957.75-.818.68-.888.89v-3.35h-7.1l.342.27.41.35.34.27.343.34.204.41.136.41.137.48zm14.48 6.36l.205 2.25.615 2.05 1.093 1.84 1.434 1.51 1.57 1.16 1.776.88 1.98.55 2.118.21 2.323-.21 2.185-.68 1.844-.89 1.64-1.23 1.366-1.57.956-1.78.615-1.98.205-2.11-.205-2.19-.615-1.84-.956-1.78-1.366-1.43-1.636-1.17-1.844-.88-2.185-.48-2.322-.14-2.117.14-1.98.41-1.776.82-1.57 1.16-1.435 1.36-1.094 1.78-.615 1.91zm6.557 0v-2.81l.273-1.22.273-1.3.478-1.1.75-.88 1.026-.55 1.434-.2 1.5.27 1.16.61.82.96.547 1.23.343 1.3.2 1.23v1.29l.07 1.17-.07 1.36-.068 1.5-.205 1.3-.41 1.3-.546 1.02-.888.76-1.093.61-1.366.21-1.434-.21-1.025-.61-.75-.82-.48-1.1-.272-1.23-.274-1.36v-2.73zm50.065-9.64v16.47l.07.68.204.55.2.61.41.48.41.54.546.35.683.34h-8.2l-.137-3.14-1.093.95-1.16.82-1.23.68-1.23.41-1.23.28-1.23.2-1.024.07-.888.07-1.366-.14-1.23-.41-1.024-.68-.82-.75-.614-1.03-.41-1.09-.34-1.16-.07-1.16v-9.91l-.068-.68-.068-.41-.205-.41-.2-.27-.273-.21-.41-.2-.342-.27-.41-.21 7.855-1.37v14.21l.41 1.71.956.89 1.5.41 1.638-.07 1.64-.48 1.5-.68 1.025-.75.41-.76v-10.45l-.07-.68-.135-.48-.205-.41-.342-.27-.34-.2-.41-.21-.478-.27-.41-.14z"/></svg>