<svg xmlns="http://www.w3.org/2000/svg" width="20" height="32" viewBox="0 0 20 32"><defs><style>.cls-1, .cls-3 { fill: #115aa5; } .cls-1, .cls-2 { fill-rule: evenodd; } .cls-2 { fill: #fff; }</style></defs><path id="phone-icon-2" class="cls-1" d="M19.5 2.5a2 2 0 0 0-2-2h-15a2 2 0 0 0-2 2v27a2 2 0 0 0 2 2h15a2 2 0 0 0 2-2v-27z"/><path id="Слой_452" class="cls-2" d="M18.5 3.5a2 2 0 0 0-2-2h-13a2 2 0 0 0-2 2v25a2 2 0 0 0 2 2h13a2 2 0 0 0 2-2v-25z"/><path id="Слой_453" class="cls-1" d="M18.5 4.5h-17v1h17v-1z"/><path id="Слой_454" class="cls-1" d="M18.5 23.5h-17v1h17v-1z"/><circle id="Слой_455" class="cls-3" cx="10" cy="28" r="1.5"/></svg>