<svg xmlns="http://www.w3.org/2000/svg" width="271" height="368" viewBox="0 0 271 368"><defs><style>.cls-1 { fill: #6da1d8; } .cls-1, .cls-2, .cls-3, .cls-4, .cls-5, .cls-6 { fill-rule: evenodd; } .cls-2 { fill: none; stroke: #283259; stroke-linecap: square; stroke-miterlimit: 1.414; stroke-width: 22px; } .cls-3 { fill: #005ab7; } .cls-4 { fill: #283259; } .cls-5 { fill: #fff; } .cls-6 { fill: #ec681f; }</style></defs><path id="Слой_171" class="cls-1" d="M200 297l71 71h-223l-22.48-22.48 6.48-10.52v-48.69z"/><path id="Слой_173" class="cls-2" d="M1082.5 3033v-229a24 24 0 0 1 24-24 24 24 0 0 1 24 24v154.5a21.51 21.51 0 0 0 21.5 21.5 21.505 21.505 0 0 0 21.5-21.5v-154.5a24 24 0 0 1 24-24 24 24 0 0 1 24 24v229" transform="translate(-1052 -2769)"/><path id="Слой_175" class="cls-3" d="M190 275h-180v16h180v-16z"/><path id="Слой_176" class="cls-3" d="M1204.53 3031.06a5.524 5.524 0 0 0-4.95-3.06h-95.16a5.524 5.524 0 0 0-4.95 3.06l-6.47 12.94h118z" transform="translate(-1052 -2769)"/><path id="Слой_178" class="cls-4" d="M41 297.52h-21v16h21v-16z"/><path id="Слой_179" class="cls-5" d="M41 313.52h-21v16h21v-16z"/><path id="Слой_180" class="cls-6" d="M35 329.52h-9v16h9v-16z"/><path id="Слой_183" class="cls-6" d="M174 329.52h-9v16h9v-16z"/><path id="Слой_184" class="cls-4" d="M180 297.52h-21v16h21v-16z"/><path id="Слой_185" class="cls-5" d="M180 313.52h-21v16h21v-16z"/><path id="Слой_187" class="cls-4" d="M200 290.52h-200v7h200v-7z"/></svg>