<svg id="service-4" xmlns="http://www.w3.org/2000/svg" width="272" height="357" viewBox="0 0 272 357"><defs><style>.cls-1 { fill: #6da1d8; } .cls-1, .cls-2, .cls-3, .cls-4, .cls-5, .cls-6 { fill-rule: evenodd; } .cls-2 { fill: none; stroke: #283259; stroke-linecap: square; stroke-miterlimit: 1.414; stroke-width: 22px; } .cls-3 { fill: #005ab7; } .cls-4 { fill: #283259; } .cls-5 { fill: #fff; } .cls-6 { fill: #ec681f; }</style></defs><path id="Слой_171" data-name="Слой 171" class="cls-1" d="M200.5 291.5l71 71h-223l-22.48-22.48 6.48-10.52v-48.69z"/><path id="Слой_173" data-name="Слой 173" class="cls-2" d="M31 258.5v-229a24 24 0 0 1 24-24 24 24 0 0 1 24 24V184a21.51 21.51 0 0 0 21.5 21.5A21.505 21.505 0 0 0 122 184V29.5a24 24 0 0 1 24-24 24 24 0 0 1 24 24v229"/><path id="Слой_175" data-name="Слой 175" class="cls-3" d="M190.5 269.5h-180v16h180v-16z"/><path id="Слой_176" data-name="Слой 176" class="cls-3" d="M153.03 256.56a5.524 5.524 0 0 0-4.95-3.06H52.92a5.524 5.524 0 0 0-4.95 3.06L41.5 269.5h118z"/><path id="Слой_178" data-name="Слой 178" class="cls-4" d="M41.5 292.02h-21v16h21v-16z"/><path id="Слой_179" data-name="Слой 179" class="cls-5" d="M41.5 308.02h-21v16h21v-16z"/><path id="Слой_180" data-name="Слой 180" class="cls-6" d="M35.5 324.02h-9v16h9v-16z"/><path id="Слой_183" data-name="Слой 183" class="cls-6" d="M174.5 324.02h-9v16h9v-16z"/><path id="Слой_184" data-name="Слой 184" class="cls-4" d="M180.5 292.02h-21v16h21v-16z"/><path id="Слой_185" data-name="Слой 185" class="cls-5" d="M180.5 308.02h-21v16h21v-16z"/><path id="Слой_187" data-name="Слой 187" class="cls-4" d="M200.5 285.02H.5v7h200v-7z"/></svg>