<svg id="service-2" xmlns="http://www.w3.org/2000/svg" width="295.69" height="340" viewBox="0 0 295.69 340"><defs><style>.cls-1 { fill: #0052a6; } .cls-1, .cls-2, .cls-3, .cls-4, .cls-5 { fill-rule: evenodd; } .cls-2 { fill: #ec681f; } .cls-3 { fill: #283259; } .cls-4 { fill: #83b1e1; } .cls-5 { fill: #fff; }</style></defs><path id="Слой_97" data-name="Слой 97" class="cls-1" d="M185.01 229.32L295.69 340H106.46l-56.77-56.77c21.61-34.1 10.63-54.5 135.32-53.91z"/><g id="Слой_115" data-name="Слой 115"><g id="Слой_102" data-name="Слой 102"><path id="Слой_100" data-name="Слой 100" class="cls-2" d="M181.21 222.48h-7.59a9.287 9.287 0 0 1-9.29-9.29v-1.58a10.09 10.09 0 0 0-10.08-10.08H53.96a10.083 10.083 0 0 0-10.08 10.08v9.14a1.74 1.74 0 0 1-1.73 1.73h-.36v4.19h143.48v-.12a4.063 4.063 0 0 0-4.06-4.07z"/><path id="Слой_101" data-name="Слой 101" class="cls-3" d="M41.79 226.67h143.48s-1.23 33.4-1.81 48.87a7.985 7.985 0 0 1-7.98 7.69H51.58a7.985 7.985 0 0 1-7.98-7.69c-.58-15.47-1.81-48.87-1.81-48.87z"/></g><g id="Слой_114" data-name="Слой 114"><path id="Слой_104" data-name="Слой 104" class="cls-4" d="M277.65 31.21l12.36 3.25v5.2l-12.36 3.25v-11.7z"/><path id="Слой_105" data-name="Слой 105" class="cls-3" d="M273.74 52.46a5.34 5.34 0 0 0 3.91-5.15V26.82a5.353 5.353 0 0 0-3.91-5.16l-28.6-8.01h-32.51v46.82h32.51z"/><path id="Слой_106" data-name="Слой 106" class="cls-5" d="M195.07 11.05h12.55a5.015 5.015 0 0 1 5.01 5.02v41.99a5.006 5.006 0 0 1-5.01 5.01h-12.55V11.05z"/><path id="Слой_107" data-name="Слой 107" class="cls-3" d="M94.94 0H35.77A35.76 35.76 0 0 0 .01 35.76a35.774 35.774 0 0 0 25.5 34.27 11.486 11.486 0 0 1 7.56 7.17c1.58 4.5 5.36 9.93 14.37 9.93h24.37c7.91.3 10.49 6.54 8.83 17.52-8.6 28.81-13.34 57.45-12.36 85.83-.54 5.35-2.43 9.48-7.15 11.05h32.72c-3.69-55.35 11.42-69.41 10.84-89.73V87.13c.73-8.84 2.41-16.2-.65-18.67a10.125 10.125 0 0 1-3.58-6.85C98.93 45.12 94.94 0 94.94 0z"/><path id="Слой_108" data-name="Слой 108" class="cls-2" d="M156.54 69.92a20.85 20.85 0 0 1-9.1-6.15c-.92-1.08-1.84-2.15-2.69-3.13a15.066 15.066 0 0 1-3.64-9.83V2.6L94.94 0H31.87v3.54a11.79 11.79 0 0 1-6.6 10.58 24.028 24.028 0 0 0-13.56 21.64 24.057 24.057 0 0 0 24.06 24.06h42.29c20.8-.44 26.11 13.87 26.63 27.31v24.67c.58 20.32-14.53 34.38-10.84 89.73h32.3l-8.13-3.25-.8-1.95-5.37-12.35 9.1-57.22c3.27-4.87 8.04-7.18 14.95-5.85l5.21-2.47c-1.57-11.6-2.57-24.36 19.58-30.69q2.88-.06 4.47-3.91l1.24-6.5h.06l1.31-6.5-.13.01.13-.66z"/><path id="Слой_109" data-name="Слой 109" class="cls-3" d="M135.9 120.91c-.47-2.44-2.53-3.81-6.5-3.9h-14.3c-3.66.73-6.63 3.16-8.46 8.45-6.74 21.85-8.98 47.51-7.8 76.07h44.22s-26.92-2.21-23.41-16.9q5.85-24.51 5.2-54.62c-.12-6.13 5.88-8.52 11.05-9.1z"/><path id="Слой_110" data-name="Слой 110" class="cls-3" d="M189.95 68.73a5.624 5.624 0 0 0 5.12-5.61V11a5.63 5.63 0 0 0-5.12-5.61c-10.04-.89-31.29-2.79-31.29-2.79h-17.55v53.8a15.685 15.685 0 0 0 15.11 15.68c1.48.06 2.44.09 2.44.09z"/><path id="Слой_111" data-name="Слой 111" class="cls-3" d="M119 81.24a4.554 4.554 0 0 1 4.55-4.55h11.7a4.555 4.555 0 1 1 0 9.11h-11.7a4.556 4.556 0 0 1-4.55-4.56z"/><path id="Слой_112" data-name="Слой 112" class="cls-3" d="M22.91 46.13a15.56 15.56 0 0 0 11.63 5.2h7.73v-5.2H22.91zm-3.86-8.45a15.57 15.57 0 0 0 1.3 4.55h21.92v-4.55H19.05zm1.3-8.45a15.4 15.4 0 0 0-1.3 4.55h23.22v-4.55H20.35zm21.92-3.91v-5.2h-7.73a15.56 15.56 0 0 0-11.63 5.2h19.36z"/><path id="Слой_113" data-name="Слой 113" class="cls-3" d="M160.61 87.75h-17.23c-10.86 1.49-10.41 25.64-2.27 30.56h5.85c4.45.67 7.04-1.22 5.85-4.56-2.66-7.49-2.71-13.8 0-18.85 2.2-4.12 8.68-3.74 7.8-7.15z"/></g></g></svg>