<svg id="service-3" xmlns="http://www.w3.org/2000/svg" width="435.969" height="295.97" viewBox="0 0 435.969 295.97"><defs><style>.cls-1 { fill: #242c4e; } .cls-1, .cls-2, .cls-3, .cls-4 { fill-rule: evenodd; } .cls-2 { fill: #83b1e1; } .cls-3 { fill: #0351a1; } .cls-4 { fill: #fff; }</style></defs><g id="Слой_125" data-name="Слой 125"><path id="Слой_121" data-name="Слой 121" class="cls-1" d="M156.97 36.97l259 259h-240l-159-160 38-83h87z"/><path id="Слой_122" data-name="Слой 122" class="cls-2" d="M94.398.38a86.335 86.335 0 0 0-16.86 0L75.007 13.7a72.775 72.775 0 0 0-15.68 4.2l-8.85-10.26a85.1 85.1 0 0 0-14.6 8.43l4.463 12.79a73.21 73.21 0 0 0-11.48 11.48l-12.8-4.46a86.092 86.092 0 0 0-8.43 14.6l10.263 8.85a72.98 72.98 0 0 0-4.2 15.68L.38 77.54a86 86 0 0 0 0 16.86l13.314 2.53a72.98 72.98 0 0 0 4.2 15.68L7.63 121.46a86.092 86.092 0 0 0 8.43 14.6l12.8-4.46a73.21 73.21 0 0 0 11.48 11.48l-4.463 12.79a85.1 85.1 0 0 0 14.6 8.43l8.85-10.26a72.775 72.775 0 0 0 15.68 4.2l2.533 13.32a86.335 86.335 0 0 0 16.86 0l2.532-13.32a72.773 72.773 0 0 0 15.68-4.2l8.85 10.26a85.1 85.1 0 0 0 14.6-8.43l-4.462-12.79a73.18 73.18 0 0 0 11.48-11.48l12.8 4.46a86.1 86.1 0 0 0 8.428-14.6l-10.262-8.85a72.99 72.99 0 0 0 4.2-15.68l13.313-2.53a86.034 86.034 0 0 0 0-16.86l-13.314-2.53a72.99 72.99 0 0 0-4.2-15.68l10.262-8.85a86.1 86.1 0 0 0-8.43-14.6l-12.8 4.46A73.18 73.18 0 0 0 131.6 28.86l4.463-12.79a85.1 85.1 0 0 0-14.6-8.43l-8.85 10.26a72.773 72.773 0 0 0-15.68-4.2zm-8.43 68.39a17.2 17.2 0 1 1-17.2 17.2 17.21 17.21 0 0 1 17.2-17.2z"/><path id="Слой_123" data-name="Слой 123" class="cls-3" d="M171.627 93.63l-.072.77-13.313 2.53a72.99 72.99 0 0 1-4.2 15.68l10.262 8.85a86.1 86.1 0 0 1-8.43 14.6l-12.8-4.46a73.18 73.18 0 0 1-11.478 11.48l4.463 12.79a85.1 85.1 0 0 1-14.6 8.43l-8.85-10.26a72.773 72.773 0 0 1-15.682 4.2l-2.533 13.32c-.257.02-.514.05-.77.07l-47.656-47.66 63-5 19-69z"/><path id="Слой_124" data-name="Слой 124" class="cls-4" d="M85.97 30.97a55 55 0 1 1-55 55 55.023 55.023 0 0 1 55-55zm0 27.5a27.5 27.5 0 1 1-27.5 27.5 27.51 27.51 0 0 1 27.5-27.5z"/></g><g id="Слой_133" data-name="Слой 133"><path id="Слой_127" data-name="Слой 127" class="cls-1" d="M263.51 123.51l172.46 172.46H276.16L170.29 189.43l25.3-55.27h57.93z"/><g id="Слой_132" data-name="Слой 132"><path id="Слой_129" data-name="Слой 129" class="cls-2" d="M224 101.23a54.834 54.834 0 0 0-10.72 0l-1.61 8.47a45.892 45.892 0 0 0-9.967 2.67l-5.626-6.53a55.222 55.222 0 0 0-9.282 5.36l2.837 8.14a46.5 46.5 0 0 0-7.3 7.29l-8.134-2.83a54.7 54.7 0 0 0-5.36 9.28l6.525 5.62a46.627 46.627 0 0 0-2.67 9.97l-8.464 1.61a54.7 54.7 0 0 0 0 10.72l8.462 1.61a46.627 46.627 0 0 0 2.67 9.97l-6.523 5.62a54.784 54.784 0 0 0 5.358 9.29l8.134-2.84a46.99 46.99 0 0 0 7.3 7.3l-2.837 8.13a54.546 54.546 0 0 0 9.282 5.36l5.626-6.53a46.49 46.49 0 0 0 9.968 2.68l1.61 8.46a54.834 54.834 0 0 0 10.72 0l1.61-8.46a46.49 46.49 0 0 0 9.967-2.68l5.626 6.53a54.546 54.546 0 0 0 9.282-5.36l-2.837-8.13a47.034 47.034 0 0 0 7.3-7.3l8.134 2.84a54.784 54.784 0 0 0 5.36-9.29l-6.525-5.62a46.686 46.686 0 0 0 2.67-9.97l8.464-1.61a54.7 54.7 0 0 0 0-10.72l-8.462-1.61a46.686 46.686 0 0 0-2.67-9.97l6.523-5.62a54.7 54.7 0 0 0-5.358-9.28l-8.134 2.83a46.538 46.538 0 0 0-7.3-7.29l2.837-8.14a55.222 55.222 0 0 0-9.282-5.36l-5.626 6.53a45.892 45.892 0 0 0-9.968-2.67zm-5.36 43.48a10.935 10.935 0 1 1-10.934 10.93 10.94 10.94 0 0 1 10.934-10.93z"/><path id="Слой_130" data-name="Слой 130" class="cls-3" d="M273.094 160.51l-.046.49-8.463 1.61a46.686 46.686 0 0 1-2.67 9.97l6.523 5.62a54.784 54.784 0 0 1-5.36 9.29l-8.133-2.84a47.034 47.034 0 0 1-7.3 7.3l2.837 8.13a54.546 54.546 0 0 1-9.282 5.36l-5.626-6.53a46.49 46.49 0 0 1-9.968 2.68l-1.61 8.46c-.164.01-.327.03-.49.04l-30.3-30.29 40.048-3.18 12.08-43.86z"/><path id="Слой_131" data-name="Слой 131" class="cls-4" d="M218.64 120.68a34.96 34.96 0 1 1-34.964 34.96 34.975 34.975 0 0 1 34.964-34.96zm0 17.48a17.48 17.48 0 1 1-17.482 17.48 17.487 17.487 0 0 1 17.482-17.48z"/></g></g></svg>